G75*
%MOIN*%
%OFA0B0*%
%FSLAX24Y24*%
%IPPOS*%
%LPD*%
%AMOC8*
5,1,8,0,0,1.08239X$1,22.5*
%
%ADD10C,0.0080*%
%ADD11R,0.0157X0.0551*%
%ADD12R,0.0118X0.0472*%
%ADD13R,0.0472X0.0118*%
%ADD14C,0.0700*%
%ADD15R,0.0315X0.0315*%
%ADD16R,0.0315X0.0354*%
%ADD17R,0.0433X0.0394*%
%ADD18R,0.0630X0.0512*%
%ADD19R,0.0394X0.0551*%
%ADD20R,0.0217X0.0472*%
%ADD21R,0.0394X0.0433*%
%ADD22R,0.0472X0.0787*%
%ADD23R,0.0236X0.0531*%
%ADD24R,0.0402X0.2362*%
%ADD25C,0.0540*%
%ADD26C,0.1000*%
%ADD27C,0.0240*%
%ADD28C,0.0270*%
%ADD29C,0.0220*%
%ADD30C,0.0160*%
%ADD31C,0.0120*%
%ADD32C,0.0200*%
%ADD33C,0.0100*%
D10*
X005695Y007520D02*
X005714Y007500D01*
X009866Y010390D02*
X009834Y010500D01*
X002623Y011000D02*
X002625Y011181D01*
X002632Y011362D01*
X002643Y011543D01*
X002659Y011724D01*
X002679Y011904D01*
X002703Y012084D01*
X002732Y012263D01*
X002765Y012441D01*
X002802Y012619D01*
X002844Y012795D01*
X002891Y012970D01*
X002941Y013144D01*
X002996Y013317D01*
X003055Y013489D01*
X003118Y013659D01*
X003185Y013827D01*
X003257Y013994D01*
X003332Y014158D01*
X003412Y014321D01*
X003495Y014482D01*
X003583Y014641D01*
X003674Y014798D01*
X003769Y014952D01*
X003868Y015104D01*
X003971Y015253D01*
X004077Y015400D01*
X004186Y015545D01*
X004300Y015686D01*
X004416Y015825D01*
X004537Y015961D01*
X004660Y016094D01*
X004787Y016223D01*
X004916Y016350D01*
X005049Y016473D01*
X005185Y016594D01*
X005324Y016710D01*
X005465Y016824D01*
X005610Y016933D01*
X005757Y017039D01*
X005906Y017142D01*
X006058Y017241D01*
X006212Y017336D01*
X006369Y017427D01*
X006528Y017515D01*
X006689Y017598D01*
X006852Y017678D01*
X007016Y017753D01*
X007183Y017825D01*
X007351Y017892D01*
X007521Y017955D01*
X007693Y018014D01*
X007866Y018069D01*
X008040Y018119D01*
X008215Y018166D01*
X008391Y018208D01*
X008569Y018245D01*
X008747Y018278D01*
X008926Y018307D01*
X009106Y018331D01*
X009286Y018351D01*
X009467Y018367D01*
X009648Y018378D01*
X009829Y018385D01*
X010010Y018387D01*
X010191Y018385D01*
X010372Y018378D01*
X010553Y018367D01*
X010734Y018351D01*
X010914Y018331D01*
X011094Y018307D01*
X011273Y018278D01*
X011451Y018245D01*
X011629Y018208D01*
X011805Y018166D01*
X011980Y018119D01*
X012154Y018069D01*
X012327Y018014D01*
X012499Y017955D01*
X012669Y017892D01*
X012837Y017825D01*
X013004Y017753D01*
X013168Y017678D01*
X013331Y017598D01*
X013492Y017515D01*
X013651Y017427D01*
X013808Y017336D01*
X013962Y017241D01*
X014114Y017142D01*
X014263Y017039D01*
X014410Y016933D01*
X014555Y016824D01*
X014696Y016710D01*
X014835Y016594D01*
X014971Y016473D01*
X015104Y016350D01*
X015233Y016223D01*
X015360Y016094D01*
X015483Y015961D01*
X015604Y015825D01*
X015720Y015686D01*
X015834Y015545D01*
X015943Y015400D01*
X016049Y015253D01*
X016152Y015104D01*
X016251Y014952D01*
X016346Y014798D01*
X016437Y014641D01*
X016525Y014482D01*
X016608Y014321D01*
X016688Y014158D01*
X016763Y013994D01*
X016835Y013827D01*
X016902Y013659D01*
X016965Y013489D01*
X017024Y013317D01*
X017079Y013144D01*
X017129Y012970D01*
X017176Y012795D01*
X017218Y012619D01*
X017255Y012441D01*
X017288Y012263D01*
X017317Y012084D01*
X017341Y011904D01*
X017361Y011724D01*
X017377Y011543D01*
X017388Y011362D01*
X017395Y011181D01*
X017397Y011000D01*
X017395Y010819D01*
X017388Y010638D01*
X017377Y010457D01*
X017361Y010276D01*
X017341Y010096D01*
X017317Y009916D01*
X017288Y009737D01*
X017255Y009559D01*
X017218Y009381D01*
X017176Y009205D01*
X017129Y009030D01*
X017079Y008856D01*
X017024Y008683D01*
X016965Y008511D01*
X016902Y008341D01*
X016835Y008173D01*
X016763Y008006D01*
X016688Y007842D01*
X016608Y007679D01*
X016525Y007518D01*
X016437Y007359D01*
X016346Y007202D01*
X016251Y007048D01*
X016152Y006896D01*
X016049Y006747D01*
X015943Y006600D01*
X015834Y006455D01*
X015720Y006314D01*
X015604Y006175D01*
X015483Y006039D01*
X015360Y005906D01*
X015233Y005777D01*
X015104Y005650D01*
X014971Y005527D01*
X014835Y005406D01*
X014696Y005290D01*
X014555Y005176D01*
X014410Y005067D01*
X014263Y004961D01*
X014114Y004858D01*
X013962Y004759D01*
X013808Y004664D01*
X013651Y004573D01*
X013492Y004485D01*
X013331Y004402D01*
X013168Y004322D01*
X013004Y004247D01*
X012837Y004175D01*
X012669Y004108D01*
X012499Y004045D01*
X012327Y003986D01*
X012154Y003931D01*
X011980Y003881D01*
X011805Y003834D01*
X011629Y003792D01*
X011451Y003755D01*
X011273Y003722D01*
X011094Y003693D01*
X010914Y003669D01*
X010734Y003649D01*
X010553Y003633D01*
X010372Y003622D01*
X010191Y003615D01*
X010010Y003613D01*
X009829Y003615D01*
X009648Y003622D01*
X009467Y003633D01*
X009286Y003649D01*
X009106Y003669D01*
X008926Y003693D01*
X008747Y003722D01*
X008569Y003755D01*
X008391Y003792D01*
X008215Y003834D01*
X008040Y003881D01*
X007866Y003931D01*
X007693Y003986D01*
X007521Y004045D01*
X007351Y004108D01*
X007183Y004175D01*
X007016Y004247D01*
X006852Y004322D01*
X006689Y004402D01*
X006528Y004485D01*
X006369Y004573D01*
X006212Y004664D01*
X006058Y004759D01*
X005906Y004858D01*
X005757Y004961D01*
X005610Y005067D01*
X005465Y005176D01*
X005324Y005290D01*
X005185Y005406D01*
X005049Y005527D01*
X004916Y005650D01*
X004787Y005777D01*
X004660Y005906D01*
X004537Y006039D01*
X004416Y006175D01*
X004300Y006314D01*
X004186Y006455D01*
X004077Y006600D01*
X003971Y006747D01*
X003868Y006896D01*
X003769Y007048D01*
X003674Y007202D01*
X003583Y007359D01*
X003495Y007518D01*
X003412Y007679D01*
X003332Y007842D01*
X003257Y008006D01*
X003185Y008173D01*
X003118Y008341D01*
X003055Y008511D01*
X002996Y008683D01*
X002941Y008856D01*
X002891Y009030D01*
X002844Y009205D01*
X002802Y009381D01*
X002765Y009559D01*
X002732Y009737D01*
X002703Y009916D01*
X002679Y010096D01*
X002659Y010276D01*
X002643Y010457D01*
X002632Y010638D01*
X002625Y010819D01*
X002623Y011000D01*
D11*
X006634Y009839D03*
X006889Y009839D03*
X007145Y009839D03*
X007401Y009839D03*
X007657Y009839D03*
X007913Y009839D03*
X008169Y009839D03*
X008169Y012161D03*
X007913Y012161D03*
X007657Y012161D03*
X007401Y012161D03*
X007145Y012161D03*
X006889Y012161D03*
X006634Y012161D03*
D12*
X009866Y011610D03*
X010063Y011610D03*
X010260Y011610D03*
X010456Y011610D03*
X010653Y011610D03*
X010653Y010390D03*
X010456Y010390D03*
X010260Y010390D03*
X010063Y010390D03*
X009866Y010390D03*
D13*
X009679Y010803D03*
X009679Y011000D03*
X009679Y011197D03*
X010840Y011197D03*
X010840Y011000D03*
X010840Y010803D03*
D14*
X014760Y009720D03*
X014760Y012280D03*
D15*
X010055Y007500D03*
X009464Y007500D03*
X008555Y007500D03*
X007964Y007500D03*
X006305Y007500D03*
X005714Y007500D03*
D16*
X007445Y005000D03*
X008074Y005000D03*
X010445Y005000D03*
X011074Y005000D03*
X010074Y008500D03*
X009445Y008500D03*
X008574Y008500D03*
X007945Y008500D03*
X006324Y008500D03*
X005695Y008500D03*
X012445Y009000D03*
X013074Y009000D03*
X006324Y014250D03*
X005695Y014250D03*
D17*
X004844Y012500D03*
X004175Y012500D03*
X004175Y009500D03*
X004844Y009500D03*
D18*
X015760Y010409D03*
X015760Y011591D03*
D19*
X013510Y010933D03*
X013884Y010067D03*
X013135Y010067D03*
X012260Y005933D03*
X012634Y005067D03*
X011885Y005067D03*
X009634Y005067D03*
X008885Y005067D03*
X009260Y005933D03*
D20*
X004634Y010488D03*
X003885Y010488D03*
X003885Y011512D03*
X004260Y011512D03*
X004634Y011512D03*
D21*
X005760Y011335D03*
X005760Y010665D03*
X011760Y010585D03*
X011760Y009915D03*
X011760Y011415D03*
X011760Y012085D03*
D22*
G36*
X015506Y007645D02*
X015173Y007312D01*
X014618Y007867D01*
X014951Y008200D01*
X015506Y007645D01*
G37*
G36*
X013947Y006086D02*
X013614Y005753D01*
X013059Y006308D01*
X013392Y006641D01*
X013947Y006086D01*
G37*
D23*
G36*
X013112Y007479D02*
X012945Y007312D01*
X012572Y007685D01*
X012739Y007852D01*
X013112Y007479D01*
G37*
G36*
X013390Y007758D02*
X013223Y007591D01*
X012850Y007964D01*
X013017Y008131D01*
X013390Y007758D01*
G37*
G36*
X013669Y008036D02*
X013502Y007869D01*
X013129Y008242D01*
X013296Y008409D01*
X013669Y008036D01*
G37*
G36*
X013947Y008315D02*
X013780Y008148D01*
X013407Y008521D01*
X013574Y008688D01*
X013947Y008315D01*
G37*
D24*
X012510Y015250D03*
X011510Y015250D03*
X010510Y015250D03*
X009510Y015250D03*
X008510Y015250D03*
X007510Y015250D03*
D25*
X013740Y014750D02*
X014280Y014750D01*
X014280Y015750D02*
X013740Y015750D01*
D26*
X004510Y014250D03*
D27*
X004260Y014000D01*
X003510Y013250D01*
X003510Y010000D01*
X004260Y010000D01*
X004260Y009500D01*
X004175Y009500D01*
X004260Y009500D02*
X004260Y008750D01*
X005010Y008750D01*
X005010Y007000D01*
X005360Y006650D01*
X011410Y006650D01*
X012360Y007600D01*
X012824Y007600D01*
X012842Y007582D01*
X013760Y009500D02*
X013884Y009624D01*
X013884Y010067D01*
X014760Y009720D02*
X014760Y010500D01*
X014850Y010409D01*
X015760Y010409D01*
X014760Y010500D02*
X014326Y010933D01*
X013510Y010933D01*
X015760Y011591D02*
X015760Y012250D01*
X015730Y012280D01*
X014760Y012280D01*
X015760Y012250D02*
X015760Y014500D01*
X014510Y015750D01*
X014010Y015750D01*
X006545Y012250D02*
X005260Y012250D01*
X005094Y012250D01*
X004844Y012500D01*
X005260Y012250D02*
X005260Y012000D01*
X005260Y011335D01*
X005760Y011335D01*
X005260Y011335D02*
X005010Y011000D01*
X005010Y010000D01*
X005010Y009750D01*
X004844Y009500D01*
X004634Y010000D02*
X004260Y010000D01*
X004634Y010000D02*
X004634Y010488D01*
X005760Y010665D02*
X005760Y009500D01*
X005010Y008750D01*
X007945Y007520D02*
X007964Y007500D01*
X004175Y012500D02*
X004175Y013165D01*
X004260Y013250D01*
X004510Y014250D02*
X005695Y014250D01*
D28*
X007010Y014250D03*
X009510Y013750D03*
X005260Y012000D03*
X004260Y013250D03*
X007510Y010500D03*
X005010Y010000D03*
X006760Y008500D03*
X006010Y007000D03*
X008510Y007000D03*
X010010Y007000D03*
X010010Y005750D03*
X010760Y005750D03*
X013010Y005750D03*
X014260Y007750D03*
X010760Y009250D03*
X011010Y009750D03*
X013760Y009500D03*
X011260Y011500D03*
X006510Y005750D03*
D29*
X004634Y011512D02*
X004634Y011876D01*
X004510Y012000D01*
X004260Y012000D01*
X004260Y012415D01*
X004260Y012000D02*
X004010Y012000D01*
X003885Y011876D01*
X003885Y011512D01*
D30*
X004260Y012415D02*
X004175Y012500D01*
X006545Y012250D02*
X006634Y012161D01*
X006195Y013750D02*
X008010Y013750D01*
X008510Y014250D01*
X008510Y015250D01*
X007510Y015250D02*
X007510Y014750D01*
X007010Y014250D01*
X006324Y014250D01*
X006195Y013750D02*
X005695Y014250D01*
X011260Y011500D02*
X011675Y011500D01*
X011760Y011415D01*
X013074Y010006D02*
X013074Y009000D01*
X013677Y008418D02*
X014260Y007835D01*
X014260Y007750D01*
X013010Y005750D02*
X013010Y005443D01*
X012634Y005067D01*
X011885Y005067D02*
X011141Y005067D01*
X011074Y005000D01*
X010510Y005065D02*
X010445Y005000D01*
X010510Y005065D02*
X010510Y005250D01*
X010760Y005500D01*
X010760Y005750D01*
X010010Y005750D02*
X010010Y005443D01*
X009634Y005067D01*
X008885Y005067D02*
X008819Y005000D01*
X008074Y005000D01*
X007445Y005000D02*
X007445Y005565D01*
X007260Y005750D01*
X006510Y005750D01*
X006010Y007000D02*
X006305Y007295D01*
X006305Y007500D01*
X005695Y007520D02*
X005695Y008500D01*
X007945Y008500D02*
X007945Y007520D01*
X008510Y007455D02*
X008510Y007000D01*
X008510Y007455D02*
X008555Y007500D01*
X009464Y007500D02*
X009464Y007955D01*
X009510Y008000D01*
X010010Y008000D01*
X010074Y008065D01*
X010074Y008500D01*
X010055Y007500D02*
X010010Y007455D01*
X010010Y007000D01*
X006634Y009839D02*
X005760Y009839D01*
D31*
X005760Y010665D01*
X006889Y009839D02*
X006889Y009065D01*
X006324Y008500D01*
X006760Y008500D02*
X007401Y009142D01*
X007401Y009839D01*
X007657Y009839D02*
X007657Y010148D01*
X007810Y010300D01*
X008960Y010300D01*
X010510Y008750D01*
X012260Y008750D01*
X012510Y009000D01*
X012445Y009000D01*
X013399Y008139D02*
X013760Y007778D01*
X013760Y007433D01*
X012260Y005933D01*
X011760Y006250D02*
X012010Y006500D01*
X012510Y006500D01*
X013510Y007500D01*
X013149Y007861D01*
X013120Y007861D01*
X011760Y006250D02*
X009510Y006250D01*
X009260Y006000D01*
X009260Y005933D01*
X009445Y008500D02*
X009445Y008815D01*
X008421Y009839D01*
X008169Y009839D01*
X007913Y009839D02*
X007913Y009346D01*
X008010Y009250D01*
X008510Y009250D01*
X008574Y009185D01*
X008574Y008500D01*
X011010Y009750D02*
X011175Y009915D01*
X011260Y009915D01*
X010785Y010390D01*
X010653Y010390D01*
X010456Y010390D01*
X010840Y010803D02*
X011059Y010585D01*
X011760Y010585D01*
X012094Y010585D01*
X012260Y010750D01*
X012260Y012000D01*
X012260Y012500D01*
X012010Y012750D01*
X012010Y016500D01*
X011760Y016750D01*
X008760Y016750D01*
X008510Y016500D01*
X008510Y014250D01*
X007260Y013250D02*
X010260Y013250D01*
X010510Y013500D01*
X010510Y015250D01*
X011510Y015250D02*
X011510Y013500D01*
X011010Y013000D01*
X007510Y013000D01*
X007145Y012636D01*
X007145Y012161D01*
X006889Y012161D02*
X006889Y012880D01*
X007260Y013250D01*
X010653Y011610D02*
X011128Y012085D01*
X011760Y012085D01*
X012175Y012085D01*
X012260Y012000D01*
X011260Y011500D02*
X011143Y011500D01*
X010840Y011197D01*
X011260Y009915D02*
X011760Y009915D01*
X013074Y010006D02*
X013135Y010067D01*
D32*
X009510Y013750D02*
X009510Y015250D01*
X004260Y011512D02*
X004260Y011000D01*
X005010Y011000D01*
D33*
X007145Y010136D02*
X007510Y010500D01*
X009834Y010500D01*
X010260Y010390D02*
X010260Y009750D01*
X010760Y009250D01*
X009679Y010803D02*
X007706Y010803D01*
X007401Y011108D01*
X007401Y012161D01*
X007657Y012161D02*
X007657Y011352D01*
X008010Y011000D01*
X009679Y011000D01*
X009679Y011197D02*
X008313Y011197D01*
X007913Y011596D01*
X007913Y012161D01*
X008160Y012171D02*
X008160Y012250D01*
X009760Y012250D01*
X010063Y011947D01*
X010063Y011610D01*
X008169Y012161D02*
X008160Y012171D01*
X007145Y010136D02*
X007145Y009839D01*
M02*
