G75*
%MOIN*%
%OFA0B0*%
%FSLAX24Y24*%
%IPPOS*%
%LPD*%
%AMOC8*
5,1,8,0,0,1.08239X$1,22.5*
%
%ADD10C,0.0080*%
%ADD11R,0.0157X0.0551*%
%ADD12R,0.0118X0.0472*%
%ADD13R,0.0472X0.0118*%
%ADD14R,0.0315X0.0315*%
%ADD15R,0.0315X0.0354*%
%ADD16R,0.0433X0.0394*%
%ADD17R,0.0630X0.0512*%
%ADD18R,0.0394X0.0551*%
%ADD19R,0.0217X0.0472*%
%ADD20R,0.0394X0.0433*%
%ADD21R,0.0472X0.0787*%
%ADD22R,0.0236X0.0531*%
%ADD23R,0.0402X0.2362*%
D10*
X002623Y011000D02*
X002625Y011181D01*
X002632Y011362D01*
X002643Y011543D01*
X002659Y011724D01*
X002679Y011904D01*
X002703Y012084D01*
X002732Y012263D01*
X002765Y012441D01*
X002802Y012619D01*
X002844Y012795D01*
X002891Y012970D01*
X002941Y013144D01*
X002996Y013317D01*
X003055Y013489D01*
X003118Y013659D01*
X003185Y013827D01*
X003257Y013994D01*
X003332Y014158D01*
X003412Y014321D01*
X003495Y014482D01*
X003583Y014641D01*
X003674Y014798D01*
X003769Y014952D01*
X003868Y015104D01*
X003971Y015253D01*
X004077Y015400D01*
X004186Y015545D01*
X004300Y015686D01*
X004416Y015825D01*
X004537Y015961D01*
X004660Y016094D01*
X004787Y016223D01*
X004916Y016350D01*
X005049Y016473D01*
X005185Y016594D01*
X005324Y016710D01*
X005465Y016824D01*
X005610Y016933D01*
X005757Y017039D01*
X005906Y017142D01*
X006058Y017241D01*
X006212Y017336D01*
X006369Y017427D01*
X006528Y017515D01*
X006689Y017598D01*
X006852Y017678D01*
X007016Y017753D01*
X007183Y017825D01*
X007351Y017892D01*
X007521Y017955D01*
X007693Y018014D01*
X007866Y018069D01*
X008040Y018119D01*
X008215Y018166D01*
X008391Y018208D01*
X008569Y018245D01*
X008747Y018278D01*
X008926Y018307D01*
X009106Y018331D01*
X009286Y018351D01*
X009467Y018367D01*
X009648Y018378D01*
X009829Y018385D01*
X010010Y018387D01*
X010191Y018385D01*
X010372Y018378D01*
X010553Y018367D01*
X010734Y018351D01*
X010914Y018331D01*
X011094Y018307D01*
X011273Y018278D01*
X011451Y018245D01*
X011629Y018208D01*
X011805Y018166D01*
X011980Y018119D01*
X012154Y018069D01*
X012327Y018014D01*
X012499Y017955D01*
X012669Y017892D01*
X012837Y017825D01*
X013004Y017753D01*
X013168Y017678D01*
X013331Y017598D01*
X013492Y017515D01*
X013651Y017427D01*
X013808Y017336D01*
X013962Y017241D01*
X014114Y017142D01*
X014263Y017039D01*
X014410Y016933D01*
X014555Y016824D01*
X014696Y016710D01*
X014835Y016594D01*
X014971Y016473D01*
X015104Y016350D01*
X015233Y016223D01*
X015360Y016094D01*
X015483Y015961D01*
X015604Y015825D01*
X015720Y015686D01*
X015834Y015545D01*
X015943Y015400D01*
X016049Y015253D01*
X016152Y015104D01*
X016251Y014952D01*
X016346Y014798D01*
X016437Y014641D01*
X016525Y014482D01*
X016608Y014321D01*
X016688Y014158D01*
X016763Y013994D01*
X016835Y013827D01*
X016902Y013659D01*
X016965Y013489D01*
X017024Y013317D01*
X017079Y013144D01*
X017129Y012970D01*
X017176Y012795D01*
X017218Y012619D01*
X017255Y012441D01*
X017288Y012263D01*
X017317Y012084D01*
X017341Y011904D01*
X017361Y011724D01*
X017377Y011543D01*
X017388Y011362D01*
X017395Y011181D01*
X017397Y011000D01*
X017395Y010819D01*
X017388Y010638D01*
X017377Y010457D01*
X017361Y010276D01*
X017341Y010096D01*
X017317Y009916D01*
X017288Y009737D01*
X017255Y009559D01*
X017218Y009381D01*
X017176Y009205D01*
X017129Y009030D01*
X017079Y008856D01*
X017024Y008683D01*
X016965Y008511D01*
X016902Y008341D01*
X016835Y008173D01*
X016763Y008006D01*
X016688Y007842D01*
X016608Y007679D01*
X016525Y007518D01*
X016437Y007359D01*
X016346Y007202D01*
X016251Y007048D01*
X016152Y006896D01*
X016049Y006747D01*
X015943Y006600D01*
X015834Y006455D01*
X015720Y006314D01*
X015604Y006175D01*
X015483Y006039D01*
X015360Y005906D01*
X015233Y005777D01*
X015104Y005650D01*
X014971Y005527D01*
X014835Y005406D01*
X014696Y005290D01*
X014555Y005176D01*
X014410Y005067D01*
X014263Y004961D01*
X014114Y004858D01*
X013962Y004759D01*
X013808Y004664D01*
X013651Y004573D01*
X013492Y004485D01*
X013331Y004402D01*
X013168Y004322D01*
X013004Y004247D01*
X012837Y004175D01*
X012669Y004108D01*
X012499Y004045D01*
X012327Y003986D01*
X012154Y003931D01*
X011980Y003881D01*
X011805Y003834D01*
X011629Y003792D01*
X011451Y003755D01*
X011273Y003722D01*
X011094Y003693D01*
X010914Y003669D01*
X010734Y003649D01*
X010553Y003633D01*
X010372Y003622D01*
X010191Y003615D01*
X010010Y003613D01*
X009829Y003615D01*
X009648Y003622D01*
X009467Y003633D01*
X009286Y003649D01*
X009106Y003669D01*
X008926Y003693D01*
X008747Y003722D01*
X008569Y003755D01*
X008391Y003792D01*
X008215Y003834D01*
X008040Y003881D01*
X007866Y003931D01*
X007693Y003986D01*
X007521Y004045D01*
X007351Y004108D01*
X007183Y004175D01*
X007016Y004247D01*
X006852Y004322D01*
X006689Y004402D01*
X006528Y004485D01*
X006369Y004573D01*
X006212Y004664D01*
X006058Y004759D01*
X005906Y004858D01*
X005757Y004961D01*
X005610Y005067D01*
X005465Y005176D01*
X005324Y005290D01*
X005185Y005406D01*
X005049Y005527D01*
X004916Y005650D01*
X004787Y005777D01*
X004660Y005906D01*
X004537Y006039D01*
X004416Y006175D01*
X004300Y006314D01*
X004186Y006455D01*
X004077Y006600D01*
X003971Y006747D01*
X003868Y006896D01*
X003769Y007048D01*
X003674Y007202D01*
X003583Y007359D01*
X003495Y007518D01*
X003412Y007679D01*
X003332Y007842D01*
X003257Y008006D01*
X003185Y008173D01*
X003118Y008341D01*
X003055Y008511D01*
X002996Y008683D01*
X002941Y008856D01*
X002891Y009030D01*
X002844Y009205D01*
X002802Y009381D01*
X002765Y009559D01*
X002732Y009737D01*
X002703Y009916D01*
X002679Y010096D01*
X002659Y010276D01*
X002643Y010457D01*
X002632Y010638D01*
X002625Y010819D01*
X002623Y011000D01*
D11*
X006384Y009839D03*
X006639Y009839D03*
X006895Y009839D03*
X007151Y009839D03*
X007407Y009839D03*
X007663Y009839D03*
X007919Y009839D03*
X007919Y012161D03*
X007663Y012161D03*
X007407Y012161D03*
X007151Y012161D03*
X006895Y012161D03*
X006639Y012161D03*
X006384Y012161D03*
D12*
X009866Y011610D03*
X010063Y011610D03*
X010260Y011610D03*
X010456Y011610D03*
X010653Y011610D03*
X010653Y010390D03*
X010456Y010390D03*
X010260Y010390D03*
X010063Y010390D03*
X009866Y010390D03*
D13*
X009679Y010803D03*
X009679Y011000D03*
X009679Y011197D03*
X010840Y011197D03*
X010840Y011000D03*
X010840Y010803D03*
D14*
X010055Y007250D03*
X009464Y007250D03*
X008555Y007250D03*
X007964Y007250D03*
X006305Y007250D03*
X005714Y007250D03*
D15*
X007695Y005000D03*
X008324Y005000D03*
X010695Y005000D03*
X011324Y005000D03*
X010074Y008250D03*
X009445Y008250D03*
X008574Y008250D03*
X007945Y008250D03*
X006324Y008250D03*
X005695Y008250D03*
X012445Y009000D03*
X013074Y009000D03*
X006574Y016150D03*
X005945Y016150D03*
D16*
X004344Y012500D03*
X003675Y012500D03*
X003675Y009500D03*
X004344Y009500D03*
D17*
X015760Y010409D03*
X015760Y011591D03*
D18*
X013510Y010933D03*
X013884Y010067D03*
X013135Y010067D03*
X012510Y005933D03*
X012884Y005067D03*
X012135Y005067D03*
X009884Y005067D03*
X009135Y005067D03*
X009510Y005933D03*
D19*
X004384Y010488D03*
X003635Y010488D03*
X003635Y011512D03*
X004010Y011512D03*
X004384Y011512D03*
D20*
X005510Y011335D03*
X005510Y010665D03*
X011760Y010585D03*
X011760Y009915D03*
X011760Y011415D03*
X011760Y012085D03*
D21*
G36*
X015756Y007395D02*
X015423Y007062D01*
X014868Y007617D01*
X015201Y007950D01*
X015756Y007395D01*
G37*
G36*
X014197Y005836D02*
X013864Y005503D01*
X013309Y006058D01*
X013642Y006391D01*
X014197Y005836D01*
G37*
D22*
G36*
X013362Y007229D02*
X013195Y007062D01*
X012822Y007435D01*
X012989Y007602D01*
X013362Y007229D01*
G37*
G36*
X013640Y007508D02*
X013473Y007341D01*
X013100Y007714D01*
X013267Y007881D01*
X013640Y007508D01*
G37*
G36*
X013919Y007786D02*
X013752Y007619D01*
X013379Y007992D01*
X013546Y008159D01*
X013919Y007786D01*
G37*
G36*
X014197Y008065D02*
X014030Y007898D01*
X013657Y008271D01*
X013824Y008438D01*
X014197Y008065D01*
G37*
D23*
X012510Y015250D03*
X011510Y015250D03*
X010510Y015250D03*
X009510Y015250D03*
X008510Y015250D03*
X007510Y015250D03*
M02*
