G75*
%MOIN*%
%OFA0B0*%
%FSLAX24Y24*%
%IPPOS*%
%LPD*%
%AMOC8*
5,1,8,0,0,1.08239X$1,22.5*
%
%ADD10C,0.0080*%
%ADD11C,0.0700*%
%ADD12R,0.2390X0.2390*%
%ADD13C,0.0540*%
%ADD14C,0.0270*%
%ADD15C,0.0240*%
%ADD16C,0.0160*%
D10*
X007037Y004490D02*
X007993Y004133D01*
X008991Y003916D01*
X010010Y003843D01*
X011028Y003916D01*
X012026Y004133D01*
X012982Y004490D01*
X013879Y004979D01*
X014696Y005591D01*
X015418Y006313D01*
X016030Y007131D01*
X016519Y008027D01*
X016876Y008984D01*
X017093Y009982D01*
X017093Y009982D01*
X017166Y011000D01*
X017093Y012018D01*
X016876Y013016D01*
X016519Y013973D01*
X016030Y014869D01*
X015418Y015687D01*
X014696Y016409D01*
X014696Y016409D01*
X013879Y017021D01*
X012982Y017510D01*
X012026Y017867D01*
X011028Y018084D01*
X010010Y018157D01*
X008991Y018084D01*
X007993Y017867D01*
X007037Y017510D01*
X006535Y017236D01*
X008531Y017236D01*
X008541Y017240D01*
X009423Y017240D01*
X009459Y017255D01*
X009560Y017255D01*
X009654Y017216D01*
X009726Y017144D01*
X009765Y017051D01*
X009765Y016949D01*
X009726Y016856D01*
X009654Y016784D01*
X009560Y016745D01*
X009459Y016745D01*
X009423Y016760D01*
X008824Y016760D01*
X008824Y014677D01*
X008754Y014606D01*
X006265Y014606D01*
X006195Y014677D01*
X006195Y015260D01*
X005346Y015260D01*
X005310Y015245D01*
X005209Y015245D01*
X005115Y015284D01*
X005043Y015356D01*
X005005Y015449D01*
X005005Y015551D01*
X005043Y015644D01*
X005115Y015716D01*
X005209Y015755D01*
X005310Y015755D01*
X005346Y015740D01*
X006195Y015740D01*
X006195Y017050D01*
X006140Y017021D01*
X005323Y016409D01*
X004601Y015687D01*
X003989Y014869D01*
X003500Y013973D01*
X003143Y013016D01*
X002926Y012018D01*
X002853Y011000D01*
X002926Y009982D01*
X003143Y008984D01*
X003500Y008027D01*
X003989Y007131D01*
X004601Y006313D01*
X005323Y005591D01*
X006140Y004979D01*
X006195Y004950D01*
X006195Y007323D01*
X006265Y007394D01*
X008754Y007394D01*
X008824Y007323D01*
X008824Y004834D01*
X008754Y004764D01*
X006535Y004764D01*
X007037Y004490D01*
X006981Y004521D02*
X013038Y004521D01*
X013182Y004599D02*
X006837Y004599D01*
X006693Y004678D02*
X013326Y004678D01*
X013469Y004756D02*
X006550Y004756D01*
X006195Y004992D02*
X006124Y004992D01*
X006195Y005070D02*
X006019Y005070D01*
X005915Y005149D02*
X006195Y005149D01*
X006195Y005227D02*
X005810Y005227D01*
X005705Y005306D02*
X006195Y005306D01*
X006195Y005384D02*
X005600Y005384D01*
X005495Y005463D02*
X006195Y005463D01*
X006195Y005541D02*
X005390Y005541D01*
X005295Y005620D02*
X006195Y005620D01*
X006195Y005698D02*
X005216Y005698D01*
X005138Y005777D02*
X006195Y005777D01*
X006195Y005855D02*
X005059Y005855D01*
X004981Y005934D02*
X006195Y005934D01*
X006195Y006012D02*
X004902Y006012D01*
X004824Y006091D02*
X006195Y006091D01*
X006195Y006169D02*
X004745Y006169D01*
X004667Y006248D02*
X006195Y006248D01*
X006195Y006326D02*
X004591Y006326D01*
X004533Y006405D02*
X006195Y006405D01*
X006195Y006483D02*
X004474Y006483D01*
X004415Y006562D02*
X006195Y006562D01*
X006195Y006640D02*
X004356Y006640D01*
X004298Y006719D02*
X006195Y006719D01*
X006195Y006797D02*
X004239Y006797D01*
X004180Y006876D02*
X006195Y006876D01*
X006195Y006954D02*
X004121Y006954D01*
X004063Y007033D02*
X006195Y007033D01*
X006195Y007111D02*
X004004Y007111D01*
X003957Y007190D02*
X006195Y007190D01*
X006195Y007268D02*
X003914Y007268D01*
X003871Y007347D02*
X006218Y007347D01*
X003828Y007425D02*
X009149Y007425D01*
X009115Y007388D02*
X009060Y007333D01*
X009060Y007328D01*
X009056Y007324D01*
X009060Y007246D01*
X009060Y006661D01*
X009043Y006644D01*
X009005Y006551D01*
X009005Y006449D01*
X009043Y006356D01*
X009115Y006284D01*
X009209Y006245D01*
X009310Y006245D01*
X009404Y006284D01*
X009476Y006356D01*
X009515Y006449D01*
X009515Y006551D01*
X009476Y006644D01*
X009460Y006661D01*
X009460Y007172D01*
X012154Y010112D01*
X012210Y010167D01*
X012210Y010172D01*
X012213Y010176D01*
X012210Y010254D01*
X012210Y016333D01*
X011015Y017528D01*
X011015Y017551D01*
X010976Y017644D01*
X010904Y017716D01*
X010810Y017755D01*
X010709Y017755D01*
X010615Y017716D01*
X010543Y017644D01*
X010505Y017551D01*
X010505Y017449D01*
X010543Y017356D01*
X010615Y017284D01*
X010709Y017245D01*
X010732Y017245D01*
X011810Y016167D01*
X011810Y010328D01*
X009115Y007388D01*
X009073Y007347D02*
X008801Y007347D01*
X008824Y007268D02*
X009059Y007268D01*
X009060Y007190D02*
X008824Y007190D01*
X008824Y007111D02*
X009060Y007111D01*
X009060Y007033D02*
X008824Y007033D01*
X008824Y006954D02*
X009060Y006954D01*
X009060Y006876D02*
X008824Y006876D01*
X008824Y006797D02*
X009060Y006797D01*
X009060Y006719D02*
X008824Y006719D01*
X008824Y006640D02*
X009041Y006640D01*
X009009Y006562D02*
X008824Y006562D01*
X008824Y006483D02*
X009005Y006483D01*
X009023Y006405D02*
X008824Y006405D01*
X008824Y006326D02*
X009073Y006326D01*
X009203Y006248D02*
X008824Y006248D01*
X008824Y006169D02*
X011060Y006169D01*
X011060Y006161D02*
X011043Y006144D01*
X011005Y006051D01*
X011005Y005949D01*
X011043Y005856D01*
X011115Y005784D01*
X011209Y005745D01*
X011310Y005745D01*
X011404Y005784D01*
X011476Y005856D01*
X011515Y005949D01*
X011515Y006051D01*
X011476Y006144D01*
X011460Y006161D01*
X011460Y008589D01*
X011476Y008606D01*
X011515Y008699D01*
X011515Y008801D01*
X011476Y008894D01*
X011404Y008966D01*
X011310Y009005D01*
X011209Y009005D01*
X011115Y008966D01*
X011043Y008894D01*
X011005Y008801D01*
X011005Y008699D01*
X011043Y008606D01*
X011060Y008589D01*
X011060Y006161D01*
X011021Y006091D02*
X008824Y006091D01*
X008824Y006012D02*
X011005Y006012D01*
X011011Y005934D02*
X008824Y005934D01*
X008824Y005855D02*
X011044Y005855D01*
X011133Y005777D02*
X008824Y005777D01*
X008824Y005698D02*
X014803Y005698D01*
X014881Y005777D02*
X011386Y005777D01*
X011475Y005855D02*
X014960Y005855D01*
X015038Y005934D02*
X011508Y005934D01*
X011515Y006012D02*
X015117Y006012D01*
X015195Y006091D02*
X011498Y006091D01*
X011460Y006169D02*
X015274Y006169D01*
X015352Y006248D02*
X011460Y006248D01*
X011460Y006326D02*
X015428Y006326D01*
X015486Y006405D02*
X011460Y006405D01*
X011460Y006483D02*
X015545Y006483D01*
X015604Y006562D02*
X011460Y006562D01*
X011460Y006640D02*
X015663Y006640D01*
X015721Y006719D02*
X011460Y006719D01*
X011460Y006797D02*
X015780Y006797D01*
X015839Y006876D02*
X011460Y006876D01*
X011460Y006954D02*
X015898Y006954D01*
X015956Y007033D02*
X011460Y007033D01*
X011460Y007111D02*
X016015Y007111D01*
X016062Y007190D02*
X011460Y007190D01*
X011460Y007268D02*
X016105Y007268D01*
X016148Y007347D02*
X011460Y007347D01*
X011460Y007425D02*
X016191Y007425D01*
X016234Y007504D02*
X011460Y007504D01*
X011460Y007582D02*
X016276Y007582D01*
X016319Y007661D02*
X011460Y007661D01*
X011460Y007739D02*
X016362Y007739D01*
X016405Y007818D02*
X011460Y007818D01*
X011460Y007896D02*
X016448Y007896D01*
X016491Y007975D02*
X011460Y007975D01*
X011460Y008053D02*
X016529Y008053D01*
X016558Y008132D02*
X011460Y008132D01*
X011460Y008210D02*
X016588Y008210D01*
X016617Y008289D02*
X011460Y008289D01*
X011460Y008367D02*
X016646Y008367D01*
X016676Y008446D02*
X011460Y008446D01*
X011460Y008524D02*
X016705Y008524D01*
X016734Y008603D02*
X011473Y008603D01*
X011507Y008681D02*
X016763Y008681D01*
X016793Y008760D02*
X011515Y008760D01*
X011499Y008838D02*
X016822Y008838D01*
X016851Y008917D02*
X011454Y008917D01*
X011334Y008995D02*
X016879Y008995D01*
X016896Y009074D02*
X011202Y009074D01*
X011185Y008995D02*
X011130Y008995D01*
X011065Y008917D02*
X011058Y008917D01*
X011020Y008838D02*
X010987Y008838D01*
X011005Y008760D02*
X010915Y008760D01*
X010843Y008681D02*
X011012Y008681D01*
X011046Y008603D02*
X010771Y008603D01*
X010699Y008524D02*
X011060Y008524D01*
X011060Y008446D02*
X010627Y008446D01*
X010555Y008367D02*
X011060Y008367D01*
X011060Y008289D02*
X010483Y008289D01*
X010411Y008210D02*
X011060Y008210D01*
X011060Y008132D02*
X010339Y008132D01*
X010267Y008053D02*
X011060Y008053D01*
X011060Y007975D02*
X010195Y007975D01*
X010123Y007896D02*
X011060Y007896D01*
X011060Y007818D02*
X010051Y007818D01*
X009979Y007739D02*
X011060Y007739D01*
X011060Y007661D02*
X009907Y007661D01*
X009835Y007582D02*
X011060Y007582D01*
X011060Y007504D02*
X009763Y007504D01*
X009691Y007425D02*
X011060Y007425D01*
X011060Y007347D02*
X009619Y007347D01*
X009547Y007268D02*
X011060Y007268D01*
X011060Y007190D02*
X009475Y007190D01*
X009460Y007111D02*
X011060Y007111D01*
X011060Y007033D02*
X009460Y007033D01*
X009460Y006954D02*
X011060Y006954D01*
X011060Y006876D02*
X009460Y006876D01*
X009460Y006797D02*
X011060Y006797D01*
X011060Y006719D02*
X009460Y006719D01*
X009478Y006640D02*
X011060Y006640D01*
X011060Y006562D02*
X009510Y006562D01*
X009515Y006483D02*
X011060Y006483D01*
X011060Y006405D02*
X009496Y006405D01*
X009446Y006326D02*
X011060Y006326D01*
X011060Y006248D02*
X009316Y006248D01*
X008824Y005620D02*
X014724Y005620D01*
X014629Y005541D02*
X008824Y005541D01*
X008824Y005463D02*
X014524Y005463D01*
X014419Y005384D02*
X008824Y005384D01*
X008824Y005306D02*
X014314Y005306D01*
X014209Y005227D02*
X008824Y005227D01*
X008824Y005149D02*
X014105Y005149D01*
X014000Y005070D02*
X008824Y005070D01*
X008824Y004992D02*
X013895Y004992D01*
X013757Y004913D02*
X008824Y004913D01*
X008824Y004835D02*
X013613Y004835D01*
X012854Y004442D02*
X007165Y004442D01*
X007376Y004364D02*
X012643Y004364D01*
X012433Y004285D02*
X007586Y004285D01*
X007797Y004207D02*
X012222Y004207D01*
X012002Y004128D02*
X008017Y004128D01*
X008378Y004050D02*
X011641Y004050D01*
X011280Y003971D02*
X008739Y003971D01*
X009322Y003893D02*
X010697Y003893D01*
X009221Y007504D02*
X003785Y007504D01*
X003743Y007582D02*
X009293Y007582D01*
X009365Y007661D02*
X003700Y007661D01*
X003657Y007739D02*
X009436Y007739D01*
X009508Y007818D02*
X003614Y007818D01*
X003571Y007896D02*
X009580Y007896D01*
X009652Y007975D02*
X003528Y007975D01*
X003490Y008053D02*
X009724Y008053D01*
X009796Y008132D02*
X003461Y008132D01*
X003431Y008210D02*
X009868Y008210D01*
X009940Y008289D02*
X003402Y008289D01*
X003373Y008367D02*
X010012Y008367D01*
X010084Y008446D02*
X003344Y008446D01*
X003314Y008524D02*
X010156Y008524D01*
X010228Y008603D02*
X003285Y008603D01*
X003256Y008681D02*
X010300Y008681D01*
X010372Y008760D02*
X003226Y008760D01*
X003197Y008838D02*
X010444Y008838D01*
X010516Y008917D02*
X003168Y008917D01*
X003140Y008995D02*
X010588Y008995D01*
X010660Y009074D02*
X003123Y009074D01*
X003106Y009152D02*
X010732Y009152D01*
X010804Y009231D02*
X003089Y009231D01*
X003072Y009309D02*
X010876Y009309D01*
X010948Y009388D02*
X003055Y009388D01*
X003038Y009466D02*
X011020Y009466D01*
X011092Y009545D02*
X003021Y009545D01*
X003004Y009623D02*
X011163Y009623D01*
X011235Y009702D02*
X008799Y009702D01*
X008790Y009693D02*
X008816Y009719D01*
X008835Y009751D01*
X008844Y009787D01*
X008844Y010960D01*
X007550Y010960D01*
X007550Y011040D01*
X008844Y011040D01*
X008844Y012213D01*
X008835Y012249D01*
X008816Y012281D01*
X008790Y012307D01*
X008758Y012325D01*
X008723Y012335D01*
X007550Y012335D01*
X007550Y011040D01*
X007470Y011040D01*
X007470Y012335D01*
X006296Y012335D01*
X006261Y012325D01*
X006229Y012307D01*
X006203Y012281D01*
X006184Y012249D01*
X006175Y012213D01*
X006175Y011040D01*
X007470Y011040D01*
X007470Y010960D01*
X007550Y010960D01*
X007550Y009665D01*
X008723Y009665D01*
X008758Y009675D01*
X008790Y009693D01*
X008843Y009780D02*
X011307Y009780D01*
X011379Y009859D02*
X008844Y009859D01*
X008844Y009937D02*
X011451Y009937D01*
X011523Y010016D02*
X008844Y010016D01*
X008844Y010094D02*
X011595Y010094D01*
X011667Y010173D02*
X008844Y010173D01*
X008844Y010251D02*
X011739Y010251D01*
X011810Y010330D02*
X008844Y010330D01*
X008844Y010408D02*
X011810Y010408D01*
X011810Y010487D02*
X008844Y010487D01*
X008844Y010565D02*
X011810Y010565D01*
X011810Y010644D02*
X008844Y010644D01*
X008844Y010722D02*
X011810Y010722D01*
X011810Y010801D02*
X008844Y010801D01*
X008844Y010879D02*
X011810Y010879D01*
X011810Y010958D02*
X008844Y010958D01*
X008844Y011115D02*
X011810Y011115D01*
X011810Y011193D02*
X008844Y011193D01*
X008844Y011272D02*
X011810Y011272D01*
X011810Y011350D02*
X008844Y011350D01*
X008844Y011429D02*
X011810Y011429D01*
X011810Y011507D02*
X008844Y011507D01*
X008844Y011586D02*
X011810Y011586D01*
X011810Y011664D02*
X008844Y011664D01*
X008844Y011743D02*
X011810Y011743D01*
X011810Y011821D02*
X008844Y011821D01*
X008844Y011900D02*
X011810Y011900D01*
X011810Y011978D02*
X008844Y011978D01*
X008844Y012057D02*
X011810Y012057D01*
X011810Y012135D02*
X008844Y012135D01*
X008844Y012214D02*
X011810Y012214D01*
X011810Y012292D02*
X008805Y012292D01*
X007550Y012292D02*
X007470Y012292D01*
X007470Y012214D02*
X007550Y012214D01*
X007550Y012135D02*
X007470Y012135D01*
X007470Y012057D02*
X007550Y012057D01*
X007550Y011978D02*
X007470Y011978D01*
X007470Y011900D02*
X007550Y011900D01*
X007550Y011821D02*
X007470Y011821D01*
X007470Y011743D02*
X007550Y011743D01*
X007550Y011664D02*
X007470Y011664D01*
X007470Y011586D02*
X007550Y011586D01*
X007550Y011507D02*
X007470Y011507D01*
X007470Y011429D02*
X007550Y011429D01*
X007550Y011350D02*
X007470Y011350D01*
X007470Y011272D02*
X007550Y011272D01*
X007550Y011193D02*
X007470Y011193D01*
X007470Y011115D02*
X007550Y011115D01*
X007550Y011036D02*
X011810Y011036D01*
X012210Y011036D02*
X017164Y011036D01*
X017163Y010958D02*
X012210Y010958D01*
X012210Y010879D02*
X017158Y010879D01*
X017152Y010801D02*
X012210Y010801D01*
X012210Y010722D02*
X017146Y010722D01*
X017141Y010644D02*
X012210Y010644D01*
X012210Y010565D02*
X017135Y010565D01*
X017129Y010487D02*
X012210Y010487D01*
X012210Y010408D02*
X017124Y010408D01*
X017118Y010330D02*
X012210Y010330D01*
X012210Y010251D02*
X017113Y010251D01*
X017107Y010173D02*
X014896Y010173D01*
X014853Y010190D02*
X014666Y010190D01*
X014493Y010119D01*
X014361Y009987D01*
X014290Y009814D01*
X014290Y009627D01*
X014361Y009454D01*
X014493Y009322D01*
X014666Y009250D01*
X014853Y009250D01*
X015026Y009322D01*
X015158Y009454D01*
X015230Y009627D01*
X015230Y009814D01*
X015158Y009987D01*
X015026Y010119D01*
X014853Y010190D01*
X015051Y010094D02*
X017101Y010094D01*
X017096Y010016D02*
X015129Y010016D01*
X015179Y009937D02*
X017084Y009937D01*
X017067Y009859D02*
X015211Y009859D01*
X015230Y009780D02*
X017049Y009780D01*
X017032Y009702D02*
X015230Y009702D01*
X015228Y009623D02*
X017015Y009623D01*
X016998Y009545D02*
X015195Y009545D01*
X015163Y009466D02*
X016981Y009466D01*
X016964Y009388D02*
X015091Y009388D01*
X014994Y009309D02*
X016947Y009309D01*
X016930Y009231D02*
X011346Y009231D01*
X011418Y009309D02*
X014525Y009309D01*
X014428Y009388D02*
X011490Y009388D01*
X011562Y009466D02*
X014356Y009466D01*
X014324Y009545D02*
X011634Y009545D01*
X011706Y009623D02*
X014291Y009623D01*
X014290Y009702D02*
X011778Y009702D01*
X011850Y009780D02*
X014290Y009780D01*
X014308Y009859D02*
X011922Y009859D01*
X011994Y009937D02*
X014340Y009937D01*
X014390Y010016D02*
X012066Y010016D01*
X012138Y010094D02*
X014468Y010094D01*
X014623Y010173D02*
X012210Y010173D01*
X012210Y011115D02*
X017158Y011115D01*
X017152Y011193D02*
X012210Y011193D01*
X012210Y011272D02*
X017147Y011272D01*
X017141Y011350D02*
X012210Y011350D01*
X012210Y011429D02*
X017136Y011429D01*
X017130Y011507D02*
X012210Y011507D01*
X012210Y011586D02*
X017124Y011586D01*
X017119Y011664D02*
X012210Y011664D01*
X012210Y011743D02*
X017113Y011743D01*
X017107Y011821D02*
X014881Y011821D01*
X014853Y011810D02*
X015026Y011881D01*
X015158Y012013D01*
X015230Y012186D01*
X015230Y012373D01*
X015158Y012546D01*
X015026Y012678D01*
X014853Y012750D01*
X014666Y012750D01*
X014493Y012678D01*
X014361Y012546D01*
X014290Y012373D01*
X014290Y012186D01*
X014361Y012013D01*
X014493Y011881D01*
X014666Y011810D01*
X014853Y011810D01*
X015044Y011900D02*
X017102Y011900D01*
X017096Y011978D02*
X015123Y011978D01*
X015176Y012057D02*
X017085Y012057D01*
X017068Y012135D02*
X015208Y012135D01*
X015230Y012214D02*
X017051Y012214D01*
X017034Y012292D02*
X015230Y012292D01*
X015230Y012371D02*
X017017Y012371D01*
X017000Y012449D02*
X015198Y012449D01*
X015166Y012528D02*
X016983Y012528D01*
X016966Y012606D02*
X015098Y012606D01*
X015010Y012685D02*
X016948Y012685D01*
X016931Y012763D02*
X012210Y012763D01*
X012210Y012685D02*
X014509Y012685D01*
X014421Y012606D02*
X012210Y012606D01*
X012210Y012528D02*
X014354Y012528D01*
X014321Y012449D02*
X012210Y012449D01*
X012210Y012371D02*
X014290Y012371D01*
X014290Y012292D02*
X012210Y012292D01*
X012210Y012214D02*
X014290Y012214D01*
X014311Y012135D02*
X012210Y012135D01*
X012210Y012057D02*
X014343Y012057D01*
X014396Y011978D02*
X012210Y011978D01*
X012210Y011900D02*
X014475Y011900D01*
X014638Y011821D02*
X012210Y011821D01*
X011810Y012371D02*
X003002Y012371D01*
X003019Y012449D02*
X011810Y012449D01*
X011810Y012528D02*
X003036Y012528D01*
X003054Y012606D02*
X011810Y012606D01*
X011810Y012685D02*
X003071Y012685D01*
X003088Y012763D02*
X011810Y012763D01*
X011810Y012842D02*
X003105Y012842D01*
X003122Y012920D02*
X011810Y012920D01*
X011810Y012999D02*
X003139Y012999D01*
X003165Y013077D02*
X011810Y013077D01*
X011810Y013156D02*
X003195Y013156D01*
X003224Y013234D02*
X011810Y013234D01*
X011810Y013313D02*
X003253Y013313D01*
X003283Y013391D02*
X011810Y013391D01*
X011810Y013470D02*
X003312Y013470D01*
X003341Y013548D02*
X011810Y013548D01*
X011810Y013627D02*
X003370Y013627D01*
X003400Y013705D02*
X011810Y013705D01*
X011810Y013784D02*
X003429Y013784D01*
X003458Y013862D02*
X011810Y013862D01*
X011810Y013941D02*
X003488Y013941D01*
X003525Y014019D02*
X011810Y014019D01*
X011810Y014098D02*
X003568Y014098D01*
X003610Y014176D02*
X011810Y014176D01*
X011810Y014255D02*
X003653Y014255D01*
X003696Y014333D02*
X011810Y014333D01*
X011810Y014412D02*
X003739Y014412D01*
X003782Y014490D02*
X011810Y014490D01*
X011810Y014569D02*
X003825Y014569D01*
X003868Y014647D02*
X006224Y014647D01*
X006195Y014726D02*
X003911Y014726D01*
X003953Y014804D02*
X006195Y014804D01*
X006195Y014883D02*
X003999Y014883D01*
X004058Y014961D02*
X006195Y014961D01*
X006195Y015040D02*
X004116Y015040D01*
X004175Y015118D02*
X006195Y015118D01*
X006195Y015197D02*
X004234Y015197D01*
X004293Y015275D02*
X005136Y015275D01*
X005045Y015354D02*
X004352Y015354D01*
X004410Y015432D02*
X005012Y015432D01*
X005005Y015511D02*
X004469Y015511D01*
X004528Y015589D02*
X005020Y015589D01*
X005066Y015668D02*
X004587Y015668D01*
X004660Y015746D02*
X005187Y015746D01*
X005332Y015746D02*
X006195Y015746D01*
X006195Y015825D02*
X004739Y015825D01*
X004817Y015903D02*
X006195Y015903D01*
X006195Y015982D02*
X004896Y015982D01*
X004974Y016060D02*
X006195Y016060D01*
X006195Y016139D02*
X005053Y016139D01*
X005131Y016217D02*
X006195Y016217D01*
X006195Y016296D02*
X005210Y016296D01*
X005288Y016374D02*
X006195Y016374D01*
X006195Y016453D02*
X005382Y016453D01*
X005486Y016531D02*
X006195Y016531D01*
X006195Y016610D02*
X005591Y016610D01*
X005696Y016688D02*
X006195Y016688D01*
X006195Y016767D02*
X005801Y016767D01*
X005906Y016845D02*
X006195Y016845D01*
X006195Y016924D02*
X006011Y016924D01*
X006116Y017002D02*
X006195Y017002D01*
X006538Y017238D02*
X008535Y017238D01*
X007780Y017787D02*
X012239Y017787D01*
X012029Y017866D02*
X007990Y017866D01*
X008349Y017944D02*
X011670Y017944D01*
X011310Y018023D02*
X008709Y018023D01*
X009232Y018101D02*
X010787Y018101D01*
X010912Y017709D02*
X012450Y017709D01*
X012660Y017630D02*
X010982Y017630D01*
X011014Y017552D02*
X012871Y017552D01*
X013050Y017473D02*
X011069Y017473D01*
X011148Y017395D02*
X013194Y017395D01*
X013338Y017316D02*
X011226Y017316D01*
X011305Y017238D02*
X013481Y017238D01*
X013625Y017159D02*
X011383Y017159D01*
X011462Y017081D02*
X013769Y017081D01*
X013903Y017002D02*
X011540Y017002D01*
X011619Y016924D02*
X014008Y016924D01*
X014113Y016845D02*
X011697Y016845D01*
X011776Y016767D02*
X014218Y016767D01*
X014323Y016688D02*
X011854Y016688D01*
X011933Y016610D02*
X014428Y016610D01*
X014533Y016531D02*
X012011Y016531D01*
X012090Y016453D02*
X014637Y016453D01*
X014731Y016374D02*
X012168Y016374D01*
X012210Y016296D02*
X014809Y016296D01*
X014888Y016217D02*
X012210Y016217D01*
X012210Y016139D02*
X013658Y016139D01*
X013662Y016140D02*
X013519Y016081D01*
X013409Y015971D01*
X013350Y015828D01*
X013350Y015672D01*
X013409Y015529D01*
X013519Y015419D01*
X013662Y015360D01*
X014357Y015360D01*
X014500Y015419D01*
X014610Y015529D01*
X014670Y015672D01*
X014670Y015828D01*
X014610Y015971D01*
X014500Y016081D01*
X014357Y016140D01*
X013662Y016140D01*
X013498Y016060D02*
X012210Y016060D01*
X012210Y015982D02*
X013420Y015982D01*
X013381Y015903D02*
X012210Y015903D01*
X012210Y015825D02*
X013350Y015825D01*
X013350Y015746D02*
X012210Y015746D01*
X012210Y015668D02*
X013352Y015668D01*
X013384Y015589D02*
X012210Y015589D01*
X012210Y015511D02*
X013427Y015511D01*
X013506Y015432D02*
X012210Y015432D01*
X012210Y015354D02*
X015667Y015354D01*
X015609Y015432D02*
X014513Y015432D01*
X014592Y015511D02*
X015550Y015511D01*
X015491Y015589D02*
X014635Y015589D01*
X014667Y015668D02*
X015432Y015668D01*
X015359Y015746D02*
X014670Y015746D01*
X014670Y015825D02*
X015280Y015825D01*
X015202Y015903D02*
X014638Y015903D01*
X014600Y015982D02*
X015123Y015982D01*
X015045Y016060D02*
X014521Y016060D01*
X014361Y016139D02*
X014966Y016139D01*
X014437Y015130D02*
X014376Y015150D01*
X014312Y015160D01*
X014050Y015160D01*
X014050Y014790D01*
X014688Y014790D01*
X014679Y014846D01*
X014659Y014907D01*
X014630Y014965D01*
X014592Y015017D01*
X014547Y015063D01*
X014494Y015101D01*
X014437Y015130D01*
X014460Y015118D02*
X015844Y015118D01*
X015903Y015040D02*
X014570Y015040D01*
X014632Y014961D02*
X015961Y014961D01*
X016020Y014883D02*
X014668Y014883D01*
X014686Y014804D02*
X016066Y014804D01*
X016108Y014726D02*
X014050Y014726D01*
X014050Y014710D02*
X014050Y014790D01*
X013970Y014790D01*
X013970Y015160D01*
X013707Y015160D01*
X013644Y015150D01*
X013582Y015130D01*
X013525Y015101D01*
X013472Y015063D01*
X013427Y015017D01*
X013389Y014965D01*
X013360Y014907D01*
X013340Y014846D01*
X013331Y014790D01*
X013970Y014790D01*
X013970Y014710D01*
X014050Y014710D01*
X014688Y014710D01*
X014679Y014654D01*
X014659Y014593D01*
X014630Y014535D01*
X014592Y014483D01*
X014547Y014437D01*
X014494Y014399D01*
X014437Y014370D01*
X014376Y014350D01*
X014312Y014340D01*
X014050Y014340D01*
X014050Y014710D01*
X014050Y014647D02*
X013970Y014647D01*
X013970Y014710D02*
X013970Y014340D01*
X013707Y014340D01*
X013644Y014350D01*
X013582Y014370D01*
X013525Y014399D01*
X013472Y014437D01*
X013427Y014483D01*
X013389Y014535D01*
X013360Y014593D01*
X013340Y014654D01*
X013331Y014710D01*
X013970Y014710D01*
X013970Y014726D02*
X012210Y014726D01*
X012210Y014804D02*
X013333Y014804D01*
X013351Y014883D02*
X012210Y014883D01*
X012210Y014961D02*
X013387Y014961D01*
X013449Y015040D02*
X012210Y015040D01*
X012210Y015118D02*
X013559Y015118D01*
X013970Y015118D02*
X014050Y015118D01*
X014050Y015040D02*
X013970Y015040D01*
X013970Y014961D02*
X014050Y014961D01*
X014050Y014883D02*
X013970Y014883D01*
X013970Y014804D02*
X014050Y014804D01*
X014050Y014569D02*
X013970Y014569D01*
X013970Y014490D02*
X014050Y014490D01*
X014050Y014412D02*
X013970Y014412D01*
X013508Y014412D02*
X012210Y014412D01*
X012210Y014490D02*
X013422Y014490D01*
X013372Y014569D02*
X012210Y014569D01*
X012210Y014647D02*
X013342Y014647D01*
X012210Y014333D02*
X016323Y014333D01*
X016366Y014255D02*
X012210Y014255D01*
X012210Y014176D02*
X016409Y014176D01*
X016451Y014098D02*
X012210Y014098D01*
X012210Y014019D02*
X016494Y014019D01*
X016532Y013941D02*
X012210Y013941D01*
X012210Y013862D02*
X016561Y013862D01*
X016590Y013784D02*
X012210Y013784D01*
X012210Y013705D02*
X016619Y013705D01*
X016649Y013627D02*
X012210Y013627D01*
X012210Y013548D02*
X016678Y013548D01*
X016707Y013470D02*
X012210Y013470D01*
X012210Y013391D02*
X016736Y013391D01*
X016766Y013313D02*
X012210Y013313D01*
X012210Y013234D02*
X016795Y013234D01*
X016824Y013156D02*
X012210Y013156D01*
X012210Y013077D02*
X016854Y013077D01*
X016880Y012999D02*
X012210Y012999D01*
X012210Y012920D02*
X016897Y012920D01*
X016914Y012842D02*
X012210Y012842D01*
X014511Y014412D02*
X016280Y014412D01*
X016237Y014490D02*
X014597Y014490D01*
X014647Y014569D02*
X016194Y014569D01*
X016151Y014647D02*
X014677Y014647D01*
X015726Y015275D02*
X012210Y015275D01*
X012210Y015197D02*
X015785Y015197D01*
X011810Y015197D02*
X008824Y015197D01*
X008824Y015275D02*
X011810Y015275D01*
X011810Y015354D02*
X008824Y015354D01*
X008824Y015432D02*
X011810Y015432D01*
X011810Y015511D02*
X008824Y015511D01*
X008824Y015589D02*
X011810Y015589D01*
X011810Y015668D02*
X008824Y015668D01*
X008824Y015746D02*
X011810Y015746D01*
X011810Y015825D02*
X008824Y015825D01*
X008824Y015903D02*
X011810Y015903D01*
X011810Y015982D02*
X008824Y015982D01*
X008824Y016060D02*
X011810Y016060D01*
X011810Y016139D02*
X008824Y016139D01*
X008824Y016217D02*
X011760Y016217D01*
X011681Y016296D02*
X008824Y016296D01*
X008824Y016374D02*
X011603Y016374D01*
X011524Y016453D02*
X008824Y016453D01*
X008824Y016531D02*
X011446Y016531D01*
X011367Y016610D02*
X008824Y016610D01*
X008824Y016688D02*
X011289Y016688D01*
X011210Y016767D02*
X009612Y016767D01*
X009715Y016845D02*
X011132Y016845D01*
X011053Y016924D02*
X009754Y016924D01*
X009765Y017002D02*
X010975Y017002D01*
X010896Y017081D02*
X009752Y017081D01*
X009711Y017159D02*
X010818Y017159D01*
X010739Y017238D02*
X009602Y017238D01*
X010505Y017473D02*
X006969Y017473D01*
X006825Y017395D02*
X010527Y017395D01*
X010583Y017316D02*
X006681Y017316D01*
X007148Y017552D02*
X010505Y017552D01*
X010537Y017630D02*
X007359Y017630D01*
X007569Y017709D02*
X010607Y017709D01*
X011810Y015118D02*
X008824Y015118D01*
X008824Y015040D02*
X011810Y015040D01*
X011810Y014961D02*
X008824Y014961D01*
X008824Y014883D02*
X011810Y014883D01*
X011810Y014804D02*
X008824Y014804D01*
X008824Y014726D02*
X011810Y014726D01*
X011810Y014647D02*
X008795Y014647D01*
X006214Y012292D02*
X002985Y012292D01*
X002968Y012214D02*
X006175Y012214D01*
X006175Y012135D02*
X002951Y012135D01*
X002934Y012057D02*
X006175Y012057D01*
X006175Y011978D02*
X002923Y011978D01*
X002917Y011900D02*
X006175Y011900D01*
X006175Y011821D02*
X002912Y011821D01*
X002906Y011743D02*
X006175Y011743D01*
X006175Y011664D02*
X002900Y011664D01*
X002895Y011586D02*
X006175Y011586D01*
X006175Y011507D02*
X002889Y011507D01*
X002884Y011429D02*
X006175Y011429D01*
X006175Y011350D02*
X002878Y011350D01*
X002872Y011272D02*
X006175Y011272D01*
X006175Y011193D02*
X002867Y011193D01*
X002861Y011115D02*
X006175Y011115D01*
X006175Y010960D02*
X006175Y009787D01*
X006184Y009751D01*
X006203Y009719D01*
X006229Y009693D01*
X006261Y009675D01*
X006296Y009665D01*
X007470Y009665D01*
X007470Y010960D01*
X006175Y010960D01*
X006175Y010958D02*
X002856Y010958D01*
X002855Y011036D02*
X007470Y011036D01*
X007470Y010958D02*
X007550Y010958D01*
X007550Y010879D02*
X007470Y010879D01*
X007470Y010801D02*
X007550Y010801D01*
X007550Y010722D02*
X007470Y010722D01*
X007470Y010644D02*
X007550Y010644D01*
X007550Y010565D02*
X007470Y010565D01*
X007470Y010487D02*
X007550Y010487D01*
X007550Y010408D02*
X007470Y010408D01*
X007470Y010330D02*
X007550Y010330D01*
X007550Y010251D02*
X007470Y010251D01*
X007470Y010173D02*
X007550Y010173D01*
X007550Y010094D02*
X007470Y010094D01*
X007470Y010016D02*
X007550Y010016D01*
X007550Y009937D02*
X007470Y009937D01*
X007470Y009859D02*
X007550Y009859D01*
X007550Y009780D02*
X007470Y009780D01*
X007470Y009702D02*
X007550Y009702D01*
X006220Y009702D02*
X002987Y009702D01*
X002970Y009780D02*
X006176Y009780D01*
X006175Y009859D02*
X002952Y009859D01*
X002935Y009937D02*
X006175Y009937D01*
X006175Y010016D02*
X002923Y010016D01*
X002918Y010094D02*
X006175Y010094D01*
X006175Y010173D02*
X002912Y010173D01*
X002906Y010251D02*
X006175Y010251D01*
X006175Y010330D02*
X002901Y010330D01*
X002895Y010408D02*
X006175Y010408D01*
X006175Y010487D02*
X002890Y010487D01*
X002884Y010565D02*
X006175Y010565D01*
X006175Y010644D02*
X002878Y010644D01*
X002873Y010722D02*
X006175Y010722D01*
X006175Y010801D02*
X002867Y010801D01*
X002862Y010879D02*
X006175Y010879D01*
X002623Y011000D02*
X002625Y011181D01*
X002632Y011362D01*
X002643Y011543D01*
X002659Y011724D01*
X002679Y011904D01*
X002703Y012084D01*
X002732Y012263D01*
X002765Y012441D01*
X002802Y012619D01*
X002844Y012795D01*
X002891Y012970D01*
X002941Y013144D01*
X002996Y013317D01*
X003055Y013489D01*
X003118Y013659D01*
X003185Y013827D01*
X003257Y013994D01*
X003332Y014158D01*
X003412Y014321D01*
X003495Y014482D01*
X003583Y014641D01*
X003674Y014798D01*
X003769Y014952D01*
X003868Y015104D01*
X003971Y015253D01*
X004077Y015400D01*
X004186Y015545D01*
X004300Y015686D01*
X004416Y015825D01*
X004537Y015961D01*
X004660Y016094D01*
X004787Y016223D01*
X004916Y016350D01*
X005049Y016473D01*
X005185Y016594D01*
X005324Y016710D01*
X005465Y016824D01*
X005610Y016933D01*
X005757Y017039D01*
X005906Y017142D01*
X006058Y017241D01*
X006212Y017336D01*
X006369Y017427D01*
X006528Y017515D01*
X006689Y017598D01*
X006852Y017678D01*
X007016Y017753D01*
X007183Y017825D01*
X007351Y017892D01*
X007521Y017955D01*
X007693Y018014D01*
X007866Y018069D01*
X008040Y018119D01*
X008215Y018166D01*
X008391Y018208D01*
X008569Y018245D01*
X008747Y018278D01*
X008926Y018307D01*
X009106Y018331D01*
X009286Y018351D01*
X009467Y018367D01*
X009648Y018378D01*
X009829Y018385D01*
X010010Y018387D01*
X010191Y018385D01*
X010372Y018378D01*
X010553Y018367D01*
X010734Y018351D01*
X010914Y018331D01*
X011094Y018307D01*
X011273Y018278D01*
X011451Y018245D01*
X011629Y018208D01*
X011805Y018166D01*
X011980Y018119D01*
X012154Y018069D01*
X012327Y018014D01*
X012499Y017955D01*
X012669Y017892D01*
X012837Y017825D01*
X013004Y017753D01*
X013168Y017678D01*
X013331Y017598D01*
X013492Y017515D01*
X013651Y017427D01*
X013808Y017336D01*
X013962Y017241D01*
X014114Y017142D01*
X014263Y017039D01*
X014410Y016933D01*
X014555Y016824D01*
X014696Y016710D01*
X014835Y016594D01*
X014971Y016473D01*
X015104Y016350D01*
X015233Y016223D01*
X015360Y016094D01*
X015483Y015961D01*
X015604Y015825D01*
X015720Y015686D01*
X015834Y015545D01*
X015943Y015400D01*
X016049Y015253D01*
X016152Y015104D01*
X016251Y014952D01*
X016346Y014798D01*
X016437Y014641D01*
X016525Y014482D01*
X016608Y014321D01*
X016688Y014158D01*
X016763Y013994D01*
X016835Y013827D01*
X016902Y013659D01*
X016965Y013489D01*
X017024Y013317D01*
X017079Y013144D01*
X017129Y012970D01*
X017176Y012795D01*
X017218Y012619D01*
X017255Y012441D01*
X017288Y012263D01*
X017317Y012084D01*
X017341Y011904D01*
X017361Y011724D01*
X017377Y011543D01*
X017388Y011362D01*
X017395Y011181D01*
X017397Y011000D01*
X017395Y010819D01*
X017388Y010638D01*
X017377Y010457D01*
X017361Y010276D01*
X017341Y010096D01*
X017317Y009916D01*
X017288Y009737D01*
X017255Y009559D01*
X017218Y009381D01*
X017176Y009205D01*
X017129Y009030D01*
X017079Y008856D01*
X017024Y008683D01*
X016965Y008511D01*
X016902Y008341D01*
X016835Y008173D01*
X016763Y008006D01*
X016688Y007842D01*
X016608Y007679D01*
X016525Y007518D01*
X016437Y007359D01*
X016346Y007202D01*
X016251Y007048D01*
X016152Y006896D01*
X016049Y006747D01*
X015943Y006600D01*
X015834Y006455D01*
X015720Y006314D01*
X015604Y006175D01*
X015483Y006039D01*
X015360Y005906D01*
X015233Y005777D01*
X015104Y005650D01*
X014971Y005527D01*
X014835Y005406D01*
X014696Y005290D01*
X014555Y005176D01*
X014410Y005067D01*
X014263Y004961D01*
X014114Y004858D01*
X013962Y004759D01*
X013808Y004664D01*
X013651Y004573D01*
X013492Y004485D01*
X013331Y004402D01*
X013168Y004322D01*
X013004Y004247D01*
X012837Y004175D01*
X012669Y004108D01*
X012499Y004045D01*
X012327Y003986D01*
X012154Y003931D01*
X011980Y003881D01*
X011805Y003834D01*
X011629Y003792D01*
X011451Y003755D01*
X011273Y003722D01*
X011094Y003693D01*
X010914Y003669D01*
X010734Y003649D01*
X010553Y003633D01*
X010372Y003622D01*
X010191Y003615D01*
X010010Y003613D01*
X009829Y003615D01*
X009648Y003622D01*
X009467Y003633D01*
X009286Y003649D01*
X009106Y003669D01*
X008926Y003693D01*
X008747Y003722D01*
X008569Y003755D01*
X008391Y003792D01*
X008215Y003834D01*
X008040Y003881D01*
X007866Y003931D01*
X007693Y003986D01*
X007521Y004045D01*
X007351Y004108D01*
X007183Y004175D01*
X007016Y004247D01*
X006852Y004322D01*
X006689Y004402D01*
X006528Y004485D01*
X006369Y004573D01*
X006212Y004664D01*
X006058Y004759D01*
X005906Y004858D01*
X005757Y004961D01*
X005610Y005067D01*
X005465Y005176D01*
X005324Y005290D01*
X005185Y005406D01*
X005049Y005527D01*
X004916Y005650D01*
X004787Y005777D01*
X004660Y005906D01*
X004537Y006039D01*
X004416Y006175D01*
X004300Y006314D01*
X004186Y006455D01*
X004077Y006600D01*
X003971Y006747D01*
X003868Y006896D01*
X003769Y007048D01*
X003674Y007202D01*
X003583Y007359D01*
X003495Y007518D01*
X003412Y007679D01*
X003332Y007842D01*
X003257Y008006D01*
X003185Y008173D01*
X003118Y008341D01*
X003055Y008511D01*
X002996Y008683D01*
X002941Y008856D01*
X002891Y009030D01*
X002844Y009205D01*
X002802Y009381D01*
X002765Y009559D01*
X002732Y009737D01*
X002703Y009916D01*
X002679Y010096D01*
X002659Y010276D01*
X002643Y010457D01*
X002632Y010638D01*
X002625Y010819D01*
X002623Y011000D01*
X011274Y009152D02*
X016913Y009152D01*
D11*
X014760Y009720D03*
X014760Y012280D03*
D12*
X007510Y011000D03*
X007510Y015921D03*
X007510Y006079D03*
D13*
X013740Y014750D02*
X014280Y014750D01*
X014280Y015750D02*
X013740Y015750D01*
D14*
X010760Y017500D03*
X009510Y017000D03*
X005260Y015500D03*
X009510Y013750D03*
X011260Y012500D03*
X005010Y012750D03*
X011760Y009250D03*
X011260Y008750D03*
X013760Y009250D03*
X014510Y008000D03*
X011260Y006000D03*
X010260Y005750D03*
X009260Y006500D03*
X009760Y006750D03*
X005760Y006500D03*
D15*
X005260Y015500D02*
X007260Y015500D01*
X007510Y015921D01*
X008588Y017000D01*
X009510Y017000D01*
D16*
X010760Y017500D02*
X012010Y016250D01*
X012010Y010250D01*
X009260Y007250D01*
X009260Y006500D01*
X011260Y006000D02*
X011260Y008750D01*
M02*
