G75*
%MOIN*%
%OFA0B0*%
%FSLAX24Y24*%
%IPPOS*%
%LPD*%
%AMOC8*
5,1,8,0,0,1.08239X$1,22.5*
%
%ADD10C,0.0080*%
%ADD11C,0.0060*%
%ADD12C,0.0050*%
%ADD13C,0.0040*%
%ADD14R,0.0098X0.0098*%
%ADD15C,0.0100*%
%ADD16R,0.0551X0.0079*%
%ADD17C,0.0157*%
%ADD18C,0.0070*%
D10*
X009160Y005250D02*
X009360Y005250D01*
X009810Y005500D02*
X009810Y005750D01*
X009560Y005750D01*
X008960Y005750D02*
X008710Y005750D01*
X008710Y005500D01*
X011710Y005500D02*
X011710Y005750D01*
X011960Y005750D01*
X012560Y005750D02*
X012810Y005750D01*
X012810Y005500D01*
X012360Y005250D02*
X012160Y005250D01*
X008415Y010055D02*
X008415Y011945D01*
X008336Y011945D01*
X002623Y011000D02*
X002625Y011181D01*
X002632Y011362D01*
X002643Y011543D01*
X002659Y011724D01*
X002679Y011904D01*
X002703Y012084D01*
X002732Y012263D01*
X002765Y012441D01*
X002802Y012619D01*
X002844Y012795D01*
X002891Y012970D01*
X002941Y013144D01*
X002996Y013317D01*
X003055Y013489D01*
X003118Y013659D01*
X003185Y013827D01*
X003257Y013994D01*
X003332Y014158D01*
X003412Y014321D01*
X003495Y014482D01*
X003583Y014641D01*
X003674Y014798D01*
X003769Y014952D01*
X003868Y015104D01*
X003971Y015253D01*
X004077Y015400D01*
X004186Y015545D01*
X004300Y015686D01*
X004416Y015825D01*
X004537Y015961D01*
X004660Y016094D01*
X004787Y016223D01*
X004916Y016350D01*
X005049Y016473D01*
X005185Y016594D01*
X005324Y016710D01*
X005465Y016824D01*
X005610Y016933D01*
X005757Y017039D01*
X005906Y017142D01*
X006058Y017241D01*
X006212Y017336D01*
X006369Y017427D01*
X006528Y017515D01*
X006689Y017598D01*
X006852Y017678D01*
X007016Y017753D01*
X007183Y017825D01*
X007351Y017892D01*
X007521Y017955D01*
X007693Y018014D01*
X007866Y018069D01*
X008040Y018119D01*
X008215Y018166D01*
X008391Y018208D01*
X008569Y018245D01*
X008747Y018278D01*
X008926Y018307D01*
X009106Y018331D01*
X009286Y018351D01*
X009467Y018367D01*
X009648Y018378D01*
X009829Y018385D01*
X010010Y018387D01*
X010191Y018385D01*
X010372Y018378D01*
X010553Y018367D01*
X010734Y018351D01*
X010914Y018331D01*
X011094Y018307D01*
X011273Y018278D01*
X011451Y018245D01*
X011629Y018208D01*
X011805Y018166D01*
X011980Y018119D01*
X012154Y018069D01*
X012327Y018014D01*
X012499Y017955D01*
X012669Y017892D01*
X012837Y017825D01*
X013004Y017753D01*
X013168Y017678D01*
X013331Y017598D01*
X013492Y017515D01*
X013651Y017427D01*
X013808Y017336D01*
X013962Y017241D01*
X014114Y017142D01*
X014263Y017039D01*
X014410Y016933D01*
X014555Y016824D01*
X014696Y016710D01*
X014835Y016594D01*
X014971Y016473D01*
X015104Y016350D01*
X015233Y016223D01*
X015360Y016094D01*
X015483Y015961D01*
X015604Y015825D01*
X015720Y015686D01*
X015834Y015545D01*
X015943Y015400D01*
X016049Y015253D01*
X016152Y015104D01*
X016251Y014952D01*
X016346Y014798D01*
X016437Y014641D01*
X016525Y014482D01*
X016608Y014321D01*
X016688Y014158D01*
X016763Y013994D01*
X016835Y013827D01*
X016902Y013659D01*
X016965Y013489D01*
X017024Y013317D01*
X017079Y013144D01*
X017129Y012970D01*
X017176Y012795D01*
X017218Y012619D01*
X017255Y012441D01*
X017288Y012263D01*
X017317Y012084D01*
X017341Y011904D01*
X017361Y011724D01*
X017377Y011543D01*
X017388Y011362D01*
X017395Y011181D01*
X017397Y011000D01*
X017395Y010819D01*
X017388Y010638D01*
X017377Y010457D01*
X017361Y010276D01*
X017341Y010096D01*
X017317Y009916D01*
X017288Y009737D01*
X017255Y009559D01*
X017218Y009381D01*
X017176Y009205D01*
X017129Y009030D01*
X017079Y008856D01*
X017024Y008683D01*
X016965Y008511D01*
X016902Y008341D01*
X016835Y008173D01*
X016763Y008006D01*
X016688Y007842D01*
X016608Y007679D01*
X016525Y007518D01*
X016437Y007359D01*
X016346Y007202D01*
X016251Y007048D01*
X016152Y006896D01*
X016049Y006747D01*
X015943Y006600D01*
X015834Y006455D01*
X015720Y006314D01*
X015604Y006175D01*
X015483Y006039D01*
X015360Y005906D01*
X015233Y005777D01*
X015104Y005650D01*
X014971Y005527D01*
X014835Y005406D01*
X014696Y005290D01*
X014555Y005176D01*
X014410Y005067D01*
X014263Y004961D01*
X014114Y004858D01*
X013962Y004759D01*
X013808Y004664D01*
X013651Y004573D01*
X013492Y004485D01*
X013331Y004402D01*
X013168Y004322D01*
X013004Y004247D01*
X012837Y004175D01*
X012669Y004108D01*
X012499Y004045D01*
X012327Y003986D01*
X012154Y003931D01*
X011980Y003881D01*
X011805Y003834D01*
X011629Y003792D01*
X011451Y003755D01*
X011273Y003722D01*
X011094Y003693D01*
X010914Y003669D01*
X010734Y003649D01*
X010553Y003633D01*
X010372Y003622D01*
X010191Y003615D01*
X010010Y003613D01*
X009829Y003615D01*
X009648Y003622D01*
X009467Y003633D01*
X009286Y003649D01*
X009106Y003669D01*
X008926Y003693D01*
X008747Y003722D01*
X008569Y003755D01*
X008391Y003792D01*
X008215Y003834D01*
X008040Y003881D01*
X007866Y003931D01*
X007693Y003986D01*
X007521Y004045D01*
X007351Y004108D01*
X007183Y004175D01*
X007016Y004247D01*
X006852Y004322D01*
X006689Y004402D01*
X006528Y004485D01*
X006369Y004573D01*
X006212Y004664D01*
X006058Y004759D01*
X005906Y004858D01*
X005757Y004961D01*
X005610Y005067D01*
X005465Y005176D01*
X005324Y005290D01*
X005185Y005406D01*
X005049Y005527D01*
X004916Y005650D01*
X004787Y005777D01*
X004660Y005906D01*
X004537Y006039D01*
X004416Y006175D01*
X004300Y006314D01*
X004186Y006455D01*
X004077Y006600D01*
X003971Y006747D01*
X003868Y006896D01*
X003769Y007048D01*
X003674Y007202D01*
X003583Y007359D01*
X003495Y007518D01*
X003412Y007679D01*
X003332Y007842D01*
X003257Y008006D01*
X003185Y008173D01*
X003118Y008341D01*
X003055Y008511D01*
X002996Y008683D01*
X002941Y008856D01*
X002891Y009030D01*
X002844Y009205D01*
X002802Y009381D01*
X002765Y009559D01*
X002732Y009737D01*
X002703Y009916D01*
X002679Y010096D01*
X002659Y010276D01*
X002643Y010457D01*
X002632Y010638D01*
X002625Y010819D01*
X002623Y011000D01*
X003700Y010831D02*
X003700Y011169D01*
X004820Y011169D02*
X004820Y010831D01*
X004365Y010681D02*
X004154Y010681D01*
X006328Y010055D02*
X006407Y010055D01*
X006328Y010055D02*
X006328Y011945D01*
X006407Y011945D01*
X008336Y010055D02*
X008415Y010055D01*
X012960Y010500D02*
X012960Y010750D01*
X013210Y010750D01*
X013810Y010750D02*
X014060Y010750D01*
X014060Y010500D01*
X013610Y010250D02*
X013410Y010250D01*
X015360Y012540D02*
X015360Y012954D01*
X015567Y012747D02*
X015153Y012747D01*
X007760Y017000D02*
X007510Y016750D01*
X007260Y017000D01*
X007760Y017000D01*
X007817Y017290D02*
X007677Y017290D01*
X007606Y017360D01*
X007606Y017640D01*
X007677Y017710D01*
X007817Y017710D01*
X007887Y017640D01*
X008067Y017640D02*
X008067Y017570D01*
X008137Y017500D01*
X008277Y017500D01*
X008347Y017430D01*
X008347Y017360D01*
X008277Y017290D01*
X008137Y017290D01*
X008067Y017360D01*
X007887Y017360D02*
X007817Y017290D01*
X007440Y017290D02*
X007300Y017290D01*
X007370Y017290D02*
X007370Y017710D01*
X007300Y017710D02*
X007440Y017710D01*
X008067Y017640D02*
X008137Y017710D01*
X008277Y017710D01*
X008347Y017640D01*
X008527Y017710D02*
X008527Y017290D01*
X008527Y017430D02*
X008737Y017430D01*
X008807Y017500D01*
X008807Y017640D01*
X008737Y017710D01*
X008527Y017710D01*
D11*
X013510Y016150D02*
X013510Y015350D01*
X013610Y015250D01*
X013510Y015150D01*
X013510Y014350D01*
X013610Y014250D01*
X014410Y014250D01*
X014510Y014350D01*
X014510Y015150D01*
X014410Y015250D01*
X014510Y015350D01*
X014510Y016150D01*
X014410Y016250D01*
X013610Y016250D01*
X013510Y016150D01*
X013753Y016437D02*
X013753Y016664D01*
X013640Y016550D02*
X013866Y016550D01*
X014008Y016493D02*
X014121Y016380D01*
X014235Y016493D01*
X014235Y016720D01*
X014008Y016720D02*
X014008Y016493D01*
X013908Y014120D02*
X014135Y013780D01*
X014135Y014120D01*
X014276Y014120D02*
X014446Y014120D01*
X014503Y014064D01*
X014503Y013837D01*
X014446Y013780D01*
X014276Y013780D01*
X014276Y014120D01*
X013908Y014120D02*
X013908Y013780D01*
X013766Y013837D02*
X013766Y013950D01*
X013653Y013950D01*
X013766Y013837D02*
X013710Y013780D01*
X013596Y013780D01*
X013540Y013837D01*
X013540Y014064D01*
X013596Y014120D01*
X013710Y014120D01*
X013766Y014064D01*
D12*
X008311Y004724D02*
X007208Y004724D01*
X007208Y005276D01*
X008311Y005276D01*
X008311Y004724D01*
X010208Y004724D02*
X011311Y004724D01*
X011311Y005276D01*
X010208Y005276D01*
X010208Y004724D01*
X010360Y007250D02*
X009160Y007250D01*
X009160Y007750D01*
X010360Y007750D01*
X010360Y007250D01*
X008860Y007250D02*
X007660Y007250D01*
X007660Y007750D01*
X008860Y007750D01*
X008860Y007250D01*
X008811Y008224D02*
X007708Y008224D01*
X007708Y008776D01*
X008811Y008776D01*
X008811Y008224D01*
X009208Y008224D02*
X009208Y008776D01*
X010311Y008776D01*
X010311Y008224D01*
X009208Y008224D01*
X006610Y007750D02*
X006610Y007250D01*
X005410Y007250D01*
X005410Y007750D01*
X006610Y007750D01*
X006561Y008224D02*
X005458Y008224D01*
X005458Y008776D01*
X006561Y008776D01*
X006561Y008224D01*
X005139Y009213D02*
X003880Y009213D01*
X003880Y009787D01*
X005139Y009787D01*
X005139Y009213D01*
X005473Y010370D02*
X006047Y010370D01*
X006047Y011630D01*
X005473Y011630D01*
X005473Y010370D01*
X006526Y010390D02*
X006528Y010409D01*
X006533Y010428D01*
X006543Y010444D01*
X006555Y010459D01*
X006570Y010471D01*
X006586Y010481D01*
X006605Y010486D01*
X006624Y010488D01*
X006643Y010486D01*
X006662Y010481D01*
X006678Y010471D01*
X006693Y010459D01*
X006705Y010444D01*
X006715Y010428D01*
X006720Y010409D01*
X006722Y010390D01*
X006720Y010371D01*
X006715Y010352D01*
X006705Y010336D01*
X006693Y010321D01*
X006678Y010309D01*
X006662Y010299D01*
X006643Y010294D01*
X006624Y010292D01*
X006605Y010294D01*
X006586Y010299D01*
X006570Y010309D01*
X006555Y010321D01*
X006543Y010336D01*
X006533Y010352D01*
X006528Y010371D01*
X006526Y010390D01*
X009669Y010370D02*
X009767Y010370D01*
X009669Y010370D02*
X009669Y010705D01*
X010752Y010370D02*
X010850Y010370D01*
X010850Y010705D01*
X011473Y010880D02*
X011473Y009620D01*
X012047Y009620D01*
X012047Y010880D01*
X011473Y010880D01*
X011473Y011120D02*
X011473Y012380D01*
X012047Y012380D01*
X012047Y011120D01*
X011473Y011120D01*
X010850Y011295D02*
X010850Y011630D01*
X010752Y011630D01*
X010752Y011728D02*
X010948Y011728D01*
X010948Y011551D01*
X009767Y011630D02*
X009669Y011630D01*
X009669Y011295D01*
X012208Y009276D02*
X012208Y008724D01*
X013311Y008724D01*
X013311Y009276D01*
X012208Y009276D01*
X015360Y010050D02*
X016160Y010050D01*
X016160Y011950D01*
X015360Y011950D01*
X015360Y010050D01*
X006561Y013974D02*
X006561Y014526D01*
X005458Y014526D01*
X005458Y013974D01*
X006561Y013974D01*
X005139Y012787D02*
X003880Y012787D01*
X003880Y012213D01*
X005139Y012213D01*
X005139Y012787D01*
D13*
X005011Y012870D02*
X004824Y012870D01*
X004918Y012870D02*
X004918Y013150D01*
X004824Y013057D01*
X004716Y013104D02*
X004670Y013150D01*
X004576Y013150D01*
X004530Y013104D01*
X004530Y012917D01*
X004576Y012870D01*
X004670Y012870D01*
X004716Y012917D01*
X005109Y011251D02*
X005109Y011065D01*
X005249Y011065D01*
X005203Y011158D01*
X005203Y011205D01*
X005249Y011251D01*
X005343Y011251D01*
X005390Y011205D01*
X005390Y011111D01*
X005343Y011065D01*
X005343Y010957D02*
X005390Y010910D01*
X005390Y010817D01*
X005343Y010770D01*
X005156Y010770D01*
X005109Y010817D01*
X005109Y010910D01*
X005156Y010957D01*
X003490Y010960D02*
X003490Y010867D01*
X003443Y010820D01*
X003209Y010820D01*
X003209Y011007D02*
X003443Y011007D01*
X003490Y010960D01*
X003490Y011115D02*
X003303Y011301D01*
X003256Y011301D01*
X003209Y011255D01*
X003209Y011161D01*
X003256Y011115D01*
X003490Y011115D02*
X003490Y011301D01*
X005909Y009908D02*
X006190Y009908D01*
X006190Y009815D02*
X006190Y010001D01*
X006003Y009815D02*
X005909Y009908D01*
X005909Y009707D02*
X006143Y009707D01*
X006190Y009660D01*
X006190Y009567D01*
X006143Y009520D01*
X005909Y009520D01*
X005920Y009150D02*
X005780Y009150D01*
X005780Y008870D01*
X005780Y008963D02*
X005920Y008963D01*
X005966Y009010D01*
X005966Y009104D01*
X005920Y009150D01*
X005873Y008963D02*
X005966Y008870D01*
X006074Y009010D02*
X006261Y009010D01*
X006214Y008870D02*
X006214Y009150D01*
X006074Y009010D01*
X004922Y009037D02*
X004735Y008850D01*
X004922Y008850D01*
X004922Y009037D02*
X004922Y009084D01*
X004875Y009130D01*
X004782Y009130D01*
X004735Y009084D01*
X004627Y009084D02*
X004580Y009130D01*
X004487Y009130D01*
X004440Y009084D01*
X004440Y008897D01*
X004487Y008850D01*
X004580Y008850D01*
X004627Y008897D01*
X005530Y008150D02*
X005530Y007870D01*
X005716Y007870D01*
X005824Y007870D02*
X006011Y007870D01*
X006119Y007870D02*
X006259Y007870D01*
X006306Y007917D01*
X006306Y008104D01*
X006259Y008150D01*
X006119Y008150D01*
X006119Y007870D01*
X005918Y008010D02*
X005824Y008010D01*
X005824Y008150D02*
X005824Y007870D01*
X005824Y008150D02*
X006011Y008150D01*
X006413Y008057D02*
X006507Y008150D01*
X006507Y007870D01*
X006600Y007870D02*
X006413Y007870D01*
X007780Y007870D02*
X007966Y007870D01*
X008074Y007870D02*
X008261Y007870D01*
X008369Y007870D02*
X008509Y007870D01*
X008556Y007917D01*
X008556Y008104D01*
X008509Y008150D01*
X008369Y008150D01*
X008369Y007870D01*
X008168Y008010D02*
X008074Y008010D01*
X008074Y008150D02*
X008074Y007870D01*
X008074Y008150D02*
X008261Y008150D01*
X008663Y008104D02*
X008710Y008150D01*
X008804Y008150D01*
X008850Y008104D01*
X008850Y008057D01*
X008804Y008010D01*
X008850Y007963D01*
X008850Y007917D01*
X008804Y007870D01*
X008710Y007870D01*
X008663Y007917D01*
X008757Y008010D02*
X008804Y008010D01*
X009280Y007870D02*
X009466Y007870D01*
X009574Y007870D02*
X009574Y008150D01*
X009761Y008150D01*
X009869Y008150D02*
X010009Y008150D01*
X010056Y008104D01*
X010056Y007917D01*
X010009Y007870D01*
X009869Y007870D01*
X009869Y008150D01*
X009668Y008010D02*
X009574Y008010D01*
X009574Y007870D02*
X009761Y007870D01*
X010163Y007870D02*
X010350Y008057D01*
X010350Y008104D01*
X010304Y008150D01*
X010210Y008150D01*
X010163Y008104D01*
X010163Y007870D02*
X010350Y007870D01*
X009280Y007870D02*
X009280Y008150D01*
X007780Y008150D02*
X007780Y007870D01*
X008030Y008870D02*
X008030Y009150D01*
X008170Y009150D01*
X008216Y009104D01*
X008216Y009010D01*
X008170Y008963D01*
X008030Y008963D01*
X008123Y008963D02*
X008216Y008870D01*
X008324Y008917D02*
X008371Y008870D01*
X008464Y008870D01*
X008511Y008917D01*
X008511Y008963D01*
X008464Y009010D01*
X008324Y009010D01*
X008324Y008917D01*
X008324Y009010D02*
X008418Y009104D01*
X008511Y009150D01*
X009530Y009150D02*
X009530Y008870D01*
X009530Y008963D02*
X009670Y008963D01*
X009716Y009010D01*
X009716Y009104D01*
X009670Y009150D01*
X009530Y009150D01*
X009623Y008963D02*
X009716Y008870D01*
X009824Y008917D02*
X009871Y008870D01*
X009964Y008870D01*
X010011Y008917D01*
X010011Y009010D01*
X009964Y009057D01*
X009918Y009057D01*
X009824Y009010D01*
X009824Y009150D01*
X010011Y009150D01*
X011109Y010017D02*
X011156Y009970D01*
X011343Y009970D01*
X011390Y010017D01*
X011390Y010110D01*
X011343Y010157D01*
X011343Y010265D02*
X011390Y010311D01*
X011390Y010405D01*
X011343Y010451D01*
X011296Y010451D01*
X011249Y010405D01*
X011249Y010358D01*
X011249Y010405D02*
X011203Y010451D01*
X011156Y010451D01*
X011109Y010405D01*
X011109Y010311D01*
X011156Y010265D01*
X011156Y010157D02*
X011109Y010110D01*
X011109Y010017D01*
X012530Y009650D02*
X012530Y009370D01*
X012530Y009463D02*
X012670Y009463D01*
X012716Y009510D01*
X012716Y009604D01*
X012670Y009650D01*
X012530Y009650D01*
X012623Y009463D02*
X012716Y009370D01*
X012824Y009370D02*
X012824Y009417D01*
X013011Y009604D01*
X013011Y009650D01*
X012824Y009650D01*
X013326Y011320D02*
X013280Y011367D01*
X013280Y011554D01*
X013326Y011600D01*
X013420Y011600D01*
X013466Y011554D01*
X013466Y011367D01*
X013420Y011320D01*
X013326Y011320D01*
X013373Y011413D02*
X013466Y011320D01*
X013574Y011367D02*
X013621Y011320D01*
X013714Y011320D01*
X013761Y011367D01*
X013761Y011413D01*
X013714Y011460D01*
X013668Y011460D01*
X013714Y011460D02*
X013761Y011507D01*
X013761Y011554D01*
X013714Y011600D01*
X013621Y011600D01*
X013574Y011554D01*
X011390Y011817D02*
X011390Y011910D01*
X011343Y011957D01*
X011249Y012065D02*
X011249Y012251D01*
X011109Y012205D02*
X011249Y012065D01*
X011156Y011957D02*
X011109Y011910D01*
X011109Y011817D01*
X011156Y011770D01*
X011343Y011770D01*
X011390Y011817D01*
X011390Y012205D02*
X011109Y012205D01*
X009240Y011205D02*
X009240Y011111D01*
X009193Y011065D01*
X009193Y010957D02*
X008959Y010957D01*
X009006Y011065D02*
X008959Y011111D01*
X008959Y011205D01*
X009006Y011251D01*
X009053Y011251D01*
X009099Y011205D01*
X009146Y011251D01*
X009193Y011251D01*
X009240Y011205D01*
X009099Y011205D02*
X009099Y011158D01*
X009193Y010957D02*
X009240Y010910D01*
X009240Y010817D01*
X009193Y010770D01*
X008959Y010770D01*
X016279Y010821D02*
X016279Y010681D01*
X016560Y010681D01*
X016560Y010821D01*
X016513Y010868D01*
X016326Y010868D01*
X016279Y010821D01*
X016373Y010975D02*
X016279Y011069D01*
X016560Y011069D01*
X016560Y011162D02*
X016560Y010975D01*
X014913Y014636D02*
X014960Y014683D01*
X014960Y014729D01*
X014913Y014776D01*
X014679Y014776D01*
X014679Y014729D02*
X014679Y014823D01*
X014679Y014931D02*
X014679Y015071D01*
X014726Y015118D01*
X014819Y015118D01*
X014866Y015071D01*
X014866Y014931D01*
X014960Y014931D02*
X014679Y014931D01*
X014726Y015225D02*
X014679Y015272D01*
X014679Y015365D01*
X014726Y015412D01*
X014773Y015412D01*
X014819Y015365D01*
X014866Y015412D01*
X014913Y015412D01*
X014960Y015365D01*
X014960Y015272D01*
X014913Y015225D01*
X014819Y015319D02*
X014819Y015365D01*
X006932Y015466D02*
X006932Y015652D01*
X006932Y015559D02*
X006652Y015559D01*
X006745Y015466D01*
X006699Y015358D02*
X006792Y015358D01*
X006839Y015311D01*
X006839Y015171D01*
X006932Y015171D02*
X006652Y015171D01*
X006652Y015311D01*
X006699Y015358D01*
X006652Y015063D02*
X006652Y014970D01*
X006652Y015016D02*
X006885Y015016D01*
X006932Y014970D01*
X006932Y014923D01*
X006885Y014876D01*
X006261Y014620D02*
X006074Y014620D01*
X006168Y014620D02*
X006168Y014900D01*
X006074Y014807D01*
X005966Y014854D02*
X005966Y014760D01*
X005920Y014713D01*
X005780Y014713D01*
X005873Y014713D02*
X005966Y014620D01*
X005780Y014620D02*
X005780Y014900D01*
X005920Y014900D01*
X005966Y014854D01*
X005453Y015113D02*
X005453Y015300D01*
X005453Y015113D02*
X005360Y015020D01*
X005266Y015113D01*
X005266Y015300D01*
X005158Y015254D02*
X005158Y015207D01*
X005112Y015160D01*
X005158Y015113D01*
X005158Y015067D01*
X005112Y015020D01*
X005018Y015020D01*
X004971Y015067D01*
X004871Y015067D02*
X004871Y015020D01*
X004824Y015020D01*
X004824Y015067D01*
X004871Y015067D01*
X004716Y015067D02*
X004670Y015020D01*
X004576Y015020D01*
X004530Y015067D01*
X004623Y015160D02*
X004670Y015160D01*
X004716Y015113D01*
X004716Y015067D01*
X004670Y015160D02*
X004716Y015207D01*
X004716Y015254D01*
X004670Y015300D01*
X004576Y015300D01*
X004530Y015254D01*
X004971Y015254D02*
X005018Y015300D01*
X005112Y015300D01*
X005158Y015254D01*
X005112Y015160D02*
X005065Y015160D01*
X014801Y006761D02*
X014801Y006695D01*
X014801Y006761D02*
X014867Y006827D01*
X014933Y006827D01*
X014966Y006794D01*
X014966Y006530D01*
X015098Y006662D01*
X014791Y006553D02*
X014791Y006487D01*
X014692Y006388D01*
X014758Y006322D02*
X014559Y006520D01*
X014658Y006619D01*
X014725Y006619D01*
X014791Y006553D01*
X014483Y006444D02*
X014417Y006378D01*
X014450Y006411D02*
X014615Y006246D01*
X014615Y006180D01*
X014582Y006147D01*
X014516Y006147D01*
X012511Y006320D02*
X012324Y006320D01*
X012418Y006320D02*
X012418Y006600D01*
X012324Y006507D01*
X012216Y006554D02*
X012216Y006367D01*
X012170Y006320D01*
X012076Y006320D01*
X012030Y006367D01*
X012030Y006554D01*
X012076Y006600D01*
X012170Y006600D01*
X012216Y006554D01*
X012123Y006413D02*
X012216Y006320D01*
X010111Y006257D02*
X010111Y006304D01*
X010064Y006350D01*
X009971Y006350D01*
X009924Y006304D01*
X009816Y006304D02*
X009816Y006117D01*
X009770Y006070D01*
X009676Y006070D01*
X009630Y006117D01*
X009630Y006304D01*
X009676Y006350D01*
X009770Y006350D01*
X009816Y006304D01*
X009723Y006163D02*
X009816Y006070D01*
X009924Y006070D02*
X010111Y006257D01*
X010111Y006070D02*
X009924Y006070D01*
X008011Y005604D02*
X008011Y005557D01*
X007964Y005510D01*
X008011Y005463D01*
X008011Y005417D01*
X007964Y005370D01*
X007871Y005370D01*
X007824Y005417D01*
X007716Y005370D02*
X007623Y005463D01*
X007670Y005463D02*
X007530Y005463D01*
X007530Y005370D02*
X007530Y005650D01*
X007670Y005650D01*
X007716Y005604D01*
X007716Y005510D01*
X007670Y005463D01*
X007824Y005604D02*
X007871Y005650D01*
X007964Y005650D01*
X008011Y005604D01*
X007964Y005510D02*
X007918Y005510D01*
X010440Y004630D02*
X010440Y004350D01*
X010440Y004443D02*
X010580Y004443D01*
X010627Y004490D01*
X010627Y004584D01*
X010580Y004630D01*
X010440Y004630D01*
X010534Y004443D02*
X010627Y004350D01*
X010735Y004350D02*
X010922Y004537D01*
X010922Y004584D01*
X010875Y004630D01*
X010782Y004630D01*
X010735Y004584D01*
X010735Y004350D02*
X010922Y004350D01*
D14*
X009809Y007500D03*
X008309Y007500D03*
X006059Y007500D03*
D15*
X012522Y007067D02*
X012731Y007276D01*
X012522Y007067D02*
X012981Y006608D01*
X014123Y006302D02*
X014958Y007137D01*
X014651Y008278D02*
X014192Y008738D01*
X013983Y008529D01*
X015500Y010720D02*
X015500Y011280D01*
X016020Y011280D01*
X016020Y010720D01*
D16*
X015760Y011257D03*
D17*
X012424Y007388D02*
X012426Y007402D01*
X012432Y007416D01*
X012440Y007428D01*
X012452Y007436D01*
X012466Y007442D01*
X012480Y007444D01*
X012494Y007442D01*
X012508Y007436D01*
X012520Y007428D01*
X012528Y007416D01*
X012534Y007402D01*
X012536Y007388D01*
X012534Y007374D01*
X012528Y007360D01*
X012520Y007348D01*
X012508Y007340D01*
X012494Y007334D01*
X012480Y007332D01*
X012466Y007334D01*
X012452Y007340D01*
X012440Y007348D01*
X012432Y007360D01*
X012426Y007374D01*
X012424Y007388D01*
D18*
X012210Y014758D02*
X011810Y014758D01*
X011210Y014758D02*
X010810Y014758D01*
X010210Y014758D02*
X009810Y014758D01*
X009210Y014758D02*
X008810Y014758D01*
X008210Y014758D02*
X007810Y014758D01*
X007260Y014758D02*
X007010Y014758D01*
X007010Y015742D01*
X007260Y015742D01*
X007810Y015742D02*
X008210Y015742D01*
X008810Y015742D02*
X009210Y015742D01*
X009810Y015742D02*
X010210Y015742D01*
X010810Y015742D02*
X011210Y015742D01*
X011810Y015742D02*
X012210Y015742D01*
X012760Y015742D02*
X013010Y015742D01*
X013010Y014758D01*
X012760Y014758D01*
M02*
