G75*
%MOIN*%
%OFA0B0*%
%FSLAX24Y24*%
%IPPOS*%
%LPD*%
%AMOC8*
5,1,8,0,0,1.08239X$1,22.5*
%
%ADD10C,0.0080*%
%ADD11C,0.0040*%
%ADD12C,0.0050*%
%ADD13C,0.0059*%
D10*
X002623Y011000D02*
X002625Y011181D01*
X002632Y011362D01*
X002643Y011543D01*
X002659Y011724D01*
X002679Y011904D01*
X002703Y012084D01*
X002732Y012263D01*
X002765Y012441D01*
X002802Y012619D01*
X002844Y012795D01*
X002891Y012970D01*
X002941Y013144D01*
X002996Y013317D01*
X003055Y013489D01*
X003118Y013659D01*
X003185Y013827D01*
X003257Y013994D01*
X003332Y014158D01*
X003412Y014321D01*
X003495Y014482D01*
X003583Y014641D01*
X003674Y014798D01*
X003769Y014952D01*
X003868Y015104D01*
X003971Y015253D01*
X004077Y015400D01*
X004186Y015545D01*
X004300Y015686D01*
X004416Y015825D01*
X004537Y015961D01*
X004660Y016094D01*
X004787Y016223D01*
X004916Y016350D01*
X005049Y016473D01*
X005185Y016594D01*
X005324Y016710D01*
X005465Y016824D01*
X005610Y016933D01*
X005757Y017039D01*
X005906Y017142D01*
X006058Y017241D01*
X006212Y017336D01*
X006369Y017427D01*
X006528Y017515D01*
X006689Y017598D01*
X006852Y017678D01*
X007016Y017753D01*
X007183Y017825D01*
X007351Y017892D01*
X007521Y017955D01*
X007693Y018014D01*
X007866Y018069D01*
X008040Y018119D01*
X008215Y018166D01*
X008391Y018208D01*
X008569Y018245D01*
X008747Y018278D01*
X008926Y018307D01*
X009106Y018331D01*
X009286Y018351D01*
X009467Y018367D01*
X009648Y018378D01*
X009829Y018385D01*
X010010Y018387D01*
X010191Y018385D01*
X010372Y018378D01*
X010553Y018367D01*
X010734Y018351D01*
X010914Y018331D01*
X011094Y018307D01*
X011273Y018278D01*
X011451Y018245D01*
X011629Y018208D01*
X011805Y018166D01*
X011980Y018119D01*
X012154Y018069D01*
X012327Y018014D01*
X012499Y017955D01*
X012669Y017892D01*
X012837Y017825D01*
X013004Y017753D01*
X013168Y017678D01*
X013331Y017598D01*
X013492Y017515D01*
X013651Y017427D01*
X013808Y017336D01*
X013962Y017241D01*
X014114Y017142D01*
X014263Y017039D01*
X014410Y016933D01*
X014555Y016824D01*
X014696Y016710D01*
X014835Y016594D01*
X014971Y016473D01*
X015104Y016350D01*
X015233Y016223D01*
X015360Y016094D01*
X015483Y015961D01*
X015604Y015825D01*
X015720Y015686D01*
X015834Y015545D01*
X015943Y015400D01*
X016049Y015253D01*
X016152Y015104D01*
X016251Y014952D01*
X016346Y014798D01*
X016437Y014641D01*
X016525Y014482D01*
X016608Y014321D01*
X016688Y014158D01*
X016763Y013994D01*
X016835Y013827D01*
X016902Y013659D01*
X016965Y013489D01*
X017024Y013317D01*
X017079Y013144D01*
X017129Y012970D01*
X017176Y012795D01*
X017218Y012619D01*
X017255Y012441D01*
X017288Y012263D01*
X017317Y012084D01*
X017341Y011904D01*
X017361Y011724D01*
X017377Y011543D01*
X017388Y011362D01*
X017395Y011181D01*
X017397Y011000D01*
X017395Y010819D01*
X017388Y010638D01*
X017377Y010457D01*
X017361Y010276D01*
X017341Y010096D01*
X017317Y009916D01*
X017288Y009737D01*
X017255Y009559D01*
X017218Y009381D01*
X017176Y009205D01*
X017129Y009030D01*
X017079Y008856D01*
X017024Y008683D01*
X016965Y008511D01*
X016902Y008341D01*
X016835Y008173D01*
X016763Y008006D01*
X016688Y007842D01*
X016608Y007679D01*
X016525Y007518D01*
X016437Y007359D01*
X016346Y007202D01*
X016251Y007048D01*
X016152Y006896D01*
X016049Y006747D01*
X015943Y006600D01*
X015834Y006455D01*
X015720Y006314D01*
X015604Y006175D01*
X015483Y006039D01*
X015360Y005906D01*
X015233Y005777D01*
X015104Y005650D01*
X014971Y005527D01*
X014835Y005406D01*
X014696Y005290D01*
X014555Y005176D01*
X014410Y005067D01*
X014263Y004961D01*
X014114Y004858D01*
X013962Y004759D01*
X013808Y004664D01*
X013651Y004573D01*
X013492Y004485D01*
X013331Y004402D01*
X013168Y004322D01*
X013004Y004247D01*
X012837Y004175D01*
X012669Y004108D01*
X012499Y004045D01*
X012327Y003986D01*
X012154Y003931D01*
X011980Y003881D01*
X011805Y003834D01*
X011629Y003792D01*
X011451Y003755D01*
X011273Y003722D01*
X011094Y003693D01*
X010914Y003669D01*
X010734Y003649D01*
X010553Y003633D01*
X010372Y003622D01*
X010191Y003615D01*
X010010Y003613D01*
X009829Y003615D01*
X009648Y003622D01*
X009467Y003633D01*
X009286Y003649D01*
X009106Y003669D01*
X008926Y003693D01*
X008747Y003722D01*
X008569Y003755D01*
X008391Y003792D01*
X008215Y003834D01*
X008040Y003881D01*
X007866Y003931D01*
X007693Y003986D01*
X007521Y004045D01*
X007351Y004108D01*
X007183Y004175D01*
X007016Y004247D01*
X006852Y004322D01*
X006689Y004402D01*
X006528Y004485D01*
X006369Y004573D01*
X006212Y004664D01*
X006058Y004759D01*
X005906Y004858D01*
X005757Y004961D01*
X005610Y005067D01*
X005465Y005176D01*
X005324Y005290D01*
X005185Y005406D01*
X005049Y005527D01*
X004916Y005650D01*
X004787Y005777D01*
X004660Y005906D01*
X004537Y006039D01*
X004416Y006175D01*
X004300Y006314D01*
X004186Y006455D01*
X004077Y006600D01*
X003971Y006747D01*
X003868Y006896D01*
X003769Y007048D01*
X003674Y007202D01*
X003583Y007359D01*
X003495Y007518D01*
X003412Y007679D01*
X003332Y007842D01*
X003257Y008006D01*
X003185Y008173D01*
X003118Y008341D01*
X003055Y008511D01*
X002996Y008683D01*
X002941Y008856D01*
X002891Y009030D01*
X002844Y009205D01*
X002802Y009381D01*
X002765Y009559D01*
X002732Y009737D01*
X002703Y009916D01*
X002679Y010096D01*
X002659Y010276D01*
X002643Y010457D01*
X002632Y010638D01*
X002625Y010819D01*
X002623Y011000D01*
X012437Y011000D02*
X012439Y011096D01*
X012445Y011192D01*
X012455Y011287D01*
X012469Y011382D01*
X012486Y011477D01*
X012508Y011570D01*
X012534Y011663D01*
X012563Y011754D01*
X012596Y011844D01*
X012633Y011933D01*
X012673Y012020D01*
X012717Y012106D01*
X012764Y012189D01*
X012815Y012271D01*
X012869Y012350D01*
X012927Y012427D01*
X012987Y012501D01*
X013051Y012573D01*
X013117Y012643D01*
X013187Y012709D01*
X013259Y012773D01*
X013333Y012833D01*
X013410Y012891D01*
X013489Y012945D01*
X013571Y012996D01*
X013654Y013043D01*
X013740Y013087D01*
X013827Y013127D01*
X013916Y013164D01*
X014006Y013197D01*
X014097Y013226D01*
X014190Y013252D01*
X014283Y013274D01*
X014378Y013291D01*
X014473Y013305D01*
X014568Y013315D01*
X014664Y013321D01*
X014760Y013323D01*
X014856Y013321D01*
X014952Y013315D01*
X015047Y013305D01*
X015142Y013291D01*
X015237Y013274D01*
X015330Y013252D01*
X015423Y013226D01*
X015514Y013197D01*
X015604Y013164D01*
X015693Y013127D01*
X015780Y013087D01*
X015866Y013043D01*
X015949Y012996D01*
X016031Y012945D01*
X016110Y012891D01*
X016187Y012833D01*
X016261Y012773D01*
X016333Y012709D01*
X016403Y012643D01*
X016469Y012573D01*
X016533Y012501D01*
X016593Y012427D01*
X016651Y012350D01*
X016705Y012271D01*
X016756Y012189D01*
X016803Y012106D01*
X016847Y012020D01*
X016887Y011933D01*
X016924Y011844D01*
X016957Y011754D01*
X016986Y011663D01*
X017012Y011570D01*
X017034Y011477D01*
X017051Y011382D01*
X017065Y011287D01*
X017075Y011192D01*
X017081Y011096D01*
X017083Y011000D01*
X017081Y010904D01*
X017075Y010808D01*
X017065Y010713D01*
X017051Y010618D01*
X017034Y010523D01*
X017012Y010430D01*
X016986Y010337D01*
X016957Y010246D01*
X016924Y010156D01*
X016887Y010067D01*
X016847Y009980D01*
X016803Y009894D01*
X016756Y009811D01*
X016705Y009729D01*
X016651Y009650D01*
X016593Y009573D01*
X016533Y009499D01*
X016469Y009427D01*
X016403Y009357D01*
X016333Y009291D01*
X016261Y009227D01*
X016187Y009167D01*
X016110Y009109D01*
X016031Y009055D01*
X015949Y009004D01*
X015866Y008957D01*
X015780Y008913D01*
X015693Y008873D01*
X015604Y008836D01*
X015514Y008803D01*
X015423Y008774D01*
X015330Y008748D01*
X015237Y008726D01*
X015142Y008709D01*
X015047Y008695D01*
X014952Y008685D01*
X014856Y008679D01*
X014760Y008677D01*
X014664Y008679D01*
X014568Y008685D01*
X014473Y008695D01*
X014378Y008709D01*
X014283Y008726D01*
X014190Y008748D01*
X014097Y008774D01*
X014006Y008803D01*
X013916Y008836D01*
X013827Y008873D01*
X013740Y008913D01*
X013654Y008957D01*
X013571Y009004D01*
X013489Y009055D01*
X013410Y009109D01*
X013333Y009167D01*
X013259Y009227D01*
X013187Y009291D01*
X013117Y009357D01*
X013051Y009427D01*
X012987Y009499D01*
X012927Y009573D01*
X012869Y009650D01*
X012815Y009729D01*
X012764Y009811D01*
X012717Y009894D01*
X012673Y009980D01*
X012633Y010067D01*
X012596Y010156D01*
X012563Y010246D01*
X012534Y010337D01*
X012508Y010430D01*
X012486Y010523D01*
X012469Y010618D01*
X012455Y010713D01*
X012445Y010808D01*
X012439Y010904D01*
X012437Y011000D01*
X015360Y012540D02*
X015360Y012954D01*
X015567Y012747D02*
X015153Y012747D01*
D11*
X006789Y005119D02*
X006789Y004812D01*
X008405Y009255D02*
X008711Y009255D01*
X008865Y009409D01*
X008711Y009562D01*
X008405Y009562D01*
X008405Y009716D02*
X008405Y009946D01*
X008481Y010022D01*
X008788Y010022D01*
X008865Y009946D01*
X008865Y009716D01*
X008405Y009716D01*
X008635Y009562D02*
X008635Y009255D01*
X008635Y010176D02*
X008635Y010483D01*
X008635Y010636D02*
X008635Y010790D01*
X008865Y010943D02*
X008865Y010636D01*
X008405Y010636D01*
X008405Y010943D01*
X008481Y011097D02*
X008405Y011173D01*
X008405Y011327D01*
X008481Y011404D01*
X008558Y011404D01*
X008635Y011327D01*
X008635Y011173D01*
X008711Y011097D01*
X008788Y011097D01*
X008865Y011173D01*
X008865Y011327D01*
X008788Y011404D01*
X008865Y011557D02*
X008865Y011711D01*
X008865Y011634D02*
X008405Y011634D01*
X008405Y011557D02*
X008405Y011711D01*
X008558Y011864D02*
X008405Y012018D01*
X008558Y012171D01*
X008865Y012171D01*
X008865Y012324D02*
X008405Y012324D01*
X008405Y012631D01*
X008635Y012478D02*
X008635Y012324D01*
X008865Y012324D02*
X008865Y012631D01*
X008865Y011864D02*
X008558Y011864D01*
X008115Y011634D02*
X007961Y011787D01*
X007655Y011787D01*
X007885Y011787D02*
X007885Y011480D01*
X007961Y011480D02*
X008115Y011634D01*
X007961Y011480D02*
X007655Y011480D01*
X007655Y011327D02*
X007655Y011020D01*
X008115Y011020D01*
X008115Y011327D01*
X007885Y011173D02*
X007885Y011020D01*
X007885Y010867D02*
X007808Y010790D01*
X007808Y010560D01*
X007808Y010713D02*
X007655Y010867D01*
X007885Y010867D02*
X008038Y010867D01*
X008115Y010790D01*
X008115Y010560D01*
X007655Y010560D01*
X007655Y010406D02*
X007961Y010406D01*
X008115Y010253D01*
X007961Y010099D01*
X007655Y010099D01*
X007885Y010099D02*
X007885Y010406D01*
X008405Y010483D02*
X008865Y010483D01*
X008865Y010176D02*
X008405Y010176D01*
X009960Y010591D02*
X009960Y010732D01*
X010006Y010778D01*
X010053Y010778D01*
X010100Y010732D01*
X010100Y010591D01*
X010240Y010591D02*
X010240Y010732D01*
X010193Y010778D01*
X010146Y010778D01*
X010100Y010732D01*
X010100Y010886D02*
X010100Y011073D01*
X010146Y011073D02*
X009960Y011073D01*
X010146Y011073D02*
X010240Y010979D01*
X010146Y010886D01*
X009960Y010886D01*
X009960Y010591D02*
X010240Y010591D01*
X010240Y011181D02*
X010240Y011368D01*
X010240Y011274D02*
X009960Y011274D01*
X009960Y011475D02*
X009960Y011662D01*
X009960Y011569D02*
X010240Y011569D01*
X010146Y011475D01*
X011780Y012587D02*
X011873Y012680D01*
X011780Y012774D01*
X012060Y012774D01*
X011966Y012928D02*
X011966Y013022D01*
X011920Y013068D01*
X011780Y013068D01*
X011780Y012928D01*
X011826Y012882D01*
X011873Y012928D01*
X011873Y013068D01*
X011873Y013176D02*
X011966Y013316D01*
X011920Y013422D02*
X011966Y013468D01*
X011966Y013562D01*
X011920Y013609D01*
X011873Y013609D01*
X011873Y013422D01*
X011826Y013422D02*
X011920Y013422D01*
X011826Y013422D02*
X011780Y013468D01*
X011780Y013562D01*
X011920Y013716D02*
X011920Y013903D01*
X011920Y014011D02*
X011826Y014011D01*
X011780Y014058D01*
X011780Y014151D01*
X011826Y014198D01*
X011920Y014198D01*
X011966Y014151D01*
X011966Y014058D01*
X011920Y014011D01*
X012280Y014060D02*
X012280Y014154D01*
X012280Y014107D02*
X012466Y014107D01*
X012466Y014060D01*
X012560Y014107D02*
X012606Y014107D01*
X012780Y014207D02*
X013060Y014207D01*
X013060Y014348D01*
X013013Y014394D01*
X012920Y014394D01*
X012873Y014348D01*
X012873Y014207D01*
X012873Y014301D02*
X012780Y014394D01*
X012826Y014502D02*
X012920Y014502D01*
X012966Y014549D01*
X012966Y014642D01*
X012920Y014689D01*
X012873Y014689D01*
X012873Y014502D01*
X012826Y014502D02*
X012780Y014549D01*
X012780Y014642D01*
X012966Y014797D02*
X012780Y014890D01*
X012966Y014984D01*
X012826Y015091D02*
X012826Y015138D01*
X012780Y015138D01*
X012780Y015091D01*
X012826Y015091D01*
X012560Y015033D02*
X012560Y014846D01*
X012280Y014846D01*
X012420Y014846D02*
X012420Y014939D01*
X012420Y015141D02*
X012326Y015141D01*
X012280Y015187D01*
X012280Y015281D01*
X012326Y015327D01*
X012420Y015327D01*
X012466Y015281D01*
X012466Y015187D01*
X012420Y015141D01*
X012420Y015435D02*
X012466Y015482D01*
X012466Y015622D01*
X012560Y015622D02*
X012280Y015622D01*
X012280Y015482D01*
X012326Y015435D01*
X012420Y015435D01*
X012420Y015730D02*
X012326Y015730D01*
X012280Y015777D01*
X012280Y015870D01*
X012326Y015917D01*
X012420Y015917D01*
X012466Y015870D01*
X012466Y015777D01*
X012420Y015730D01*
X012780Y015720D02*
X012966Y015720D01*
X013060Y015627D01*
X012966Y015533D01*
X012780Y015533D01*
X012920Y015533D02*
X012920Y015720D01*
X012826Y015828D02*
X012826Y015875D01*
X012780Y015875D01*
X012780Y015828D01*
X012826Y015828D01*
X012780Y015975D02*
X012780Y016162D01*
X012780Y016069D02*
X013060Y016069D01*
X012966Y015975D01*
X012466Y016024D02*
X012280Y016024D01*
X012373Y016024D02*
X012466Y016118D01*
X012466Y016165D01*
X011966Y016115D02*
X011920Y016162D01*
X011826Y016162D01*
X011780Y016115D01*
X011780Y015975D01*
X011686Y015975D02*
X011966Y015975D01*
X011966Y016115D01*
X011920Y015868D02*
X011873Y015868D01*
X011873Y015681D01*
X011920Y015681D02*
X011966Y015727D01*
X011966Y015821D01*
X011920Y015868D01*
X011780Y015821D02*
X011780Y015727D01*
X011826Y015681D01*
X011920Y015681D01*
X011920Y015573D02*
X011873Y015573D01*
X011873Y015386D01*
X011920Y015386D02*
X011966Y015433D01*
X011966Y015526D01*
X011920Y015573D01*
X011780Y015526D02*
X011780Y015433D01*
X011826Y015386D01*
X011920Y015386D01*
X011780Y015283D02*
X011780Y015190D01*
X011780Y015236D02*
X012060Y015236D01*
X012060Y015190D01*
X012013Y015082D02*
X012060Y015035D01*
X012060Y014942D01*
X012013Y014895D01*
X011966Y014895D01*
X011920Y014942D01*
X011920Y015035D01*
X011873Y015082D01*
X011826Y015082D01*
X011780Y015035D01*
X011780Y014942D01*
X011826Y014895D01*
X011920Y014787D02*
X011920Y014600D01*
X011920Y014492D02*
X011780Y014492D01*
X011920Y014492D02*
X011966Y014446D01*
X011966Y014306D01*
X011780Y014306D01*
X012280Y014257D02*
X012466Y014257D01*
X012466Y014397D01*
X012420Y014443D01*
X012280Y014443D01*
X012466Y013952D02*
X012280Y013859D01*
X012466Y013765D01*
X012420Y013658D02*
X012373Y013658D01*
X012373Y013471D01*
X012420Y013471D02*
X012466Y013518D01*
X012466Y013611D01*
X012420Y013658D01*
X012280Y013611D02*
X012280Y013518D01*
X012326Y013471D01*
X012420Y013471D01*
X012560Y013363D02*
X012373Y013176D01*
X012420Y013223D02*
X012280Y013363D01*
X012280Y013176D02*
X012560Y013176D01*
X012060Y013176D02*
X011780Y013176D01*
X011873Y013176D02*
X011780Y013316D01*
X011780Y012587D02*
X012060Y012587D01*
X014280Y011296D02*
X014280Y011109D01*
X014280Y011203D02*
X014560Y011203D01*
X014466Y011109D01*
X014420Y011001D02*
X014420Y010908D01*
X014420Y011001D02*
X014326Y011001D01*
X014280Y010955D01*
X014280Y010861D01*
X014326Y010815D01*
X014513Y010815D01*
X014560Y010861D01*
X014560Y010955D01*
X014513Y011001D01*
X014513Y010707D02*
X014560Y010660D01*
X014560Y010567D01*
X014513Y010520D01*
X014466Y010520D01*
X014420Y010567D01*
X014420Y010660D01*
X014373Y010707D01*
X014326Y010707D01*
X014280Y010660D01*
X014280Y010567D01*
X014326Y010520D01*
X006889Y016774D02*
X006582Y016774D01*
X006735Y016927D02*
X006735Y016620D01*
D12*
X005897Y016512D02*
X010622Y016512D01*
X010622Y016511D02*
X010676Y016509D01*
X010729Y016504D01*
X010782Y016495D01*
X010834Y016482D01*
X010886Y016466D01*
X010936Y016446D01*
X010984Y016423D01*
X011031Y016396D01*
X011076Y016367D01*
X011119Y016334D01*
X011159Y016299D01*
X011197Y016261D01*
X011232Y016221D01*
X011265Y016178D01*
X011294Y016133D01*
X011321Y016086D01*
X011344Y016038D01*
X011364Y015988D01*
X011380Y015936D01*
X011393Y015884D01*
X011402Y015831D01*
X011407Y015778D01*
X011409Y015724D01*
X011409Y006276D01*
X011407Y006222D01*
X011402Y006169D01*
X011393Y006116D01*
X011380Y006064D01*
X011364Y006012D01*
X011344Y005962D01*
X011321Y005914D01*
X011294Y005867D01*
X011265Y005822D01*
X011232Y005779D01*
X011197Y005739D01*
X011159Y005701D01*
X011119Y005666D01*
X011076Y005633D01*
X011031Y005604D01*
X010984Y005577D01*
X010936Y005554D01*
X010886Y005534D01*
X010834Y005518D01*
X010782Y005505D01*
X010729Y005496D01*
X010676Y005491D01*
X010622Y005489D01*
X010622Y005488D02*
X005897Y005488D01*
X005897Y005489D02*
X005843Y005491D01*
X005790Y005496D01*
X005737Y005505D01*
X005685Y005518D01*
X005633Y005534D01*
X005583Y005554D01*
X005535Y005577D01*
X005488Y005604D01*
X005443Y005633D01*
X005400Y005666D01*
X005360Y005701D01*
X005322Y005739D01*
X005287Y005779D01*
X005254Y005822D01*
X005225Y005867D01*
X005198Y005914D01*
X005175Y005962D01*
X005155Y006012D01*
X005139Y006064D01*
X005126Y006116D01*
X005117Y006169D01*
X005112Y006222D01*
X005110Y006276D01*
X005110Y015724D01*
X005112Y015778D01*
X005117Y015831D01*
X005126Y015884D01*
X005139Y015936D01*
X005155Y015988D01*
X005175Y016038D01*
X005198Y016086D01*
X005225Y016133D01*
X005254Y016178D01*
X005287Y016221D01*
X005322Y016261D01*
X005360Y016299D01*
X005400Y016334D01*
X005443Y016367D01*
X005488Y016396D01*
X005535Y016423D01*
X005583Y016446D01*
X005633Y016466D01*
X005685Y016482D01*
X005737Y016495D01*
X005790Y016504D01*
X005843Y016509D01*
X005897Y016511D01*
X006882Y013165D02*
X009637Y013165D01*
X009637Y008835D01*
X006882Y008835D01*
X006882Y013165D01*
D13*
X012842Y008618D02*
X013177Y008618D01*
X013223Y008173D01*
X013323Y008144D01*
X013420Y008104D01*
X013512Y008053D01*
X013858Y008336D01*
X014095Y008098D01*
X013813Y007752D01*
X013863Y007660D01*
X013903Y007564D01*
X013933Y007463D01*
X014377Y007418D01*
X014377Y007082D01*
X013933Y007037D01*
X013903Y006936D01*
X013863Y006840D01*
X013813Y006748D01*
X014095Y006402D01*
X013858Y006164D01*
X013512Y006447D01*
X013443Y006408D01*
X013372Y006375D01*
X013174Y006852D01*
X013239Y006885D01*
X013296Y006929D01*
X013346Y006982D01*
X013386Y007042D01*
X013416Y007108D01*
X013434Y007178D01*
X013440Y007250D01*
X013433Y007330D01*
X013410Y007408D01*
X013374Y007480D01*
X013324Y007544D01*
X013264Y007598D01*
X013194Y007639D01*
X013119Y007667D01*
X013039Y007680D01*
X012958Y007678D01*
X012879Y007660D01*
X012805Y007629D01*
X012738Y007584D01*
X012680Y007527D01*
X012634Y007461D01*
X012601Y007387D01*
X012583Y007309D01*
X012579Y007228D01*
X012591Y007148D01*
X012618Y007072D01*
X012658Y007002D01*
X012710Y006940D01*
X012773Y006890D01*
X012845Y006852D01*
X012647Y006375D01*
X012576Y006408D01*
X012508Y006447D01*
X012161Y006164D01*
X011924Y006402D01*
X012206Y006748D01*
X012156Y006840D01*
X012116Y006936D01*
X012086Y007037D01*
X011642Y007082D01*
X011642Y007418D01*
X012086Y007463D01*
X012116Y007564D01*
X012156Y007660D01*
X012206Y007752D01*
X011924Y008098D01*
X012161Y008336D01*
X012508Y008053D01*
X012599Y008104D01*
X012696Y008144D01*
X012796Y008173D01*
X012842Y008618D01*
X012836Y008565D02*
X013183Y008565D01*
X013189Y008507D02*
X012830Y008507D01*
X012825Y008450D02*
X013194Y008450D01*
X013200Y008392D02*
X012819Y008392D01*
X012813Y008335D02*
X013206Y008335D01*
X013212Y008277D02*
X012807Y008277D01*
X012801Y008220D02*
X013218Y008220D01*
X013261Y008162D02*
X012758Y008162D01*
X012600Y008104D02*
X013419Y008104D01*
X013574Y008104D02*
X014089Y008104D01*
X014053Y008047D02*
X011966Y008047D01*
X011930Y008104D02*
X012445Y008104D01*
X012374Y008162D02*
X011987Y008162D01*
X012045Y008220D02*
X012304Y008220D01*
X012233Y008277D02*
X012102Y008277D01*
X012160Y008335D02*
X012163Y008335D01*
X012013Y007989D02*
X014006Y007989D01*
X013960Y007932D02*
X012060Y007932D01*
X012106Y007874D02*
X013913Y007874D01*
X013866Y007817D02*
X012153Y007817D01*
X012200Y007759D02*
X013819Y007759D01*
X013841Y007702D02*
X012178Y007702D01*
X012149Y007644D02*
X012840Y007644D01*
X012741Y007586D02*
X012125Y007586D01*
X012106Y007529D02*
X012682Y007529D01*
X012641Y007471D02*
X012089Y007471D01*
X011642Y007414D02*
X012613Y007414D01*
X012594Y007356D02*
X011642Y007356D01*
X011642Y007299D02*
X012582Y007299D01*
X012580Y007241D02*
X011642Y007241D01*
X011642Y007184D02*
X012586Y007184D01*
X012599Y007126D02*
X011642Y007126D01*
X011776Y007068D02*
X012619Y007068D01*
X012652Y007011D02*
X012094Y007011D01*
X012111Y006953D02*
X012699Y006953D01*
X012766Y006896D02*
X012132Y006896D01*
X012156Y006838D02*
X012839Y006838D01*
X012815Y006781D02*
X012188Y006781D01*
X012186Y006723D02*
X012791Y006723D01*
X012767Y006666D02*
X012139Y006666D01*
X012092Y006608D02*
X012744Y006608D01*
X012720Y006550D02*
X012045Y006550D01*
X011998Y006493D02*
X012696Y006493D01*
X012672Y006435D02*
X012527Y006435D01*
X012494Y006435D02*
X011951Y006435D01*
X011948Y006378D02*
X012423Y006378D01*
X012353Y006320D02*
X012005Y006320D01*
X012063Y006263D02*
X012282Y006263D01*
X012211Y006205D02*
X012120Y006205D01*
X012640Y006378D02*
X012648Y006378D01*
X013275Y006608D02*
X013927Y006608D01*
X013880Y006666D02*
X013252Y006666D01*
X013228Y006723D02*
X013833Y006723D01*
X013831Y006781D02*
X013204Y006781D01*
X013180Y006838D02*
X013863Y006838D01*
X013887Y006896D02*
X013252Y006896D01*
X013320Y006953D02*
X013908Y006953D01*
X013925Y007011D02*
X013366Y007011D01*
X013398Y007068D02*
X014243Y007068D01*
X014377Y007126D02*
X013421Y007126D01*
X013435Y007184D02*
X014377Y007184D01*
X014377Y007241D02*
X013439Y007241D01*
X013436Y007299D02*
X014377Y007299D01*
X014377Y007356D02*
X013425Y007356D01*
X013407Y007414D02*
X014377Y007414D01*
X013930Y007471D02*
X013378Y007471D01*
X013336Y007529D02*
X013914Y007529D01*
X013894Y007586D02*
X013276Y007586D01*
X013180Y007644D02*
X013870Y007644D01*
X014032Y008162D02*
X013645Y008162D01*
X013715Y008220D02*
X013974Y008220D01*
X013917Y008277D02*
X013786Y008277D01*
X013856Y008335D02*
X013859Y008335D01*
X013974Y006550D02*
X013299Y006550D01*
X013323Y006493D02*
X014021Y006493D01*
X014068Y006435D02*
X013525Y006435D01*
X013492Y006435D02*
X013347Y006435D01*
X013371Y006378D02*
X013379Y006378D01*
X013596Y006378D02*
X014071Y006378D01*
X014014Y006320D02*
X013666Y006320D01*
X013737Y006263D02*
X013956Y006263D01*
X013899Y006205D02*
X013808Y006205D01*
M02*
