G75*
%MOIN*%
%OFA0B0*%
%FSLAX24Y24*%
%IPPOS*%
%LPD*%
%AMOC8*
5,1,8,0,0,1.08239X$1,22.5*
%
%ADD10C,0.0080*%
%ADD11C,0.0060*%
%ADD12C,0.0050*%
%ADD13C,0.0040*%
%ADD14R,0.0098X0.0098*%
%ADD15C,0.0100*%
%ADD16R,0.0551X0.0079*%
%ADD17C,0.0157*%
%ADD18C,0.0070*%
D10*
X009410Y005250D02*
X009610Y005250D01*
X010060Y005500D02*
X010060Y005750D01*
X009810Y005750D01*
X009210Y005750D02*
X008960Y005750D01*
X008960Y005500D01*
X011960Y005500D02*
X011960Y005750D01*
X012210Y005750D01*
X012810Y005750D02*
X013060Y005750D01*
X013060Y005500D01*
X012610Y005250D02*
X012410Y005250D01*
X008165Y010055D02*
X008086Y010055D01*
X008165Y010055D02*
X008165Y011945D01*
X008086Y011945D01*
X006157Y011945D02*
X006078Y011945D01*
X006078Y010055D01*
X006157Y010055D01*
X004570Y010831D02*
X004570Y011169D01*
X004115Y010681D02*
X003904Y010681D01*
X003450Y010831D02*
X003450Y011169D01*
X002623Y011000D02*
X002625Y011181D01*
X002632Y011362D01*
X002643Y011543D01*
X002659Y011724D01*
X002679Y011904D01*
X002703Y012084D01*
X002732Y012263D01*
X002765Y012441D01*
X002802Y012619D01*
X002844Y012795D01*
X002891Y012970D01*
X002941Y013144D01*
X002996Y013317D01*
X003055Y013489D01*
X003118Y013659D01*
X003185Y013827D01*
X003257Y013994D01*
X003332Y014158D01*
X003412Y014321D01*
X003495Y014482D01*
X003583Y014641D01*
X003674Y014798D01*
X003769Y014952D01*
X003868Y015104D01*
X003971Y015253D01*
X004077Y015400D01*
X004186Y015545D01*
X004300Y015686D01*
X004416Y015825D01*
X004537Y015961D01*
X004660Y016094D01*
X004787Y016223D01*
X004916Y016350D01*
X005049Y016473D01*
X005185Y016594D01*
X005324Y016710D01*
X005465Y016824D01*
X005610Y016933D01*
X005757Y017039D01*
X005906Y017142D01*
X006058Y017241D01*
X006212Y017336D01*
X006369Y017427D01*
X006528Y017515D01*
X006689Y017598D01*
X006852Y017678D01*
X007016Y017753D01*
X007183Y017825D01*
X007351Y017892D01*
X007521Y017955D01*
X007693Y018014D01*
X007866Y018069D01*
X008040Y018119D01*
X008215Y018166D01*
X008391Y018208D01*
X008569Y018245D01*
X008747Y018278D01*
X008926Y018307D01*
X009106Y018331D01*
X009286Y018351D01*
X009467Y018367D01*
X009648Y018378D01*
X009829Y018385D01*
X010010Y018387D01*
X010191Y018385D01*
X010372Y018378D01*
X010553Y018367D01*
X010734Y018351D01*
X010914Y018331D01*
X011094Y018307D01*
X011273Y018278D01*
X011451Y018245D01*
X011629Y018208D01*
X011805Y018166D01*
X011980Y018119D01*
X012154Y018069D01*
X012327Y018014D01*
X012499Y017955D01*
X012669Y017892D01*
X012837Y017825D01*
X013004Y017753D01*
X013168Y017678D01*
X013331Y017598D01*
X013492Y017515D01*
X013651Y017427D01*
X013808Y017336D01*
X013962Y017241D01*
X014114Y017142D01*
X014263Y017039D01*
X014410Y016933D01*
X014555Y016824D01*
X014696Y016710D01*
X014835Y016594D01*
X014971Y016473D01*
X015104Y016350D01*
X015233Y016223D01*
X015360Y016094D01*
X015483Y015961D01*
X015604Y015825D01*
X015720Y015686D01*
X015834Y015545D01*
X015943Y015400D01*
X016049Y015253D01*
X016152Y015104D01*
X016251Y014952D01*
X016346Y014798D01*
X016437Y014641D01*
X016525Y014482D01*
X016608Y014321D01*
X016688Y014158D01*
X016763Y013994D01*
X016835Y013827D01*
X016902Y013659D01*
X016965Y013489D01*
X017024Y013317D01*
X017079Y013144D01*
X017129Y012970D01*
X017176Y012795D01*
X017218Y012619D01*
X017255Y012441D01*
X017288Y012263D01*
X017317Y012084D01*
X017341Y011904D01*
X017361Y011724D01*
X017377Y011543D01*
X017388Y011362D01*
X017395Y011181D01*
X017397Y011000D01*
X017395Y010819D01*
X017388Y010638D01*
X017377Y010457D01*
X017361Y010276D01*
X017341Y010096D01*
X017317Y009916D01*
X017288Y009737D01*
X017255Y009559D01*
X017218Y009381D01*
X017176Y009205D01*
X017129Y009030D01*
X017079Y008856D01*
X017024Y008683D01*
X016965Y008511D01*
X016902Y008341D01*
X016835Y008173D01*
X016763Y008006D01*
X016688Y007842D01*
X016608Y007679D01*
X016525Y007518D01*
X016437Y007359D01*
X016346Y007202D01*
X016251Y007048D01*
X016152Y006896D01*
X016049Y006747D01*
X015943Y006600D01*
X015834Y006455D01*
X015720Y006314D01*
X015604Y006175D01*
X015483Y006039D01*
X015360Y005906D01*
X015233Y005777D01*
X015104Y005650D01*
X014971Y005527D01*
X014835Y005406D01*
X014696Y005290D01*
X014555Y005176D01*
X014410Y005067D01*
X014263Y004961D01*
X014114Y004858D01*
X013962Y004759D01*
X013808Y004664D01*
X013651Y004573D01*
X013492Y004485D01*
X013331Y004402D01*
X013168Y004322D01*
X013004Y004247D01*
X012837Y004175D01*
X012669Y004108D01*
X012499Y004045D01*
X012327Y003986D01*
X012154Y003931D01*
X011980Y003881D01*
X011805Y003834D01*
X011629Y003792D01*
X011451Y003755D01*
X011273Y003722D01*
X011094Y003693D01*
X010914Y003669D01*
X010734Y003649D01*
X010553Y003633D01*
X010372Y003622D01*
X010191Y003615D01*
X010010Y003613D01*
X009829Y003615D01*
X009648Y003622D01*
X009467Y003633D01*
X009286Y003649D01*
X009106Y003669D01*
X008926Y003693D01*
X008747Y003722D01*
X008569Y003755D01*
X008391Y003792D01*
X008215Y003834D01*
X008040Y003881D01*
X007866Y003931D01*
X007693Y003986D01*
X007521Y004045D01*
X007351Y004108D01*
X007183Y004175D01*
X007016Y004247D01*
X006852Y004322D01*
X006689Y004402D01*
X006528Y004485D01*
X006369Y004573D01*
X006212Y004664D01*
X006058Y004759D01*
X005906Y004858D01*
X005757Y004961D01*
X005610Y005067D01*
X005465Y005176D01*
X005324Y005290D01*
X005185Y005406D01*
X005049Y005527D01*
X004916Y005650D01*
X004787Y005777D01*
X004660Y005906D01*
X004537Y006039D01*
X004416Y006175D01*
X004300Y006314D01*
X004186Y006455D01*
X004077Y006600D01*
X003971Y006747D01*
X003868Y006896D01*
X003769Y007048D01*
X003674Y007202D01*
X003583Y007359D01*
X003495Y007518D01*
X003412Y007679D01*
X003332Y007842D01*
X003257Y008006D01*
X003185Y008173D01*
X003118Y008341D01*
X003055Y008511D01*
X002996Y008683D01*
X002941Y008856D01*
X002891Y009030D01*
X002844Y009205D01*
X002802Y009381D01*
X002765Y009559D01*
X002732Y009737D01*
X002703Y009916D01*
X002679Y010096D01*
X002659Y010276D01*
X002643Y010457D01*
X002632Y010638D01*
X002625Y010819D01*
X002623Y011000D01*
X012960Y010750D02*
X012960Y010500D01*
X013410Y010250D02*
X013610Y010250D01*
X014060Y010500D02*
X014060Y010750D01*
X013810Y010750D01*
X013210Y010750D02*
X012960Y010750D01*
X015360Y012540D02*
X015360Y012954D01*
X015567Y012747D02*
X015153Y012747D01*
X007760Y017000D02*
X007510Y016750D01*
X007260Y017000D01*
X007760Y017000D01*
X007817Y017290D02*
X007677Y017290D01*
X007606Y017360D01*
X007606Y017640D01*
X007677Y017710D01*
X007817Y017710D01*
X007887Y017640D01*
X008067Y017640D02*
X008067Y017570D01*
X008137Y017500D01*
X008277Y017500D01*
X008347Y017430D01*
X008347Y017360D01*
X008277Y017290D01*
X008137Y017290D01*
X008067Y017360D01*
X007887Y017360D02*
X007817Y017290D01*
X007440Y017290D02*
X007300Y017290D01*
X007370Y017290D02*
X007370Y017710D01*
X007300Y017710D02*
X007440Y017710D01*
X008067Y017640D02*
X008137Y017710D01*
X008277Y017710D01*
X008347Y017640D01*
X008527Y017710D02*
X008527Y017290D01*
X008527Y017430D02*
X008737Y017430D01*
X008807Y017500D01*
X008807Y017640D01*
X008737Y017710D01*
X008527Y017710D01*
D11*
X013510Y016150D02*
X013510Y015350D01*
X013610Y015250D01*
X013510Y015150D01*
X013510Y014350D01*
X013610Y014250D01*
X014410Y014250D01*
X014510Y014350D01*
X014510Y015150D01*
X014410Y015250D01*
X014510Y015350D01*
X014510Y016150D01*
X014410Y016250D01*
X013610Y016250D01*
X013510Y016150D01*
X013753Y016437D02*
X013753Y016664D01*
X013640Y016550D02*
X013866Y016550D01*
X014008Y016493D02*
X014121Y016380D01*
X014235Y016493D01*
X014235Y016720D01*
X014008Y016720D02*
X014008Y016493D01*
X013908Y014120D02*
X014135Y013780D01*
X014135Y014120D01*
X014276Y014120D02*
X014446Y014120D01*
X014503Y014064D01*
X014503Y013837D01*
X014446Y013780D01*
X014276Y013780D01*
X014276Y014120D01*
X013908Y014120D02*
X013908Y013780D01*
X013766Y013837D02*
X013766Y013950D01*
X013653Y013950D01*
X013766Y013837D02*
X013710Y013780D01*
X013596Y013780D01*
X013540Y013837D01*
X013540Y014064D01*
X013596Y014120D01*
X013710Y014120D01*
X013766Y014064D01*
D12*
X008561Y004724D02*
X007458Y004724D01*
X007458Y005276D01*
X008561Y005276D01*
X008561Y004724D01*
X010458Y004724D02*
X011561Y004724D01*
X011561Y005276D01*
X010458Y005276D01*
X010458Y004724D01*
X010360Y007000D02*
X009160Y007000D01*
X009160Y007500D01*
X010360Y007500D01*
X010360Y007000D01*
X008860Y007000D02*
X007660Y007000D01*
X007660Y007500D01*
X008860Y007500D01*
X008860Y007000D01*
X008811Y007974D02*
X007708Y007974D01*
X007708Y008526D01*
X008811Y008526D01*
X008811Y007974D01*
X009208Y007974D02*
X009208Y008526D01*
X010311Y008526D01*
X010311Y007974D01*
X009208Y007974D01*
X006610Y007500D02*
X006610Y007000D01*
X005410Y007000D01*
X005410Y007500D01*
X006610Y007500D01*
X006561Y007974D02*
X005458Y007974D01*
X005458Y008526D01*
X006561Y008526D01*
X006561Y007974D01*
X004639Y009213D02*
X003380Y009213D01*
X003380Y009787D01*
X004639Y009787D01*
X004639Y009213D01*
X005223Y010370D02*
X005797Y010370D01*
X005797Y011630D01*
X005223Y011630D01*
X005223Y010370D01*
X006276Y010390D02*
X006278Y010409D01*
X006283Y010428D01*
X006293Y010444D01*
X006305Y010459D01*
X006320Y010471D01*
X006336Y010481D01*
X006355Y010486D01*
X006374Y010488D01*
X006393Y010486D01*
X006412Y010481D01*
X006428Y010471D01*
X006443Y010459D01*
X006455Y010444D01*
X006465Y010428D01*
X006470Y010409D01*
X006472Y010390D01*
X006470Y010371D01*
X006465Y010352D01*
X006455Y010336D01*
X006443Y010321D01*
X006428Y010309D01*
X006412Y010299D01*
X006393Y010294D01*
X006374Y010292D01*
X006355Y010294D01*
X006336Y010299D01*
X006320Y010309D01*
X006305Y010321D01*
X006293Y010336D01*
X006283Y010352D01*
X006278Y010371D01*
X006276Y010390D01*
X009669Y010370D02*
X009767Y010370D01*
X009669Y010370D02*
X009669Y010705D01*
X010752Y010370D02*
X010850Y010370D01*
X010850Y010705D01*
X011473Y010880D02*
X011473Y009620D01*
X012047Y009620D01*
X012047Y010880D01*
X011473Y010880D01*
X011473Y011120D02*
X012047Y011120D01*
X012047Y012380D01*
X011473Y012380D01*
X011473Y011120D01*
X010850Y011295D02*
X010850Y011630D01*
X010752Y011630D01*
X010752Y011728D02*
X010948Y011728D01*
X010948Y011551D01*
X009767Y011630D02*
X009669Y011630D01*
X009669Y011295D01*
X012208Y009276D02*
X012208Y008724D01*
X013311Y008724D01*
X013311Y009276D01*
X012208Y009276D01*
X015360Y010050D02*
X016160Y010050D01*
X016160Y011950D01*
X015360Y011950D01*
X015360Y010050D01*
X004639Y012213D02*
X003380Y012213D01*
X003380Y012787D01*
X004639Y012787D01*
X004639Y012213D01*
X005708Y015874D02*
X005708Y016426D01*
X006811Y016426D01*
X006811Y015874D01*
X005708Y015874D01*
D13*
X006652Y015559D02*
X006745Y015466D01*
X006699Y015358D02*
X006792Y015358D01*
X006839Y015311D01*
X006839Y015171D01*
X006932Y015171D02*
X006652Y015171D01*
X006652Y015311D01*
X006699Y015358D01*
X006652Y015559D02*
X006932Y015559D01*
X006932Y015466D02*
X006932Y015652D01*
X006885Y015016D02*
X006652Y015016D01*
X006652Y014970D02*
X006652Y015063D01*
X006885Y015016D02*
X006932Y014970D01*
X006932Y014923D01*
X006885Y014876D01*
X006511Y016520D02*
X006324Y016520D01*
X006418Y016520D02*
X006418Y016800D01*
X006324Y016707D01*
X006216Y016754D02*
X006216Y016660D01*
X006170Y016613D01*
X006030Y016613D01*
X006123Y016613D02*
X006216Y016520D01*
X006030Y016520D02*
X006030Y016800D01*
X006170Y016800D01*
X006216Y016754D01*
X004168Y013150D02*
X004168Y012870D01*
X004261Y012870D02*
X004074Y012870D01*
X003966Y012917D02*
X003920Y012870D01*
X003826Y012870D01*
X003780Y012917D01*
X003780Y013104D01*
X003826Y013150D01*
X003920Y013150D01*
X003966Y013104D01*
X004074Y013057D02*
X004168Y013150D01*
X004859Y011251D02*
X004859Y011065D01*
X004999Y011065D01*
X004953Y011158D01*
X004953Y011205D01*
X004999Y011251D01*
X005093Y011251D01*
X005140Y011205D01*
X005140Y011111D01*
X005093Y011065D01*
X005093Y010957D02*
X005140Y010910D01*
X005140Y010817D01*
X005093Y010770D01*
X004906Y010770D01*
X004859Y010817D01*
X004859Y010910D01*
X004906Y010957D01*
X003240Y010960D02*
X003240Y010867D01*
X003193Y010820D01*
X002959Y010820D01*
X002959Y011007D02*
X003193Y011007D01*
X003240Y010960D01*
X003240Y011115D02*
X003053Y011301D01*
X003006Y011301D01*
X002959Y011255D01*
X002959Y011161D01*
X003006Y011115D01*
X003240Y011115D02*
X003240Y011301D01*
X005659Y009908D02*
X005940Y009908D01*
X005940Y009815D02*
X005940Y010001D01*
X005753Y009815D02*
X005659Y009908D01*
X005659Y009707D02*
X005893Y009707D01*
X005940Y009660D01*
X005940Y009567D01*
X005893Y009520D01*
X005659Y009520D01*
X005780Y008900D02*
X005920Y008900D01*
X005966Y008854D01*
X005966Y008760D01*
X005920Y008713D01*
X005780Y008713D01*
X005873Y008713D02*
X005966Y008620D01*
X006074Y008760D02*
X006261Y008760D01*
X006214Y008620D02*
X006214Y008900D01*
X006074Y008760D01*
X005780Y008620D02*
X005780Y008900D01*
X004172Y008850D02*
X003985Y008850D01*
X004172Y009037D01*
X004172Y009084D01*
X004125Y009130D01*
X004032Y009130D01*
X003985Y009084D01*
X003877Y009084D02*
X003830Y009130D01*
X003737Y009130D01*
X003690Y009084D01*
X003690Y008897D01*
X003737Y008850D01*
X003830Y008850D01*
X003877Y008897D01*
X005530Y007900D02*
X005530Y007620D01*
X005716Y007620D01*
X005824Y007620D02*
X006011Y007620D01*
X006119Y007620D02*
X006259Y007620D01*
X006306Y007667D01*
X006306Y007854D01*
X006259Y007900D01*
X006119Y007900D01*
X006119Y007620D01*
X005918Y007760D02*
X005824Y007760D01*
X005824Y007900D02*
X005824Y007620D01*
X005824Y007900D02*
X006011Y007900D01*
X006413Y007807D02*
X006507Y007900D01*
X006507Y007620D01*
X006600Y007620D02*
X006413Y007620D01*
X007780Y007620D02*
X007966Y007620D01*
X008074Y007620D02*
X008261Y007620D01*
X008369Y007620D02*
X008509Y007620D01*
X008556Y007667D01*
X008556Y007854D01*
X008509Y007900D01*
X008369Y007900D01*
X008369Y007620D01*
X008168Y007760D02*
X008074Y007760D01*
X008074Y007900D02*
X008074Y007620D01*
X008074Y007900D02*
X008261Y007900D01*
X008663Y007854D02*
X008710Y007900D01*
X008804Y007900D01*
X008850Y007854D01*
X008850Y007807D01*
X008804Y007760D01*
X008850Y007713D01*
X008850Y007667D01*
X008804Y007620D01*
X008710Y007620D01*
X008663Y007667D01*
X008757Y007760D02*
X008804Y007760D01*
X009280Y007900D02*
X009280Y007620D01*
X009466Y007620D01*
X009574Y007620D02*
X009574Y007900D01*
X009761Y007900D01*
X009869Y007900D02*
X010009Y007900D01*
X010056Y007854D01*
X010056Y007667D01*
X010009Y007620D01*
X009869Y007620D01*
X009869Y007900D01*
X009668Y007760D02*
X009574Y007760D01*
X009574Y007620D02*
X009761Y007620D01*
X010163Y007620D02*
X010350Y007807D01*
X010350Y007854D01*
X010304Y007900D01*
X010210Y007900D01*
X010163Y007854D01*
X010163Y007620D02*
X010350Y007620D01*
X009964Y008620D02*
X009871Y008620D01*
X009824Y008667D01*
X009824Y008760D02*
X009918Y008807D01*
X009964Y008807D01*
X010011Y008760D01*
X010011Y008667D01*
X009964Y008620D01*
X009824Y008760D02*
X009824Y008900D01*
X010011Y008900D01*
X009716Y008854D02*
X009716Y008760D01*
X009670Y008713D01*
X009530Y008713D01*
X009623Y008713D02*
X009716Y008620D01*
X009530Y008620D02*
X009530Y008900D01*
X009670Y008900D01*
X009716Y008854D01*
X008511Y008900D02*
X008418Y008854D01*
X008324Y008760D01*
X008464Y008760D01*
X008511Y008713D01*
X008511Y008667D01*
X008464Y008620D01*
X008371Y008620D01*
X008324Y008667D01*
X008324Y008760D01*
X008216Y008760D02*
X008170Y008713D01*
X008030Y008713D01*
X008123Y008713D02*
X008216Y008620D01*
X008216Y008760D02*
X008216Y008854D01*
X008170Y008900D01*
X008030Y008900D01*
X008030Y008620D01*
X007780Y007900D02*
X007780Y007620D01*
X009880Y006304D02*
X009926Y006350D01*
X010020Y006350D01*
X010066Y006304D01*
X010066Y006117D01*
X010020Y006070D01*
X009926Y006070D01*
X009880Y006117D01*
X009880Y006304D01*
X009973Y006163D02*
X010066Y006070D01*
X010174Y006070D02*
X010361Y006257D01*
X010361Y006304D01*
X010314Y006350D01*
X010221Y006350D01*
X010174Y006304D01*
X010174Y006070D02*
X010361Y006070D01*
X010780Y005650D02*
X010920Y005650D01*
X010966Y005604D01*
X010966Y005510D01*
X010920Y005463D01*
X010780Y005463D01*
X010873Y005463D02*
X010966Y005370D01*
X011074Y005370D02*
X011261Y005557D01*
X011261Y005604D01*
X011214Y005650D01*
X011121Y005650D01*
X011074Y005604D01*
X011074Y005370D02*
X011261Y005370D01*
X010780Y005370D02*
X010780Y005650D01*
X012280Y006367D02*
X012326Y006320D01*
X012420Y006320D01*
X012466Y006367D01*
X012466Y006554D01*
X012420Y006600D01*
X012326Y006600D01*
X012280Y006554D01*
X012280Y006367D01*
X012373Y006413D02*
X012466Y006320D01*
X012574Y006320D02*
X012761Y006320D01*
X012668Y006320D02*
X012668Y006600D01*
X012574Y006507D01*
X014667Y006128D02*
X014733Y006194D01*
X014700Y006161D02*
X014865Y005996D01*
X014865Y005930D01*
X014832Y005897D01*
X014766Y005897D01*
X014942Y006138D02*
X015041Y006237D01*
X015041Y006303D01*
X014975Y006369D01*
X014908Y006369D01*
X014809Y006270D01*
X015008Y006072D01*
X015216Y006280D02*
X015216Y006544D01*
X015183Y006577D01*
X015117Y006577D01*
X015051Y006511D01*
X015051Y006445D01*
X015216Y006280D02*
X015348Y006412D01*
X012824Y009370D02*
X012824Y009417D01*
X013011Y009604D01*
X013011Y009650D01*
X012824Y009650D01*
X012716Y009604D02*
X012716Y009510D01*
X012670Y009463D01*
X012530Y009463D01*
X012623Y009463D02*
X012716Y009370D01*
X012530Y009370D02*
X012530Y009650D01*
X012670Y009650D01*
X012716Y009604D01*
X011390Y010017D02*
X011390Y010110D01*
X011343Y010157D01*
X011343Y010265D02*
X011390Y010311D01*
X011390Y010405D01*
X011343Y010451D01*
X011296Y010451D01*
X011249Y010405D01*
X011249Y010358D01*
X011249Y010405D02*
X011203Y010451D01*
X011156Y010451D01*
X011109Y010405D01*
X011109Y010311D01*
X011156Y010265D01*
X011156Y010157D02*
X011109Y010110D01*
X011109Y010017D01*
X011156Y009970D01*
X011343Y009970D01*
X011390Y010017D01*
X009490Y010817D02*
X009490Y010910D01*
X009443Y010957D01*
X009209Y010957D01*
X009256Y011065D02*
X009209Y011111D01*
X009209Y011205D01*
X009256Y011251D01*
X009303Y011251D01*
X009349Y011205D01*
X009396Y011251D01*
X009443Y011251D01*
X009490Y011205D01*
X009490Y011111D01*
X009443Y011065D01*
X009349Y011158D02*
X009349Y011205D01*
X009490Y010817D02*
X009443Y010770D01*
X009209Y010770D01*
X011109Y011567D02*
X011156Y011520D01*
X011343Y011520D01*
X011390Y011567D01*
X011390Y011660D01*
X011343Y011707D01*
X011249Y011815D02*
X011249Y012001D01*
X011109Y011955D02*
X011249Y011815D01*
X011156Y011707D02*
X011109Y011660D01*
X011109Y011567D01*
X011109Y011955D02*
X011390Y011955D01*
X013280Y011554D02*
X013326Y011600D01*
X013420Y011600D01*
X013466Y011554D01*
X013466Y011367D01*
X013420Y011320D01*
X013326Y011320D01*
X013280Y011367D01*
X013280Y011554D01*
X013373Y011413D02*
X013466Y011320D01*
X013574Y011367D02*
X013621Y011320D01*
X013714Y011320D01*
X013761Y011367D01*
X013761Y011413D01*
X013714Y011460D01*
X013668Y011460D01*
X013714Y011460D02*
X013761Y011507D01*
X013761Y011554D01*
X013714Y011600D01*
X013621Y011600D01*
X013574Y011554D01*
X016279Y011069D02*
X016560Y011069D01*
X016560Y011162D02*
X016560Y010975D01*
X016513Y010868D02*
X016326Y010868D01*
X016279Y010821D01*
X016279Y010681D01*
X016560Y010681D01*
X016560Y010821D01*
X016513Y010868D01*
X016373Y010975D02*
X016279Y011069D01*
X014913Y014636D02*
X014960Y014683D01*
X014960Y014729D01*
X014913Y014776D01*
X014679Y014776D01*
X014679Y014729D02*
X014679Y014823D01*
X014679Y014931D02*
X014679Y015071D01*
X014726Y015118D01*
X014819Y015118D01*
X014866Y015071D01*
X014866Y014931D01*
X014960Y014931D02*
X014679Y014931D01*
X014726Y015225D02*
X014679Y015272D01*
X014679Y015365D01*
X014726Y015412D01*
X014773Y015412D01*
X014819Y015365D01*
X014866Y015412D01*
X014913Y015412D01*
X014960Y015365D01*
X014960Y015272D01*
X014913Y015225D01*
X014819Y015319D02*
X014819Y015365D01*
X004953Y007200D02*
X004953Y007013D01*
X004860Y006920D01*
X004766Y007013D01*
X004766Y007200D01*
X004658Y007154D02*
X004658Y007107D01*
X004612Y007060D01*
X004658Y007013D01*
X004658Y006967D01*
X004612Y006920D01*
X004518Y006920D01*
X004471Y006967D01*
X004371Y006967D02*
X004371Y006920D01*
X004324Y006920D01*
X004324Y006967D01*
X004371Y006967D01*
X004216Y006967D02*
X004170Y006920D01*
X004076Y006920D01*
X004030Y006967D01*
X004123Y007060D02*
X004170Y007060D01*
X004216Y007013D01*
X004216Y006967D01*
X004170Y007060D02*
X004216Y007107D01*
X004216Y007154D01*
X004170Y007200D01*
X004076Y007200D01*
X004030Y007154D01*
X004471Y007154D02*
X004518Y007200D01*
X004612Y007200D01*
X004658Y007154D01*
X004612Y007060D02*
X004565Y007060D01*
X007780Y005650D02*
X007920Y005650D01*
X007966Y005604D01*
X007966Y005510D01*
X007920Y005463D01*
X007780Y005463D01*
X007873Y005463D02*
X007966Y005370D01*
X008074Y005417D02*
X008121Y005370D01*
X008214Y005370D01*
X008261Y005417D01*
X008261Y005463D01*
X008214Y005510D01*
X008168Y005510D01*
X008214Y005510D02*
X008261Y005557D01*
X008261Y005604D01*
X008214Y005650D01*
X008121Y005650D01*
X008074Y005604D01*
X007780Y005650D02*
X007780Y005370D01*
D14*
X008309Y007250D03*
X009809Y007250D03*
X006059Y007250D03*
D15*
X012772Y006817D02*
X012981Y007026D01*
X012772Y006817D02*
X013231Y006358D01*
X014373Y006052D02*
X015208Y006887D01*
X014901Y008028D02*
X014442Y008488D01*
X014233Y008279D01*
X015500Y010720D02*
X015500Y011280D01*
X016020Y011280D01*
X016020Y010720D01*
D16*
X015760Y011257D03*
D17*
X012674Y007138D02*
X012676Y007152D01*
X012682Y007166D01*
X012690Y007178D01*
X012702Y007186D01*
X012716Y007192D01*
X012730Y007194D01*
X012744Y007192D01*
X012758Y007186D01*
X012770Y007178D01*
X012778Y007166D01*
X012784Y007152D01*
X012786Y007138D01*
X012784Y007124D01*
X012778Y007110D01*
X012770Y007098D01*
X012758Y007090D01*
X012744Y007084D01*
X012730Y007082D01*
X012716Y007084D01*
X012702Y007090D01*
X012690Y007098D01*
X012682Y007110D01*
X012676Y007124D01*
X012674Y007138D01*
D18*
X012760Y014758D02*
X013010Y014758D01*
X013010Y015742D01*
X012760Y015742D01*
X012210Y015742D02*
X011810Y015742D01*
X011210Y015742D02*
X010810Y015742D01*
X010210Y015742D02*
X009810Y015742D01*
X009210Y015742D02*
X008810Y015742D01*
X008210Y015742D02*
X007810Y015742D01*
X007260Y015742D02*
X007010Y015742D01*
X007010Y014758D01*
X007260Y014758D01*
X007810Y014758D02*
X008210Y014758D01*
X008810Y014758D02*
X009210Y014758D01*
X009810Y014758D02*
X010210Y014758D01*
X010810Y014758D02*
X011210Y014758D01*
X011810Y014758D02*
X012210Y014758D01*
M02*
