%
M48
M72
T01C0.0130
T02C0.0354
T03C0.0360
%
T01
X6510Y5750
X6010Y7000
X8510Y7000
X10010Y7000
X10010Y5750
X10760Y5750
X13010Y5750
X14260Y7750
X10760Y9250
X11010Y9750
X13760Y9500
X11260Y11500
X7510Y10500
X5010Y10000
X6760Y8500
X5260Y12000
X4260Y13250
X7010Y14250
X9510Y13750
T02
X14760Y12280
X14760Y9720
T03
X14010Y14750
X14010Y15750
M30
