G75*
%MOIN*%
%OFA0B0*%
%FSLAX24Y24*%
%IPPOS*%
%LPD*%
%AMOC8*
5,1,8,0,0,1.08239X$1,22.5*
%
%ADD10C,0.0080*%
%ADD11R,0.0157X0.0551*%
%ADD12R,0.0118X0.0472*%
%ADD13R,0.0472X0.0118*%
%ADD14C,0.0700*%
%ADD15R,0.0315X0.0315*%
%ADD16R,0.0315X0.0354*%
%ADD17R,0.0433X0.0394*%
%ADD18R,0.0630X0.0512*%
%ADD19R,0.0394X0.0551*%
%ADD20R,0.0217X0.0472*%
%ADD21R,0.0394X0.0433*%
%ADD22R,0.0472X0.0787*%
%ADD23R,0.0236X0.0531*%
%ADD24R,0.0402X0.2362*%
%ADD25C,0.0540*%
%ADD26C,0.1000*%
%ADD27C,0.0240*%
%ADD28C,0.0270*%
%ADD29C,0.0200*%
%ADD30C,0.0160*%
%ADD31C,0.0120*%
%ADD32C,0.0100*%
D10*
X007037Y004490D02*
X007993Y004133D01*
X008991Y003916D01*
X010010Y003843D01*
X011028Y003916D01*
X012026Y004133D01*
X012526Y004320D01*
X009935Y004320D01*
X009830Y004425D01*
X009704Y004551D01*
X009704Y004671D01*
X009637Y004671D01*
X009567Y004742D01*
X009567Y005392D01*
X009637Y005463D01*
X010025Y005463D01*
X010080Y005517D01*
X010080Y005569D01*
X010043Y005606D01*
X010005Y005699D01*
X010005Y005801D01*
X010043Y005894D01*
X010115Y005966D01*
X010209Y006005D01*
X010310Y006005D01*
X010404Y005966D01*
X010476Y005894D01*
X010515Y005801D01*
X010515Y005699D01*
X010476Y005606D01*
X010440Y005569D01*
X010440Y005368D01*
X010334Y005263D01*
X010200Y005129D01*
X010200Y004742D01*
X010139Y004680D01*
X011880Y004680D01*
X011819Y004742D01*
X011819Y004867D01*
X011602Y004867D01*
X011602Y004773D01*
X011532Y004703D01*
X011117Y004703D01*
X011047Y004773D01*
X011047Y005227D01*
X010991Y005227D01*
X010972Y005208D02*
X011440Y005675D01*
X011440Y005819D01*
X011476Y005856D01*
X011515Y005949D01*
X011515Y006051D01*
X011476Y006144D01*
X011404Y006216D01*
X011310Y006255D01*
X011209Y006255D01*
X011115Y006216D01*
X011043Y006144D01*
X011005Y006051D01*
X011005Y005949D01*
X011043Y005856D01*
X011077Y005822D01*
X010685Y005430D01*
X010580Y005325D01*
X010580Y005297D01*
X010487Y005297D01*
X010417Y005227D01*
X010417Y004773D01*
X010487Y004703D01*
X010902Y004703D01*
X010972Y004773D01*
X010972Y005208D01*
X010972Y005149D02*
X011047Y005149D01*
X011047Y005227D02*
X011117Y005297D01*
X011532Y005297D01*
X011562Y005267D01*
X011819Y005267D01*
X011819Y005392D01*
X011889Y005463D01*
X012382Y005463D01*
X012452Y005392D01*
X012452Y004742D01*
X012391Y004680D01*
X012435Y004680D01*
X012567Y004812D01*
X012567Y005392D01*
X012637Y005463D01*
X013130Y005463D01*
X013200Y005392D01*
X013200Y004742D01*
X013130Y004671D01*
X012935Y004671D01*
X012690Y004425D01*
X012690Y004425D01*
X012618Y004354D01*
X012982Y004490D01*
X013879Y004979D01*
X014696Y005591D01*
X015418Y006313D01*
X016030Y007131D01*
X016519Y008027D01*
X016876Y008984D01*
X017093Y009982D01*
X017093Y009982D01*
X017166Y011000D01*
X017093Y012018D01*
X016876Y013016D01*
X016519Y013973D01*
X016030Y014869D01*
X015418Y015687D01*
X014696Y016409D01*
X014696Y016409D01*
X013879Y017021D01*
X012982Y017510D01*
X012026Y017867D01*
X011028Y018084D01*
X010010Y018157D01*
X008991Y018084D01*
X007993Y017867D01*
X007037Y017510D01*
X006140Y017021D01*
X005323Y016409D01*
X004601Y015687D01*
X003989Y014869D01*
X003500Y013973D01*
X003143Y013016D01*
X002926Y012018D01*
X002853Y011000D01*
X002926Y009982D01*
X003143Y008984D01*
X003500Y008027D01*
X003989Y007131D01*
X004601Y006313D01*
X005323Y005591D01*
X006140Y004979D01*
X007037Y004490D01*
X006981Y004521D02*
X009734Y004521D01*
X009704Y004599D02*
X006837Y004599D01*
X006693Y004678D02*
X008883Y004678D01*
X008889Y004671D02*
X009382Y004671D01*
X009452Y004742D01*
X009452Y005392D01*
X009382Y005463D01*
X008889Y005463D01*
X008819Y005392D01*
X008819Y005200D01*
X008602Y005200D01*
X008602Y005227D01*
X008532Y005297D01*
X008117Y005297D01*
X008047Y005227D01*
X007972Y005227D01*
X007902Y005297D01*
X007652Y005297D01*
X007075Y005874D01*
X007075Y006680D01*
X007330Y006425D01*
X007435Y006320D01*
X009079Y006320D01*
X009115Y006284D01*
X009193Y006252D01*
X009193Y005608D01*
X009263Y005537D01*
X009756Y005537D01*
X009826Y005608D01*
X009826Y006062D01*
X009834Y006070D01*
X010584Y006070D01*
X012584Y008070D01*
X013213Y008070D01*
X013257Y008026D01*
X013257Y008002D01*
X013216Y008002D01*
X013144Y007930D01*
X012685Y007930D01*
X012580Y007825D01*
X012330Y007575D01*
X012330Y006329D01*
X012263Y006329D01*
X012193Y006258D01*
X012193Y005608D01*
X012263Y005537D01*
X012756Y005537D01*
X012826Y005608D01*
X012826Y006258D01*
X012756Y006329D01*
X012690Y006329D01*
X012690Y007385D01*
X012690Y007383D01*
X012708Y007351D01*
X012896Y007163D01*
X013065Y007332D01*
X013092Y007305D01*
X013119Y007332D01*
X013392Y007059D01*
X013475Y007142D01*
X013494Y007174D01*
X013503Y007210D01*
X013503Y007219D01*
X013524Y007219D01*
X013762Y007457D01*
X013762Y007498D01*
X013803Y007498D01*
X014040Y007735D01*
X014040Y007776D01*
X014081Y007776D01*
X014255Y007949D01*
X014293Y007856D01*
X014365Y007784D01*
X014459Y007745D01*
X014560Y007745D01*
X014654Y007784D01*
X014726Y007856D01*
X014765Y007949D01*
X014765Y008051D01*
X014726Y008144D01*
X014654Y008216D01*
X014560Y008255D01*
X014509Y008255D01*
X014416Y008348D01*
X014084Y008348D01*
X013872Y008559D01*
X013773Y008559D01*
X013536Y008322D01*
X013536Y008281D01*
X013512Y008281D01*
X013468Y008325D01*
X013362Y008430D01*
X012435Y008430D01*
X012330Y008325D01*
X010435Y006430D01*
X009685Y006430D01*
X009584Y006329D01*
X009449Y006329D01*
X009476Y006356D01*
X009515Y006449D01*
X009515Y006551D01*
X009486Y006620D01*
X009537Y006620D01*
X009543Y006606D01*
X009615Y006534D01*
X009709Y006495D01*
X009810Y006495D01*
X009904Y006534D01*
X009976Y006606D01*
X010015Y006699D01*
X010015Y006750D01*
X010235Y006971D01*
X010235Y006973D01*
X010262Y006973D01*
X010332Y007043D01*
X010332Y007457D01*
X010262Y007527D01*
X009848Y007527D01*
X009777Y007457D01*
X009777Y007043D01*
X009788Y007033D01*
X009760Y007005D01*
X009709Y007005D01*
X009700Y007002D01*
X009742Y007043D01*
X009742Y007457D01*
X009671Y007527D01*
X009644Y007527D01*
X009644Y007570D01*
X010084Y007570D01*
X010190Y007675D01*
X010254Y007740D01*
X010254Y007953D01*
X010282Y007953D01*
X010352Y008023D01*
X010352Y008477D01*
X010282Y008547D01*
X009867Y008547D01*
X009797Y008477D01*
X009797Y008023D01*
X009867Y007953D01*
X009894Y007953D01*
X009894Y007930D01*
X009435Y007930D01*
X009390Y007885D01*
X009284Y007779D01*
X009284Y007527D01*
X009257Y007527D01*
X009187Y007457D01*
X009187Y007043D01*
X009250Y006980D01*
X009079Y006980D01*
X008832Y007227D01*
X008832Y007457D01*
X008762Y007527D01*
X008348Y007527D01*
X008277Y007457D01*
X008277Y007043D01*
X008348Y006973D01*
X008578Y006973D01*
X008825Y006725D01*
X008870Y006680D01*
X007584Y006680D01*
X007331Y006933D01*
X007331Y009443D01*
X007483Y009443D01*
X007483Y009272D01*
X008297Y008458D01*
X008297Y008023D01*
X008367Y007953D01*
X008782Y007953D01*
X008852Y008023D01*
X008852Y008477D01*
X008782Y008547D01*
X008690Y008547D01*
X008690Y008575D01*
X008444Y008820D01*
X008935Y008820D01*
X009223Y008532D01*
X009167Y008477D01*
X009167Y008023D01*
X009237Y007953D01*
X009652Y007953D01*
X009722Y008023D01*
X009722Y008477D01*
X009652Y008547D01*
X009625Y008547D01*
X009625Y008640D01*
X009190Y009075D01*
X009084Y009180D01*
X008384Y009180D01*
X008099Y009465D01*
X008099Y009495D01*
X008118Y009513D01*
X008118Y010120D01*
X008885Y010120D01*
X010935Y008070D01*
X011834Y008070D01*
X012467Y008703D01*
X012652Y008703D01*
X012722Y008773D01*
X012722Y009227D01*
X012652Y009297D01*
X012237Y009297D01*
X012167Y009227D01*
X012167Y008912D01*
X011685Y008430D01*
X011084Y008430D01*
X009184Y010330D01*
X009687Y010330D01*
X009687Y010104D01*
X009757Y010034D01*
X010090Y010034D01*
X010090Y009680D01*
X011005Y008765D01*
X011005Y008699D01*
X011043Y008606D01*
X011115Y008534D01*
X011209Y008495D01*
X011310Y008495D01*
X011404Y008534D01*
X011476Y008606D01*
X011515Y008699D01*
X011515Y008801D01*
X011476Y008894D01*
X011404Y008966D01*
X011310Y009005D01*
X011245Y009005D01*
X010670Y009580D01*
X011512Y009580D01*
X011513Y009579D01*
X011560Y009579D01*
X011560Y009411D01*
X011543Y009394D01*
X011505Y009301D01*
X011505Y009199D01*
X011543Y009106D01*
X011615Y009034D01*
X011709Y008995D01*
X011810Y008995D01*
X011904Y009034D01*
X011976Y009106D01*
X012015Y009199D01*
X012015Y009301D01*
X011976Y009394D01*
X011960Y009411D01*
X011960Y009579D01*
X012006Y009579D01*
X012076Y009649D01*
X012076Y010182D01*
X012017Y010241D01*
X012042Y010256D01*
X012068Y010282D01*
X012087Y010314D01*
X012096Y010350D01*
X012096Y010545D01*
X011800Y010545D01*
X011800Y010625D01*
X012096Y010625D01*
X012096Y010820D01*
X012087Y010855D01*
X012068Y010887D01*
X012042Y010913D01*
X012010Y010932D01*
X011975Y010941D01*
X011800Y010941D01*
X011800Y010625D01*
X011720Y010625D01*
X011720Y010941D01*
X011544Y010941D01*
X011509Y010932D01*
X011477Y010913D01*
X011451Y010887D01*
X011432Y010855D01*
X011423Y010820D01*
X011423Y010625D01*
X011720Y010625D01*
X011720Y010545D01*
X011423Y010545D01*
X011423Y010350D01*
X011432Y010314D01*
X011451Y010282D01*
X011477Y010256D01*
X011502Y010241D01*
X011443Y010182D01*
X011443Y009920D01*
X010630Y009920D01*
X010626Y009924D01*
X010626Y010034D01*
X010762Y010034D01*
X010832Y010104D01*
X010832Y010314D01*
X010833Y010315D01*
X010833Y010464D01*
X010832Y010465D01*
X010832Y010604D01*
X010840Y010604D01*
X010840Y010803D01*
X010464Y010803D01*
X010464Y010746D01*
X010035Y010746D01*
X010035Y011254D01*
X010484Y011254D01*
X010484Y010934D01*
X010474Y010916D01*
X010464Y010881D01*
X010464Y010803D01*
X010840Y010803D01*
X010840Y010803D01*
X010840Y010803D01*
X010840Y010604D01*
X011095Y010604D01*
X011130Y010614D01*
X011162Y010632D01*
X011188Y010658D01*
X011207Y010690D01*
X011216Y010726D01*
X011216Y010803D01*
X010840Y010803D01*
X010840Y010803D01*
X011216Y010803D01*
X011216Y010881D01*
X011207Y010916D01*
X011196Y010934D01*
X011196Y011030D01*
X011210Y011030D01*
X011280Y011030D01*
X011281Y011031D01*
X011330Y011080D01*
X011424Y011174D01*
X011432Y011145D01*
X011451Y011113D01*
X011477Y011087D01*
X011509Y011068D01*
X011544Y011059D01*
X011720Y011059D01*
X011720Y011375D01*
X011800Y011375D01*
X011800Y011455D01*
X012096Y011455D01*
X012096Y011650D01*
X012087Y011686D01*
X012068Y011718D01*
X012042Y011744D01*
X012017Y011759D01*
X012076Y011818D01*
X012076Y012351D01*
X012006Y012421D01*
X011513Y012421D01*
X011496Y012404D01*
X011515Y012449D01*
X011515Y012551D01*
X011476Y012644D01*
X011404Y012716D01*
X011310Y012755D01*
X011209Y012755D01*
X011115Y012716D01*
X011043Y012644D01*
X011005Y012551D01*
X011005Y012449D01*
X008118Y012449D01*
X008118Y012420D02*
X008118Y012487D01*
X008047Y012557D01*
X007075Y012557D01*
X007075Y012561D01*
X007334Y012820D01*
X011084Y012820D01*
X011584Y013320D01*
X011690Y013425D01*
X011690Y013949D01*
X011760Y013949D01*
X011830Y014019D01*
X012189Y014019D01*
X012259Y013949D01*
X012760Y013949D01*
X012830Y014019D01*
X015520Y014019D01*
X015520Y013941D02*
X011690Y013941D01*
X011690Y013862D02*
X015520Y013862D01*
X015520Y013784D02*
X011690Y013784D01*
X011690Y013705D02*
X015520Y013705D01*
X015520Y013627D02*
X011690Y013627D01*
X011690Y013548D02*
X015520Y013548D01*
X015520Y013470D02*
X011690Y013470D01*
X011655Y013391D02*
X015520Y013391D01*
X015520Y013313D02*
X011577Y013313D01*
X011498Y013234D02*
X015520Y013234D01*
X015520Y013156D02*
X011420Y013156D01*
X011341Y013077D02*
X015520Y013077D01*
X015520Y012999D02*
X011263Y012999D01*
X011184Y012920D02*
X015520Y012920D01*
X015520Y012842D02*
X011106Y012842D01*
X011083Y012685D02*
X007199Y012685D01*
X007277Y012763D02*
X015520Y012763D01*
X015520Y012685D02*
X015010Y012685D01*
X015026Y012678D02*
X014853Y012750D01*
X014666Y012750D01*
X014493Y012678D01*
X014361Y012546D01*
X014290Y012373D01*
X014290Y012186D01*
X014361Y012013D01*
X014493Y011881D01*
X014666Y011810D01*
X014853Y011810D01*
X015026Y011881D01*
X015158Y012013D01*
X015169Y012040D01*
X015520Y012040D01*
X015520Y011966D01*
X015395Y011966D01*
X015325Y011896D01*
X015325Y011285D01*
X015395Y011215D01*
X016124Y011215D01*
X016194Y011285D01*
X016194Y011896D01*
X016124Y011966D01*
X016000Y011966D01*
X016000Y014298D01*
X015963Y014386D01*
X015895Y014453D01*
X014670Y015679D01*
X014670Y015828D01*
X014610Y015971D01*
X014500Y016081D01*
X014357Y016140D01*
X014209Y016140D01*
X013145Y017203D01*
X013057Y017240D01*
X009596Y017240D01*
X009560Y017255D01*
X009459Y017255D01*
X009365Y017216D01*
X009293Y017144D01*
X009255Y017051D01*
X009255Y016949D01*
X009293Y016856D01*
X009365Y016784D01*
X009459Y016745D01*
X009560Y016745D01*
X009596Y016760D01*
X012910Y016760D01*
X013569Y016101D01*
X013519Y016081D01*
X013409Y015971D01*
X013350Y015828D01*
X013350Y015672D01*
X013409Y015529D01*
X013519Y015419D01*
X013662Y015360D01*
X014310Y015360D01*
X015520Y014151D01*
X015520Y012520D01*
X015169Y012520D01*
X015158Y012546D01*
X015026Y012678D01*
X015098Y012606D02*
X015520Y012606D01*
X015520Y012528D02*
X015166Y012528D01*
X014509Y012685D02*
X011436Y012685D01*
X011492Y012606D02*
X014421Y012606D01*
X014354Y012528D02*
X011515Y012528D01*
X011514Y012449D02*
X014321Y012449D01*
X014290Y012371D02*
X012057Y012371D01*
X012076Y012292D02*
X014290Y012292D01*
X014290Y012214D02*
X012076Y012214D01*
X012076Y012135D02*
X014311Y012135D01*
X014343Y012057D02*
X012076Y012057D01*
X012076Y011978D02*
X014396Y011978D01*
X014475Y011900D02*
X012076Y011900D01*
X012076Y011821D02*
X014638Y011821D01*
X014881Y011821D02*
X015325Y011821D01*
X015325Y011743D02*
X012044Y011743D01*
X012093Y011664D02*
X015325Y011664D01*
X015325Y011586D02*
X012096Y011586D01*
X012096Y011507D02*
X015325Y011507D01*
X015325Y011429D02*
X011800Y011429D01*
X011800Y011375D02*
X012096Y011375D01*
X012096Y011180D01*
X012087Y011145D01*
X012068Y011113D01*
X012042Y011087D01*
X012010Y011068D01*
X011975Y011059D01*
X011800Y011059D01*
X011800Y011375D01*
X011800Y011350D02*
X011720Y011350D01*
X011720Y011272D02*
X011800Y011272D01*
X011800Y011193D02*
X011720Y011193D01*
X011720Y011115D02*
X011800Y011115D01*
X011800Y010879D02*
X011720Y010879D01*
X011720Y010801D02*
X011800Y010801D01*
X011800Y010722D02*
X011720Y010722D01*
X011720Y010644D02*
X011800Y010644D01*
X011800Y010565D02*
X013235Y010565D01*
X013263Y010537D02*
X013756Y010537D01*
X013826Y010608D01*
X013826Y010693D01*
X014227Y010693D01*
X014520Y010401D01*
X014520Y010130D01*
X014493Y010119D01*
X014361Y009987D01*
X014290Y009814D01*
X014290Y009627D01*
X014361Y009454D01*
X014493Y009322D01*
X014666Y009250D01*
X014853Y009250D01*
X015026Y009322D01*
X015158Y009454D01*
X015230Y009627D01*
X015230Y009814D01*
X015158Y009987D01*
X015026Y010119D01*
X015000Y010130D01*
X015000Y010169D01*
X015325Y010169D01*
X015325Y010104D01*
X015395Y010034D01*
X016124Y010034D01*
X016194Y010104D01*
X016194Y010715D01*
X016124Y010785D01*
X015395Y010785D01*
X015325Y010715D01*
X015325Y010649D01*
X014949Y010649D01*
X014895Y010703D01*
X014462Y011137D01*
X014374Y011173D01*
X013826Y011173D01*
X013826Y011258D01*
X013756Y011329D01*
X013263Y011329D01*
X013193Y011258D01*
X013193Y010608D01*
X013263Y010537D01*
X013193Y010644D02*
X012096Y010644D01*
X012096Y010722D02*
X013193Y010722D01*
X013193Y010801D02*
X012096Y010801D01*
X012073Y010879D02*
X013193Y010879D01*
X013193Y010958D02*
X011196Y010958D01*
X011216Y010879D02*
X011446Y010879D01*
X011423Y010801D02*
X011216Y010801D01*
X011215Y010722D02*
X011423Y010722D01*
X011423Y010644D02*
X011174Y010644D01*
X011423Y010487D02*
X010832Y010487D01*
X010832Y010565D02*
X011720Y010565D01*
X011423Y010408D02*
X010833Y010408D01*
X010833Y010330D02*
X011428Y010330D01*
X011485Y010251D02*
X010832Y010251D01*
X010832Y010173D02*
X011443Y010173D01*
X011443Y010094D02*
X010822Y010094D01*
X010626Y010016D02*
X011443Y010016D01*
X011443Y009937D02*
X010626Y009937D01*
X010090Y009937D02*
X009577Y009937D01*
X009499Y010016D02*
X010090Y010016D01*
X010090Y009859D02*
X009656Y009859D01*
X009734Y009780D02*
X010090Y009780D01*
X010090Y009702D02*
X009813Y009702D01*
X009891Y009623D02*
X010146Y009623D01*
X010225Y009545D02*
X009970Y009545D01*
X010048Y009466D02*
X010303Y009466D01*
X010382Y009388D02*
X010127Y009388D01*
X010205Y009309D02*
X010460Y009309D01*
X010539Y009231D02*
X010284Y009231D01*
X010362Y009152D02*
X010617Y009152D01*
X010696Y009074D02*
X010441Y009074D01*
X010519Y008995D02*
X010774Y008995D01*
X010853Y008917D02*
X010598Y008917D01*
X010676Y008838D02*
X010931Y008838D01*
X011005Y008760D02*
X010755Y008760D01*
X010833Y008681D02*
X011012Y008681D01*
X011046Y008603D02*
X010912Y008603D01*
X010990Y008524D02*
X011139Y008524D01*
X011069Y008446D02*
X011700Y008446D01*
X011779Y008524D02*
X011380Y008524D01*
X011473Y008603D02*
X011857Y008603D01*
X011936Y008681D02*
X011507Y008681D01*
X011515Y008760D02*
X012014Y008760D01*
X012093Y008838D02*
X011499Y008838D01*
X011454Y008917D02*
X012167Y008917D01*
X012167Y008995D02*
X011810Y008995D01*
X011709Y008995D02*
X011334Y008995D01*
X011176Y009074D02*
X011575Y009074D01*
X011524Y009152D02*
X011098Y009152D01*
X011019Y009231D02*
X011505Y009231D01*
X011508Y009309D02*
X010941Y009309D01*
X010862Y009388D02*
X011540Y009388D01*
X011560Y009466D02*
X010784Y009466D01*
X010705Y009545D02*
X011560Y009545D01*
X011960Y009545D02*
X012874Y009545D01*
X012874Y009623D02*
X012050Y009623D01*
X012076Y009702D02*
X012859Y009702D01*
X012874Y009686D02*
X012874Y009297D01*
X012867Y009297D01*
X012797Y009227D01*
X012797Y008773D01*
X012867Y008703D01*
X013282Y008703D01*
X013352Y008773D01*
X013352Y009227D01*
X013282Y009297D01*
X013274Y009297D01*
X013274Y009671D01*
X013382Y009671D01*
X013452Y009742D01*
X013452Y010392D01*
X013382Y010463D01*
X012889Y010463D01*
X012819Y010392D01*
X012819Y009742D01*
X012874Y009686D01*
X012819Y009780D02*
X012076Y009780D01*
X012076Y009859D02*
X012819Y009859D01*
X012819Y009937D02*
X012076Y009937D01*
X012076Y010016D02*
X012819Y010016D01*
X012819Y010094D02*
X012076Y010094D01*
X012076Y010173D02*
X012819Y010173D01*
X012819Y010251D02*
X012034Y010251D01*
X012091Y010330D02*
X012819Y010330D01*
X012834Y010408D02*
X012096Y010408D01*
X012096Y010487D02*
X014434Y010487D01*
X014355Y010565D02*
X013784Y010565D01*
X013826Y010644D02*
X014277Y010644D01*
X014130Y010463D02*
X013637Y010463D01*
X013567Y010392D01*
X013567Y009742D01*
X013637Y009671D01*
X013644Y009671D01*
X013644Y009478D01*
X013615Y009466D01*
X013274Y009466D01*
X013274Y009388D02*
X013540Y009388D01*
X013543Y009394D02*
X013505Y009301D01*
X013505Y009199D01*
X013543Y009106D01*
X013615Y009034D01*
X013709Y008995D01*
X013810Y008995D01*
X013904Y009034D01*
X013976Y009106D01*
X013991Y009142D01*
X014087Y009238D01*
X014124Y009326D01*
X014124Y009671D01*
X014130Y009671D01*
X014200Y009742D01*
X014200Y010392D01*
X014130Y010463D01*
X014185Y010408D02*
X014512Y010408D01*
X014520Y010330D02*
X014200Y010330D01*
X014200Y010251D02*
X014520Y010251D01*
X014520Y010173D02*
X014200Y010173D01*
X014200Y010094D02*
X014468Y010094D01*
X014390Y010016D02*
X014200Y010016D01*
X014200Y009937D02*
X014340Y009937D01*
X014308Y009859D02*
X014200Y009859D01*
X014200Y009780D02*
X014290Y009780D01*
X014290Y009702D02*
X014160Y009702D01*
X014124Y009623D02*
X014291Y009623D01*
X014324Y009545D02*
X014124Y009545D01*
X014124Y009466D02*
X014356Y009466D01*
X014428Y009388D02*
X014124Y009388D01*
X014116Y009309D02*
X014525Y009309D01*
X014079Y009231D02*
X016930Y009231D01*
X016947Y009309D02*
X014994Y009309D01*
X015091Y009388D02*
X016964Y009388D01*
X016981Y009466D02*
X015163Y009466D01*
X015195Y009545D02*
X016998Y009545D01*
X017015Y009623D02*
X015228Y009623D01*
X015230Y009702D02*
X017032Y009702D01*
X017049Y009780D02*
X015230Y009780D01*
X015211Y009859D02*
X017067Y009859D01*
X017084Y009937D02*
X015179Y009937D01*
X015129Y010016D02*
X017096Y010016D01*
X017101Y010094D02*
X016185Y010094D01*
X016194Y010173D02*
X017107Y010173D01*
X017113Y010251D02*
X016194Y010251D01*
X016194Y010330D02*
X017118Y010330D01*
X017124Y010408D02*
X016194Y010408D01*
X016194Y010487D02*
X017129Y010487D01*
X017135Y010565D02*
X016194Y010565D01*
X016194Y010644D02*
X017141Y010644D01*
X017146Y010722D02*
X016188Y010722D01*
X016181Y011272D02*
X017147Y011272D01*
X017141Y011350D02*
X016194Y011350D01*
X016194Y011429D02*
X017136Y011429D01*
X017130Y011507D02*
X016194Y011507D01*
X016194Y011586D02*
X017124Y011586D01*
X017119Y011664D02*
X016194Y011664D01*
X016194Y011743D02*
X017113Y011743D01*
X017107Y011821D02*
X016194Y011821D01*
X016191Y011900D02*
X017102Y011900D01*
X017096Y011978D02*
X016000Y011978D01*
X016000Y012057D02*
X017085Y012057D01*
X017068Y012135D02*
X016000Y012135D01*
X016000Y012214D02*
X017051Y012214D01*
X017034Y012292D02*
X016000Y012292D01*
X016000Y012371D02*
X017017Y012371D01*
X017000Y012449D02*
X016000Y012449D01*
X016000Y012528D02*
X016983Y012528D01*
X016966Y012606D02*
X016000Y012606D01*
X016000Y012685D02*
X016948Y012685D01*
X016931Y012763D02*
X016000Y012763D01*
X016000Y012842D02*
X016914Y012842D01*
X016897Y012920D02*
X016000Y012920D01*
X016000Y012999D02*
X016880Y012999D01*
X016854Y013077D02*
X016000Y013077D01*
X016000Y013156D02*
X016824Y013156D01*
X016795Y013234D02*
X016000Y013234D01*
X016000Y013313D02*
X016766Y013313D01*
X016736Y013391D02*
X016000Y013391D01*
X016000Y013470D02*
X016707Y013470D01*
X016678Y013548D02*
X016000Y013548D01*
X016000Y013627D02*
X016649Y013627D01*
X016619Y013705D02*
X016000Y013705D01*
X016000Y013784D02*
X016590Y013784D01*
X016561Y013862D02*
X016000Y013862D01*
X016000Y013941D02*
X016532Y013941D01*
X016494Y014019D02*
X016000Y014019D01*
X016000Y014098D02*
X016451Y014098D01*
X016409Y014176D02*
X016000Y014176D01*
X016000Y014255D02*
X016366Y014255D01*
X016323Y014333D02*
X015985Y014333D01*
X015937Y014412D02*
X016280Y014412D01*
X016237Y014490D02*
X015859Y014490D01*
X015780Y014569D02*
X016194Y014569D01*
X016151Y014647D02*
X015702Y014647D01*
X015623Y014726D02*
X016108Y014726D01*
X016066Y014804D02*
X015545Y014804D01*
X015466Y014883D02*
X016020Y014883D01*
X015961Y014961D02*
X015388Y014961D01*
X015309Y015040D02*
X015903Y015040D01*
X015844Y015118D02*
X015231Y015118D01*
X015152Y015197D02*
X015785Y015197D01*
X015726Y015275D02*
X015074Y015275D01*
X014995Y015354D02*
X015667Y015354D01*
X015609Y015432D02*
X014917Y015432D01*
X014838Y015511D02*
X015550Y015511D01*
X015491Y015589D02*
X014760Y015589D01*
X014681Y015668D02*
X015432Y015668D01*
X015359Y015746D02*
X014670Y015746D01*
X014670Y015825D02*
X015280Y015825D01*
X015202Y015903D02*
X014638Y015903D01*
X014600Y015982D02*
X015123Y015982D01*
X015045Y016060D02*
X014521Y016060D01*
X014361Y016139D02*
X014966Y016139D01*
X014888Y016217D02*
X014132Y016217D01*
X014053Y016296D02*
X014809Y016296D01*
X014731Y016374D02*
X013975Y016374D01*
X013896Y016453D02*
X014637Y016453D01*
X014533Y016531D02*
X013818Y016531D01*
X013739Y016610D02*
X014428Y016610D01*
X014323Y016688D02*
X013661Y016688D01*
X013582Y016767D02*
X014218Y016767D01*
X014113Y016845D02*
X013504Y016845D01*
X013425Y016924D02*
X014008Y016924D01*
X013903Y017002D02*
X013347Y017002D01*
X013268Y017081D02*
X013769Y017081D01*
X013625Y017159D02*
X013190Y017159D01*
X013063Y017238D02*
X013481Y017238D01*
X013338Y017316D02*
X010936Y017316D01*
X010904Y017284D02*
X010976Y017356D01*
X011015Y017449D01*
X011015Y017551D01*
X010976Y017644D01*
X010904Y017716D01*
X010810Y017755D01*
X010709Y017755D01*
X010673Y017740D01*
X007712Y017740D01*
X007624Y017703D01*
X007556Y017636D01*
X007306Y017386D01*
X007270Y017298D01*
X007270Y016551D01*
X007259Y016551D01*
X007189Y016481D01*
X007189Y016377D01*
X007157Y016390D01*
X006839Y016390D01*
X006782Y016447D01*
X006367Y016447D01*
X006297Y016377D01*
X006297Y015923D01*
X006367Y015853D01*
X006782Y015853D01*
X006839Y015910D01*
X007010Y015910D01*
X007189Y015731D01*
X007189Y014019D01*
X004544Y014019D01*
X004491Y013941D02*
X008251Y013941D01*
X008255Y013938D02*
X008290Y013929D01*
X008470Y013929D01*
X008470Y015210D01*
X008550Y015210D01*
X008550Y015290D01*
X008850Y015290D01*
X008850Y016450D01*
X008841Y016485D01*
X008822Y016517D01*
X008796Y016543D01*
X008764Y016562D01*
X008729Y016571D01*
X008550Y016571D01*
X008550Y015290D01*
X008470Y015290D01*
X008470Y016571D01*
X008290Y016571D01*
X008255Y016562D01*
X008223Y016543D01*
X008197Y016517D01*
X008178Y016485D01*
X008169Y016450D01*
X008169Y015290D01*
X008470Y015290D01*
X008470Y015210D01*
X008169Y015210D01*
X008169Y014050D01*
X008178Y014015D01*
X008197Y013983D01*
X008223Y013957D01*
X008255Y013938D01*
X008177Y014019D02*
X007830Y014019D01*
X007830Y016481D01*
X007760Y016551D01*
X007750Y016551D01*
X007750Y017151D01*
X007859Y017260D01*
X010673Y017260D01*
X010709Y017245D01*
X010810Y017245D01*
X010904Y017284D01*
X010992Y017395D02*
X013194Y017395D01*
X013050Y017473D02*
X011015Y017473D01*
X011014Y017552D02*
X012871Y017552D01*
X012660Y017630D02*
X010982Y017630D01*
X010912Y017709D02*
X012450Y017709D01*
X012239Y017787D02*
X007780Y017787D01*
X007636Y017709D02*
X007569Y017709D01*
X007550Y017630D02*
X007359Y017630D01*
X007472Y017552D02*
X007148Y017552D01*
X006969Y017473D02*
X007393Y017473D01*
X007315Y017395D02*
X006825Y017395D01*
X006681Y017316D02*
X007277Y017316D01*
X007270Y017238D02*
X006538Y017238D01*
X006394Y017159D02*
X007270Y017159D01*
X007270Y017081D02*
X006250Y017081D01*
X006116Y017002D02*
X007270Y017002D01*
X007270Y016924D02*
X006011Y016924D01*
X005906Y016845D02*
X007270Y016845D01*
X007270Y016767D02*
X005801Y016767D01*
X005696Y016688D02*
X007270Y016688D01*
X007270Y016610D02*
X005591Y016610D01*
X005486Y016531D02*
X007239Y016531D01*
X007189Y016453D02*
X006165Y016453D01*
X006156Y016458D02*
X006120Y016467D01*
X005983Y016467D01*
X005983Y016189D01*
X005906Y016189D01*
X005906Y016467D01*
X005769Y016467D01*
X005733Y016458D01*
X005701Y016439D01*
X005675Y016413D01*
X005657Y016381D01*
X005647Y016346D01*
X005647Y016189D01*
X005906Y016189D01*
X005906Y016111D01*
X005983Y016111D01*
X005983Y015833D01*
X006120Y015833D01*
X006156Y015842D01*
X006188Y015861D01*
X006214Y015887D01*
X006232Y015919D01*
X006242Y015954D01*
X006242Y016111D01*
X005983Y016111D01*
X005983Y016189D01*
X006242Y016189D01*
X006242Y016346D01*
X006232Y016381D01*
X006214Y016413D01*
X006188Y016439D01*
X006156Y016458D01*
X006234Y016374D02*
X006297Y016374D01*
X006297Y016296D02*
X006242Y016296D01*
X006242Y016217D02*
X006297Y016217D01*
X006297Y016139D02*
X005983Y016139D01*
X005906Y016139D02*
X005053Y016139D01*
X005131Y016217D02*
X005647Y016217D01*
X005647Y016296D02*
X005210Y016296D01*
X005288Y016374D02*
X005655Y016374D01*
X005724Y016453D02*
X005382Y016453D01*
X005647Y016111D02*
X005647Y015954D01*
X005657Y015919D01*
X005675Y015887D01*
X005701Y015861D01*
X005733Y015842D01*
X005769Y015833D01*
X005906Y015833D01*
X005906Y016111D01*
X005647Y016111D01*
X005647Y016060D02*
X004974Y016060D01*
X004896Y015982D02*
X005647Y015982D01*
X005666Y015903D02*
X004817Y015903D01*
X004739Y015825D02*
X007096Y015825D01*
X007017Y015903D02*
X006832Y015903D01*
X007174Y015746D02*
X005332Y015746D01*
X005310Y015755D02*
X005209Y015755D01*
X005115Y015716D01*
X005043Y015644D01*
X005006Y015553D01*
X003489Y013319D01*
X003471Y013301D01*
X003463Y013280D01*
X003449Y013261D01*
X003444Y013236D01*
X003435Y013213D01*
X003435Y013190D01*
X003430Y013167D01*
X003435Y013143D01*
X003435Y012817D01*
X003409Y012817D01*
X003338Y012747D01*
X003338Y012253D01*
X003409Y012183D01*
X003415Y012183D01*
X003415Y011806D01*
X003407Y011798D01*
X003407Y011226D01*
X003478Y011156D01*
X003790Y011156D01*
X003790Y010909D01*
X003918Y010780D01*
X004146Y010780D01*
X004145Y010778D01*
X004135Y010743D01*
X004135Y010502D01*
X004369Y010502D01*
X004369Y010474D01*
X004135Y010474D01*
X004135Y010233D01*
X004145Y010198D01*
X004163Y010166D01*
X004189Y010140D01*
X004221Y010121D01*
X004257Y010112D01*
X004369Y010112D01*
X004369Y010474D01*
X004398Y010474D01*
X004398Y010502D01*
X004632Y010502D01*
X004632Y010743D01*
X004622Y010778D01*
X004621Y010780D01*
X004770Y010780D01*
X004770Y010099D01*
X004487Y009817D01*
X004078Y009817D01*
X004018Y009757D01*
X004003Y009783D01*
X003977Y009809D01*
X003945Y009827D01*
X003910Y009837D01*
X003715Y009837D01*
X003715Y009540D01*
X003635Y009540D01*
X003635Y009837D01*
X003440Y009837D01*
X003404Y009827D01*
X003372Y009809D01*
X003346Y009783D01*
X003328Y009751D01*
X003318Y009715D01*
X003318Y009540D01*
X003635Y009540D01*
X003635Y009460D01*
X003715Y009460D01*
X003715Y009163D01*
X003910Y009163D01*
X003945Y009173D01*
X003977Y009191D01*
X004003Y009217D01*
X004018Y009243D01*
X004078Y009183D01*
X004610Y009183D01*
X004681Y009253D01*
X004681Y009332D01*
X004713Y009364D01*
X005145Y009797D01*
X005213Y009864D01*
X005250Y009952D01*
X005250Y010324D01*
X005259Y010318D01*
X005294Y010309D01*
X005470Y010309D01*
X005470Y010625D01*
X005550Y010625D01*
X005550Y010705D01*
X005846Y010705D01*
X005846Y010900D01*
X005837Y010936D01*
X005818Y010968D01*
X005792Y010994D01*
X005767Y011009D01*
X005826Y011068D01*
X005826Y011601D01*
X005756Y011671D01*
X005750Y011671D01*
X005750Y011901D01*
X005859Y012010D01*
X006185Y012010D01*
X006185Y011836D01*
X006255Y011766D01*
X006981Y011766D01*
X006981Y011038D01*
X007349Y010670D01*
X006939Y010670D01*
X006840Y010570D01*
X006725Y010456D01*
X006725Y010234D01*
X006534Y010234D01*
X006516Y010245D01*
X006481Y010254D01*
X006384Y010254D01*
X006384Y009839D01*
X006384Y009839D01*
X006384Y010254D01*
X006286Y010254D01*
X006251Y010245D01*
X006219Y010226D01*
X006193Y010200D01*
X006174Y010168D01*
X006165Y010133D01*
X006165Y009839D01*
X006384Y009839D01*
X006384Y009423D01*
X006459Y009423D01*
X006459Y008640D01*
X006367Y008547D01*
X006117Y008547D01*
X006047Y008477D01*
X006047Y008023D01*
X006117Y007953D01*
X006532Y007953D01*
X006602Y008023D01*
X006602Y008273D01*
X006715Y008386D01*
X006715Y005725D01*
X007417Y005023D01*
X007417Y004773D01*
X007487Y004703D01*
X007902Y004703D01*
X007972Y004773D01*
X007972Y005227D01*
X008047Y005227D02*
X008047Y004773D01*
X008117Y004703D01*
X008532Y004703D01*
X008602Y004773D01*
X008602Y004800D01*
X008819Y004800D01*
X008819Y004742D01*
X008889Y004671D01*
X008819Y004756D02*
X008585Y004756D01*
X009069Y005000D02*
X009135Y005067D01*
X009452Y005070D02*
X009567Y005070D01*
X009567Y004992D02*
X009452Y004992D01*
X009452Y004913D02*
X009567Y004913D01*
X009567Y004835D02*
X009452Y004835D01*
X009452Y004756D02*
X009567Y004756D01*
X009631Y004678D02*
X009388Y004678D01*
X009813Y004442D02*
X007165Y004442D01*
X007376Y004364D02*
X009891Y004364D01*
X010200Y004756D02*
X010434Y004756D01*
X010417Y004835D02*
X010200Y004835D01*
X010200Y004913D02*
X010417Y004913D01*
X010417Y004992D02*
X010200Y004992D01*
X010200Y005070D02*
X010417Y005070D01*
X010417Y005149D02*
X010220Y005149D01*
X010298Y005227D02*
X010417Y005227D01*
X010377Y005306D02*
X010580Y005306D01*
X010639Y005384D02*
X010440Y005384D01*
X010440Y005463D02*
X010717Y005463D01*
X010796Y005541D02*
X010440Y005541D01*
X010481Y005620D02*
X010874Y005620D01*
X010953Y005698D02*
X010514Y005698D01*
X010515Y005777D02*
X011031Y005777D01*
X011044Y005855D02*
X010492Y005855D01*
X010437Y005934D02*
X011011Y005934D01*
X011005Y006012D02*
X009826Y006012D01*
X009826Y005934D02*
X010082Y005934D01*
X010027Y005855D02*
X009826Y005855D01*
X009826Y005777D02*
X010005Y005777D01*
X010005Y005698D02*
X009826Y005698D01*
X009826Y005620D02*
X010038Y005620D01*
X010080Y005541D02*
X009760Y005541D01*
X009637Y005463D02*
X009382Y005463D01*
X009452Y005384D02*
X009567Y005384D01*
X009567Y005306D02*
X009452Y005306D01*
X009452Y005227D02*
X009567Y005227D01*
X009567Y005149D02*
X009452Y005149D01*
X008819Y005227D02*
X008602Y005227D01*
X008819Y005306D02*
X007644Y005306D01*
X007565Y005384D02*
X008819Y005384D01*
X008889Y005463D02*
X007487Y005463D01*
X007408Y005541D02*
X009259Y005541D01*
X009193Y005620D02*
X007330Y005620D01*
X007251Y005698D02*
X009193Y005698D01*
X009193Y005777D02*
X007173Y005777D01*
X007094Y005855D02*
X009193Y005855D01*
X009193Y005934D02*
X007075Y005934D01*
X007075Y006012D02*
X009193Y006012D01*
X009193Y006091D02*
X007075Y006091D01*
X007075Y006169D02*
X009193Y006169D01*
X009193Y006248D02*
X007075Y006248D01*
X007075Y006326D02*
X007429Y006326D01*
X007350Y006405D02*
X007075Y006405D01*
X007075Y006483D02*
X007272Y006483D01*
X007193Y006562D02*
X007075Y006562D01*
X007075Y006640D02*
X007115Y006640D01*
X007389Y006876D02*
X008675Y006876D01*
X008596Y006954D02*
X007331Y006954D01*
X007331Y007033D02*
X007697Y007033D01*
X007687Y007043D02*
X007757Y006973D01*
X008171Y006973D01*
X008242Y007043D01*
X008242Y007457D01*
X008185Y007514D01*
X008185Y007986D01*
X008222Y008023D01*
X008222Y008477D01*
X008152Y008547D01*
X007737Y008547D01*
X007667Y008477D01*
X007667Y008023D01*
X007705Y007986D01*
X007705Y007475D01*
X007687Y007457D01*
X007687Y007043D01*
X007687Y007111D02*
X007331Y007111D01*
X007331Y007190D02*
X007687Y007190D01*
X007687Y007268D02*
X007331Y007268D01*
X007331Y007347D02*
X007687Y007347D01*
X007687Y007425D02*
X007331Y007425D01*
X007331Y007504D02*
X007705Y007504D01*
X007705Y007582D02*
X007331Y007582D01*
X007331Y007661D02*
X007705Y007661D01*
X007705Y007739D02*
X007331Y007739D01*
X007331Y007818D02*
X007705Y007818D01*
X007705Y007896D02*
X007331Y007896D01*
X007331Y007975D02*
X007705Y007975D01*
X007667Y008053D02*
X007331Y008053D01*
X007331Y008132D02*
X007667Y008132D01*
X007667Y008210D02*
X007331Y008210D01*
X007331Y008289D02*
X007667Y008289D01*
X007667Y008367D02*
X007331Y008367D01*
X007331Y008446D02*
X007667Y008446D01*
X007714Y008524D02*
X007331Y008524D01*
X007331Y008603D02*
X008152Y008603D01*
X008175Y008524D02*
X008231Y008524D01*
X008222Y008446D02*
X008297Y008446D01*
X008297Y008367D02*
X008222Y008367D01*
X008222Y008289D02*
X008297Y008289D01*
X008297Y008210D02*
X008222Y008210D01*
X008222Y008132D02*
X008297Y008132D01*
X008297Y008053D02*
X008222Y008053D01*
X008185Y007975D02*
X008346Y007975D01*
X008185Y007896D02*
X009401Y007896D01*
X009322Y007818D02*
X008185Y007818D01*
X008185Y007739D02*
X009284Y007739D01*
X009284Y007661D02*
X008185Y007661D01*
X008185Y007582D02*
X009284Y007582D01*
X009233Y007504D02*
X008786Y007504D01*
X008832Y007425D02*
X009187Y007425D01*
X009187Y007347D02*
X008832Y007347D01*
X008832Y007268D02*
X009187Y007268D01*
X009187Y007190D02*
X008870Y007190D01*
X008948Y007111D02*
X009187Y007111D01*
X009197Y007033D02*
X009027Y007033D01*
X008753Y006797D02*
X007467Y006797D01*
X007546Y006719D02*
X008832Y006719D01*
X008288Y007033D02*
X008231Y007033D01*
X008242Y007111D02*
X008277Y007111D01*
X008277Y007190D02*
X008242Y007190D01*
X008242Y007268D02*
X008277Y007268D01*
X008277Y007347D02*
X008242Y007347D01*
X008242Y007425D02*
X008277Y007425D01*
X008324Y007504D02*
X008195Y007504D01*
X008803Y007975D02*
X009216Y007975D01*
X009167Y008053D02*
X008852Y008053D01*
X008852Y008132D02*
X009167Y008132D01*
X009167Y008210D02*
X008852Y008210D01*
X008852Y008289D02*
X009167Y008289D01*
X009167Y008367D02*
X008852Y008367D01*
X008852Y008446D02*
X009167Y008446D01*
X009214Y008524D02*
X008805Y008524D01*
X008662Y008603D02*
X009152Y008603D01*
X009074Y008681D02*
X008583Y008681D01*
X008505Y008760D02*
X008995Y008760D01*
X009269Y008995D02*
X010010Y008995D01*
X010088Y008917D02*
X009348Y008917D01*
X009426Y008838D02*
X010167Y008838D01*
X010245Y008760D02*
X009505Y008760D01*
X009583Y008681D02*
X010324Y008681D01*
X010402Y008603D02*
X009625Y008603D01*
X009675Y008524D02*
X009844Y008524D01*
X009797Y008446D02*
X009722Y008446D01*
X009722Y008367D02*
X009797Y008367D01*
X009797Y008289D02*
X009722Y008289D01*
X009722Y008210D02*
X009797Y008210D01*
X009797Y008132D02*
X009722Y008132D01*
X009722Y008053D02*
X009797Y008053D01*
X009846Y007975D02*
X009673Y007975D01*
X010096Y007582D02*
X011587Y007582D01*
X011665Y007661D02*
X010175Y007661D01*
X010253Y007739D02*
X011744Y007739D01*
X011822Y007818D02*
X010254Y007818D01*
X010254Y007896D02*
X011901Y007896D01*
X011979Y007975D02*
X010303Y007975D01*
X010352Y008053D02*
X012058Y008053D01*
X012136Y008132D02*
X011896Y008132D01*
X011974Y008210D02*
X012215Y008210D01*
X012293Y008289D02*
X012053Y008289D01*
X012131Y008367D02*
X012372Y008367D01*
X012288Y008524D02*
X013738Y008524D01*
X013660Y008446D02*
X012210Y008446D01*
X012367Y008603D02*
X016734Y008603D01*
X016763Y008681D02*
X012445Y008681D01*
X012708Y008760D02*
X012811Y008760D01*
X012797Y008838D02*
X012722Y008838D01*
X012722Y008917D02*
X012797Y008917D01*
X012797Y008995D02*
X012722Y008995D01*
X012722Y009074D02*
X012797Y009074D01*
X012797Y009152D02*
X012722Y009152D01*
X012718Y009231D02*
X012801Y009231D01*
X012874Y009309D02*
X012011Y009309D01*
X012015Y009231D02*
X012171Y009231D01*
X012167Y009152D02*
X011995Y009152D01*
X011944Y009074D02*
X012167Y009074D01*
X011979Y009388D02*
X012874Y009388D01*
X012874Y009466D02*
X011960Y009466D01*
X013274Y009545D02*
X013644Y009545D01*
X013644Y009623D02*
X013274Y009623D01*
X013412Y009702D02*
X013607Y009702D01*
X013567Y009780D02*
X013452Y009780D01*
X013452Y009859D02*
X013567Y009859D01*
X013567Y009937D02*
X013452Y009937D01*
X013452Y010016D02*
X013567Y010016D01*
X013567Y010094D02*
X013452Y010094D01*
X013452Y010173D02*
X013567Y010173D01*
X013567Y010251D02*
X013452Y010251D01*
X013452Y010330D02*
X013567Y010330D01*
X013582Y010408D02*
X013437Y010408D01*
X013193Y011036D02*
X011287Y011036D01*
X011281Y011031D02*
X011281Y011031D01*
X011364Y011115D02*
X011450Y011115D01*
X012069Y011115D02*
X013193Y011115D01*
X013193Y011193D02*
X012096Y011193D01*
X012096Y011272D02*
X013206Y011272D01*
X013813Y011272D02*
X015338Y011272D01*
X015325Y011350D02*
X012096Y011350D01*
X011090Y011376D02*
X010852Y011376D01*
X010852Y011610D01*
X010653Y011610D01*
X010653Y011610D01*
X010653Y011986D01*
X010576Y011986D01*
X010540Y011977D01*
X010522Y011966D01*
X010233Y011966D01*
X010233Y012017D01*
X009930Y012320D01*
X009830Y012420D01*
X008118Y012420D01*
X008077Y012528D02*
X011005Y012528D01*
X011005Y012449D02*
X011043Y012356D01*
X011060Y012339D01*
X011060Y012281D01*
X011044Y012233D01*
X011060Y012202D01*
X011060Y012167D01*
X011090Y012137D01*
X011090Y011376D01*
X011090Y011429D02*
X010852Y011429D01*
X010852Y011507D02*
X011090Y011507D01*
X011090Y011586D02*
X010852Y011586D01*
X010852Y011610D02*
X010852Y011865D01*
X010843Y011900D01*
X011090Y011900D01*
X011090Y011978D02*
X010762Y011978D01*
X010766Y011977D02*
X010731Y011986D01*
X010653Y011986D01*
X010653Y011610D01*
X010653Y011610D01*
X010852Y011610D01*
X010852Y011664D02*
X011090Y011664D01*
X011090Y011743D02*
X010852Y011743D01*
X010852Y011821D02*
X011090Y011821D01*
X011090Y012057D02*
X010193Y012057D01*
X010233Y011978D02*
X010544Y011978D01*
X010653Y011978D02*
X010653Y011978D01*
X010653Y011900D02*
X010653Y011900D01*
X010653Y011821D02*
X010653Y011821D01*
X010653Y011743D02*
X010653Y011743D01*
X010653Y011664D02*
X010653Y011664D01*
X010843Y011900D02*
X010824Y011932D01*
X010798Y011958D01*
X010766Y011977D01*
X011090Y012135D02*
X010115Y012135D01*
X010036Y012214D02*
X011054Y012214D01*
X011060Y012292D02*
X009958Y012292D01*
X009879Y012371D02*
X011037Y012371D01*
X011027Y012606D02*
X007120Y012606D01*
X006459Y012606D02*
X005250Y012606D01*
X005250Y012663D02*
X005265Y012699D01*
X005265Y012801D01*
X005226Y012894D01*
X005154Y012966D01*
X005060Y013005D01*
X004959Y013005D01*
X004865Y012966D01*
X004793Y012894D01*
X004755Y012801D01*
X004755Y012740D01*
X004681Y012740D01*
X004681Y012747D01*
X004610Y012817D01*
X004078Y012817D01*
X004010Y012748D01*
X003941Y012817D01*
X003915Y012817D01*
X003915Y013092D01*
X005402Y015283D01*
X005404Y015284D01*
X005476Y015356D01*
X005515Y015449D01*
X005515Y015551D01*
X005476Y015644D01*
X005404Y015716D01*
X005310Y015755D01*
X005187Y015746D02*
X004660Y015746D01*
X004587Y015668D02*
X005066Y015668D01*
X005020Y015589D02*
X004528Y015589D01*
X004469Y015511D02*
X004977Y015511D01*
X004923Y015432D02*
X004410Y015432D01*
X004352Y015354D02*
X004870Y015354D01*
X004817Y015275D02*
X004293Y015275D01*
X004234Y015197D02*
X004763Y015197D01*
X004710Y015118D02*
X004175Y015118D01*
X004116Y015040D02*
X004657Y015040D01*
X004604Y014961D02*
X004058Y014961D01*
X003999Y014883D02*
X004550Y014883D01*
X004497Y014804D02*
X003953Y014804D01*
X003911Y014726D02*
X004444Y014726D01*
X004391Y014647D02*
X003868Y014647D01*
X003825Y014569D02*
X004337Y014569D01*
X004284Y014490D02*
X003782Y014490D01*
X003739Y014412D02*
X004231Y014412D01*
X004177Y014333D02*
X003696Y014333D01*
X003653Y014255D02*
X004124Y014255D01*
X004071Y014176D02*
X003610Y014176D01*
X003568Y014098D02*
X004018Y014098D01*
X003964Y014019D02*
X003525Y014019D01*
X003488Y013941D02*
X003911Y013941D01*
X003858Y013862D02*
X003458Y013862D01*
X003429Y013784D02*
X003804Y013784D01*
X003751Y013705D02*
X003400Y013705D01*
X003370Y013627D02*
X003698Y013627D01*
X003645Y013548D02*
X003341Y013548D01*
X003312Y013470D02*
X003591Y013470D01*
X003538Y013391D02*
X003283Y013391D01*
X003253Y013313D02*
X003483Y013313D01*
X003444Y013234D02*
X003224Y013234D01*
X003195Y013156D02*
X003432Y013156D01*
X003435Y013077D02*
X003165Y013077D01*
X003139Y012999D02*
X003435Y012999D01*
X003435Y012920D02*
X003122Y012920D01*
X003105Y012842D02*
X003435Y012842D01*
X003355Y012763D02*
X003088Y012763D01*
X003071Y012685D02*
X003338Y012685D01*
X003338Y012606D02*
X003054Y012606D01*
X003036Y012528D02*
X003338Y012528D01*
X003338Y012449D02*
X003019Y012449D01*
X003002Y012371D02*
X003338Y012371D01*
X003338Y012292D02*
X002985Y012292D01*
X002968Y012214D02*
X003378Y012214D01*
X003415Y012135D02*
X002951Y012135D01*
X002934Y012057D02*
X003415Y012057D01*
X003415Y011978D02*
X002923Y011978D01*
X002917Y011900D02*
X003415Y011900D01*
X003415Y011821D02*
X002912Y011821D01*
X002906Y011743D02*
X003407Y011743D01*
X003407Y011664D02*
X002900Y011664D01*
X002895Y011586D02*
X003407Y011586D01*
X003407Y011507D02*
X002889Y011507D01*
X002884Y011429D02*
X003407Y011429D01*
X003407Y011350D02*
X002878Y011350D01*
X002872Y011272D02*
X003407Y011272D01*
X003440Y011193D02*
X002867Y011193D01*
X002861Y011115D02*
X003790Y011115D01*
X003790Y011036D02*
X002855Y011036D01*
X002856Y010958D02*
X003790Y010958D01*
X003819Y010879D02*
X002862Y010879D01*
X002867Y010801D02*
X003434Y010801D01*
X003407Y010774D02*
X003478Y010844D01*
X003793Y010844D01*
X003864Y010774D01*
X003864Y010202D01*
X003793Y010132D01*
X003478Y010132D01*
X003407Y010202D01*
X003407Y010774D01*
X003407Y010722D02*
X002873Y010722D01*
X002878Y010644D02*
X003407Y010644D01*
X003407Y010565D02*
X002884Y010565D01*
X002890Y010487D02*
X003407Y010487D01*
X003407Y010408D02*
X002895Y010408D01*
X002901Y010330D02*
X003407Y010330D01*
X003407Y010251D02*
X002906Y010251D01*
X002912Y010173D02*
X003437Y010173D01*
X003834Y010173D02*
X004159Y010173D01*
X004135Y010251D02*
X003864Y010251D01*
X003864Y010330D02*
X004135Y010330D01*
X004135Y010408D02*
X003864Y010408D01*
X003864Y010487D02*
X004369Y010487D01*
X004398Y010487D02*
X004770Y010487D01*
X004770Y010565D02*
X004632Y010565D01*
X004632Y010644D02*
X004770Y010644D01*
X004770Y010722D02*
X004632Y010722D01*
X004135Y010722D02*
X003864Y010722D01*
X003864Y010644D02*
X004135Y010644D01*
X004135Y010565D02*
X003864Y010565D01*
X003837Y010801D02*
X003898Y010801D01*
X004398Y010474D02*
X004398Y010112D01*
X004510Y010112D01*
X004546Y010121D01*
X004578Y010140D01*
X004604Y010166D01*
X004622Y010198D01*
X004632Y010233D01*
X004632Y010474D01*
X004398Y010474D01*
X004398Y010408D02*
X004369Y010408D01*
X004369Y010330D02*
X004398Y010330D01*
X004398Y010251D02*
X004369Y010251D01*
X004369Y010173D02*
X004398Y010173D01*
X004608Y010173D02*
X004770Y010173D01*
X004770Y010251D02*
X004632Y010251D01*
X004632Y010330D02*
X004770Y010330D01*
X004770Y010408D02*
X004632Y010408D01*
X004764Y010094D02*
X002918Y010094D01*
X002923Y010016D02*
X004686Y010016D01*
X004607Y009937D02*
X002935Y009937D01*
X002952Y009859D02*
X004529Y009859D01*
X004893Y009545D02*
X006165Y009545D01*
X006174Y009509D01*
X006193Y009477D01*
X006219Y009451D01*
X006251Y009433D01*
X006286Y009423D01*
X006384Y009423D01*
X006384Y009839D01*
X006384Y009839D01*
X006384Y009839D01*
X006165Y009839D01*
X006165Y009545D01*
X006165Y009623D02*
X004972Y009623D01*
X005050Y009702D02*
X006165Y009702D01*
X006165Y009780D02*
X005129Y009780D01*
X005207Y009859D02*
X006165Y009859D01*
X006165Y009937D02*
X005243Y009937D01*
X005250Y010016D02*
X006165Y010016D01*
X006165Y010094D02*
X005250Y010094D01*
X005250Y010173D02*
X006177Y010173D01*
X006275Y010251D02*
X005250Y010251D01*
X005470Y010330D02*
X005550Y010330D01*
X005550Y010309D02*
X005725Y010309D01*
X005760Y010318D01*
X005792Y010337D01*
X005818Y010363D01*
X005837Y010395D01*
X005846Y010430D01*
X005846Y010625D01*
X005550Y010625D01*
X005550Y010309D01*
X005550Y010408D02*
X005470Y010408D01*
X005470Y010487D02*
X005550Y010487D01*
X005550Y010565D02*
X005470Y010565D01*
X005550Y010644D02*
X006913Y010644D01*
X006834Y010565D02*
X005846Y010565D01*
X005846Y010487D02*
X006756Y010487D01*
X006725Y010408D02*
X005840Y010408D01*
X005780Y010330D02*
X006725Y010330D01*
X006725Y010251D02*
X006492Y010251D01*
X006384Y010251D02*
X006384Y010251D01*
X006384Y010173D02*
X006384Y010173D01*
X006384Y010094D02*
X006384Y010094D01*
X006384Y010016D02*
X006384Y010016D01*
X006384Y009937D02*
X006384Y009937D01*
X006384Y009859D02*
X006384Y009859D01*
X006384Y009780D02*
X006384Y009780D01*
X006384Y009702D02*
X006384Y009702D01*
X006384Y009623D02*
X006384Y009623D01*
X006384Y009545D02*
X006384Y009545D01*
X006384Y009466D02*
X006384Y009466D01*
X006459Y009388D02*
X004736Y009388D01*
X004681Y009309D02*
X006459Y009309D01*
X006459Y009231D02*
X004658Y009231D01*
X004815Y009466D02*
X006204Y009466D01*
X006459Y009152D02*
X003106Y009152D01*
X003089Y009231D02*
X003339Y009231D01*
X003346Y009217D02*
X003372Y009191D01*
X003404Y009173D01*
X003440Y009163D01*
X003635Y009163D01*
X003635Y009460D01*
X003318Y009460D01*
X003318Y009285D01*
X003328Y009249D01*
X003346Y009217D01*
X003318Y009309D02*
X003072Y009309D01*
X003055Y009388D02*
X003318Y009388D01*
X003318Y009545D02*
X003021Y009545D01*
X003004Y009623D02*
X003318Y009623D01*
X003318Y009702D02*
X002987Y009702D01*
X002970Y009780D02*
X003345Y009780D01*
X003635Y009780D02*
X003715Y009780D01*
X003715Y009702D02*
X003635Y009702D01*
X003635Y009623D02*
X003715Y009623D01*
X003715Y009545D02*
X003635Y009545D01*
X003635Y009466D02*
X003038Y009466D01*
X003123Y009074D02*
X006459Y009074D01*
X006459Y008995D02*
X003140Y008995D01*
X003168Y008917D02*
X006459Y008917D01*
X006459Y008838D02*
X003197Y008838D01*
X003226Y008760D02*
X006459Y008760D01*
X006459Y008681D02*
X003256Y008681D01*
X003285Y008603D02*
X004042Y008603D01*
X004053Y008607D02*
X003976Y008575D01*
X003903Y008533D01*
X003837Y008482D01*
X003777Y008423D01*
X003726Y008356D01*
X003684Y008284D01*
X003652Y008206D01*
X003630Y008125D01*
X003620Y008042D01*
X003620Y008040D01*
X004220Y008040D01*
X004220Y008640D01*
X004218Y008640D01*
X004134Y008629D01*
X004053Y008607D01*
X004220Y008603D02*
X004300Y008603D01*
X004300Y008640D02*
X004300Y008040D01*
X004900Y008040D01*
X004900Y008042D01*
X004889Y008125D01*
X004867Y008206D01*
X004835Y008284D01*
X004793Y008356D01*
X004742Y008423D01*
X004682Y008482D01*
X004616Y008533D01*
X004543Y008575D01*
X004466Y008607D01*
X004385Y008629D01*
X004301Y008640D01*
X004300Y008640D01*
X004300Y008524D02*
X004220Y008524D01*
X004220Y008446D02*
X004300Y008446D01*
X004300Y008367D02*
X004220Y008367D01*
X004220Y008289D02*
X004300Y008289D01*
X004300Y008210D02*
X004220Y008210D01*
X004220Y008132D02*
X004300Y008132D01*
X004300Y008053D02*
X004220Y008053D01*
X004220Y008040D02*
X004300Y008040D01*
X004300Y007960D01*
X004900Y007960D01*
X004900Y007958D01*
X004889Y007875D01*
X004867Y007794D01*
X004835Y007716D01*
X004793Y007644D01*
X004742Y007577D01*
X004682Y007518D01*
X004616Y007467D01*
X004543Y007425D01*
X004466Y007393D01*
X004385Y007371D01*
X004301Y007360D01*
X004300Y007360D01*
X004300Y007960D01*
X004220Y007960D01*
X004220Y007360D01*
X004218Y007360D01*
X004134Y007371D01*
X004053Y007393D01*
X003976Y007425D01*
X003903Y007467D01*
X003837Y007518D01*
X003777Y007577D01*
X003726Y007644D01*
X003684Y007716D01*
X003652Y007794D01*
X003630Y007875D01*
X003620Y007958D01*
X003620Y007960D01*
X004220Y007960D01*
X004220Y008040D01*
X004220Y007975D02*
X003528Y007975D01*
X003490Y008053D02*
X003621Y008053D01*
X003632Y008132D02*
X003461Y008132D01*
X003431Y008210D02*
X003654Y008210D01*
X003687Y008289D02*
X003402Y008289D01*
X003373Y008367D02*
X003734Y008367D01*
X003800Y008446D02*
X003344Y008446D01*
X003314Y008524D02*
X003891Y008524D01*
X004477Y008603D02*
X006422Y008603D01*
X006094Y008524D02*
X005925Y008524D01*
X005902Y008547D02*
X005487Y008547D01*
X005417Y008477D01*
X005417Y008023D01*
X005487Y007953D01*
X005495Y007953D01*
X005495Y007515D01*
X005437Y007457D01*
X005437Y007043D01*
X005507Y006973D01*
X005921Y006973D01*
X005992Y007043D01*
X005992Y007457D01*
X005921Y007527D01*
X005895Y007527D01*
X005895Y007953D01*
X005902Y007953D01*
X005972Y008023D01*
X005972Y008477D01*
X005902Y008547D01*
X005972Y008446D02*
X006047Y008446D01*
X006047Y008367D02*
X005972Y008367D01*
X005972Y008289D02*
X006047Y008289D01*
X006047Y008210D02*
X005972Y008210D01*
X005972Y008132D02*
X006047Y008132D01*
X006047Y008053D02*
X005972Y008053D01*
X005923Y007975D02*
X006096Y007975D01*
X005895Y007896D02*
X006715Y007896D01*
X006715Y007818D02*
X005895Y007818D01*
X005895Y007739D02*
X006715Y007739D01*
X006715Y007661D02*
X005895Y007661D01*
X005895Y007582D02*
X006715Y007582D01*
X006715Y007504D02*
X006536Y007504D01*
X006512Y007527D02*
X006098Y007527D01*
X006027Y007457D01*
X006027Y007043D01*
X006098Y006973D01*
X006105Y006973D01*
X006105Y006700D01*
X005920Y006700D01*
X005904Y006716D01*
X005810Y006755D01*
X005709Y006755D01*
X005615Y006716D01*
X005543Y006644D01*
X005505Y006551D01*
X005505Y006449D01*
X005543Y006356D01*
X005615Y006284D01*
X005709Y006245D01*
X005810Y006245D01*
X005904Y006284D01*
X005920Y006300D01*
X006342Y006300D01*
X006460Y006417D01*
X006505Y006462D01*
X006505Y006973D01*
X006512Y006973D01*
X006582Y007043D01*
X006582Y007457D01*
X006512Y007527D01*
X006582Y007425D02*
X006715Y007425D01*
X006715Y007347D02*
X006582Y007347D01*
X006582Y007268D02*
X006715Y007268D01*
X006715Y007190D02*
X006582Y007190D01*
X006582Y007111D02*
X006715Y007111D01*
X006715Y007033D02*
X006572Y007033D01*
X006505Y006954D02*
X006715Y006954D01*
X006715Y006876D02*
X006505Y006876D01*
X006505Y006797D02*
X006715Y006797D01*
X006715Y006719D02*
X006505Y006719D01*
X006505Y006640D02*
X006715Y006640D01*
X006715Y006562D02*
X006505Y006562D01*
X006505Y006483D02*
X006715Y006483D01*
X006715Y006405D02*
X006447Y006405D01*
X006368Y006326D02*
X006715Y006326D01*
X006715Y006248D02*
X005816Y006248D01*
X005703Y006248D02*
X004667Y006248D01*
X004591Y006326D02*
X005573Y006326D01*
X005523Y006405D02*
X004533Y006405D01*
X004474Y006483D02*
X005505Y006483D01*
X005509Y006562D02*
X004415Y006562D01*
X004356Y006640D02*
X005541Y006640D01*
X005621Y006719D02*
X004298Y006719D01*
X004239Y006797D02*
X006105Y006797D01*
X006105Y006719D02*
X005898Y006719D01*
X006105Y006876D02*
X004180Y006876D01*
X004121Y006954D02*
X006105Y006954D01*
X006038Y007033D02*
X005981Y007033D01*
X005992Y007111D02*
X006027Y007111D01*
X006027Y007190D02*
X005992Y007190D01*
X005992Y007268D02*
X006027Y007268D01*
X006027Y007347D02*
X005992Y007347D01*
X005992Y007425D02*
X006027Y007425D01*
X006074Y007504D02*
X005945Y007504D01*
X005695Y007270D02*
X005714Y007250D01*
X005437Y007268D02*
X003914Y007268D01*
X003871Y007347D02*
X005437Y007347D01*
X005437Y007425D02*
X004544Y007425D01*
X004664Y007504D02*
X005483Y007504D01*
X005495Y007582D02*
X004745Y007582D01*
X004803Y007661D02*
X005495Y007661D01*
X005495Y007739D02*
X004844Y007739D01*
X004873Y007818D02*
X005495Y007818D01*
X005495Y007896D02*
X004891Y007896D01*
X004898Y008053D02*
X005417Y008053D01*
X005417Y008132D02*
X004887Y008132D01*
X004865Y008210D02*
X005417Y008210D01*
X005417Y008289D02*
X004832Y008289D01*
X004785Y008367D02*
X005417Y008367D01*
X005417Y008446D02*
X004719Y008446D01*
X004628Y008524D02*
X005464Y008524D01*
X006618Y008289D02*
X006715Y008289D01*
X006715Y008367D02*
X006696Y008367D01*
X006715Y008210D02*
X006602Y008210D01*
X006602Y008132D02*
X006715Y008132D01*
X006715Y008053D02*
X006602Y008053D01*
X006553Y007975D02*
X006715Y007975D01*
X005466Y007975D02*
X004300Y007975D01*
X004300Y007896D02*
X004220Y007896D01*
X004220Y007818D02*
X004300Y007818D01*
X004300Y007739D02*
X004220Y007739D01*
X004220Y007661D02*
X004300Y007661D01*
X004300Y007582D02*
X004220Y007582D01*
X004220Y007504D02*
X004300Y007504D01*
X004300Y007425D02*
X004220Y007425D01*
X003975Y007425D02*
X003828Y007425D01*
X003855Y007504D02*
X003785Y007504D01*
X003774Y007582D02*
X003743Y007582D01*
X003717Y007661D02*
X003700Y007661D01*
X003675Y007739D02*
X003657Y007739D01*
X003646Y007818D02*
X003614Y007818D01*
X003628Y007896D02*
X003571Y007896D01*
X003957Y007190D02*
X005437Y007190D01*
X005437Y007111D02*
X004004Y007111D01*
X004063Y007033D02*
X005447Y007033D01*
X004745Y006169D02*
X006715Y006169D01*
X006715Y006091D02*
X004824Y006091D01*
X004902Y006012D02*
X006715Y006012D01*
X006715Y005934D02*
X004981Y005934D01*
X005059Y005855D02*
X006715Y005855D01*
X006715Y005777D02*
X005138Y005777D01*
X005216Y005698D02*
X006742Y005698D01*
X006820Y005620D02*
X005295Y005620D01*
X005390Y005541D02*
X006899Y005541D01*
X006977Y005463D02*
X005495Y005463D01*
X005600Y005384D02*
X007056Y005384D01*
X007134Y005306D02*
X005705Y005306D01*
X005810Y005227D02*
X007213Y005227D01*
X007291Y005149D02*
X005915Y005149D01*
X006019Y005070D02*
X007370Y005070D01*
X007417Y004992D02*
X006124Y004992D01*
X006262Y004913D02*
X007417Y004913D01*
X007417Y004835D02*
X006406Y004835D01*
X006550Y004756D02*
X007434Y004756D01*
X007955Y004756D02*
X008064Y004756D01*
X008047Y004835D02*
X007972Y004835D01*
X007972Y004913D02*
X008047Y004913D01*
X008047Y004992D02*
X007972Y004992D01*
X007972Y005070D02*
X008047Y005070D01*
X008047Y005149D02*
X007972Y005149D01*
X007586Y004285D02*
X012433Y004285D01*
X012628Y004364D02*
X012643Y004364D01*
X012706Y004442D02*
X012854Y004442D01*
X012785Y004521D02*
X013038Y004521D01*
X013182Y004599D02*
X012863Y004599D01*
X013136Y004678D02*
X013326Y004678D01*
X013200Y004756D02*
X013469Y004756D01*
X013613Y004835D02*
X013200Y004835D01*
X013200Y004913D02*
X013757Y004913D01*
X013895Y004992D02*
X013200Y004992D01*
X013200Y005070D02*
X014000Y005070D01*
X014105Y005149D02*
X013200Y005149D01*
X013200Y005227D02*
X014209Y005227D01*
X014314Y005306D02*
X013200Y005306D01*
X013200Y005384D02*
X013813Y005384D01*
X013815Y005382D02*
X013914Y005382D01*
X014319Y005786D01*
X014319Y005886D01*
X013691Y006513D01*
X013592Y006513D01*
X013188Y006108D01*
X013188Y006009D01*
X013815Y005382D01*
X013916Y005384D02*
X014419Y005384D01*
X014524Y005463D02*
X013995Y005463D01*
X014073Y005541D02*
X014629Y005541D01*
X014724Y005620D02*
X014152Y005620D01*
X014230Y005698D02*
X014803Y005698D01*
X014881Y005777D02*
X014309Y005777D01*
X014319Y005855D02*
X014960Y005855D01*
X015038Y005934D02*
X014271Y005934D01*
X014192Y006012D02*
X015117Y006012D01*
X015195Y006091D02*
X014114Y006091D01*
X014035Y006169D02*
X015274Y006169D01*
X015352Y006248D02*
X013957Y006248D01*
X013878Y006326D02*
X015428Y006326D01*
X015486Y006405D02*
X013800Y006405D01*
X013721Y006483D02*
X015545Y006483D01*
X015604Y006562D02*
X012690Y006562D01*
X012690Y006640D02*
X015663Y006640D01*
X015721Y006719D02*
X012690Y006719D01*
X012690Y006797D02*
X015780Y006797D01*
X015839Y006876D02*
X012690Y006876D01*
X012690Y006954D02*
X013105Y006954D01*
X013110Y006949D02*
X013142Y006931D01*
X013178Y006921D01*
X013215Y006921D01*
X013250Y006931D01*
X013282Y006949D01*
X013365Y007032D01*
X013092Y007305D01*
X012923Y007136D01*
X013110Y006949D01*
X013027Y007033D02*
X012690Y007033D01*
X012690Y007111D02*
X012948Y007111D01*
X012922Y007190D02*
X012976Y007190D01*
X013001Y007268D02*
X013054Y007268D01*
X013129Y007268D02*
X013183Y007268D01*
X013208Y007190D02*
X013262Y007190D01*
X013286Y007111D02*
X013340Y007111D01*
X013365Y007033D02*
X015282Y007033D01*
X015204Y007111D02*
X013444Y007111D01*
X013498Y007190D02*
X015125Y007190D01*
X015047Y007268D02*
X013573Y007268D01*
X013652Y007347D02*
X014968Y007347D01*
X014890Y007425D02*
X013730Y007425D01*
X013809Y007504D02*
X014811Y007504D01*
X014747Y007568D02*
X015374Y006941D01*
X015473Y006941D01*
X015877Y007345D01*
X015877Y007445D01*
X015250Y008072D01*
X015151Y008072D01*
X014747Y007667D01*
X014747Y007568D01*
X014747Y007582D02*
X013887Y007582D01*
X013966Y007661D02*
X014747Y007661D01*
X014818Y007739D02*
X014040Y007739D01*
X014123Y007818D02*
X014331Y007818D01*
X014277Y007896D02*
X014201Y007896D01*
X014255Y007949D02*
X014255Y007949D01*
X014688Y007818D02*
X014897Y007818D01*
X014975Y007896D02*
X014742Y007896D01*
X014765Y007975D02*
X015054Y007975D01*
X015132Y008053D02*
X014764Y008053D01*
X014731Y008132D02*
X016558Y008132D01*
X016588Y008210D02*
X014660Y008210D01*
X014476Y008289D02*
X016617Y008289D01*
X016646Y008367D02*
X014064Y008367D01*
X013986Y008446D02*
X016676Y008446D01*
X016705Y008524D02*
X013907Y008524D01*
X013581Y008367D02*
X013425Y008367D01*
X013504Y008289D02*
X013536Y008289D01*
X013230Y008053D02*
X012567Y008053D01*
X012489Y007975D02*
X013189Y007975D01*
X012651Y007896D02*
X012410Y007896D01*
X012332Y007818D02*
X012572Y007818D01*
X012494Y007739D02*
X012253Y007739D01*
X012175Y007661D02*
X012415Y007661D01*
X012337Y007582D02*
X012096Y007582D01*
X012018Y007504D02*
X012330Y007504D01*
X012330Y007425D02*
X011939Y007425D01*
X011861Y007347D02*
X012330Y007347D01*
X012330Y007268D02*
X011782Y007268D01*
X011704Y007190D02*
X012330Y007190D01*
X012330Y007111D02*
X011625Y007111D01*
X011547Y007033D02*
X012330Y007033D01*
X012330Y006954D02*
X011468Y006954D01*
X011390Y006876D02*
X012330Y006876D01*
X012330Y006797D02*
X011311Y006797D01*
X011233Y006719D02*
X012330Y006719D01*
X012330Y006640D02*
X011154Y006640D01*
X011076Y006562D02*
X012330Y006562D01*
X012330Y006483D02*
X010997Y006483D01*
X010919Y006405D02*
X012330Y006405D01*
X012260Y006326D02*
X010840Y006326D01*
X010762Y006248D02*
X011191Y006248D01*
X011328Y006248D02*
X012193Y006248D01*
X012193Y006169D02*
X011451Y006169D01*
X011498Y006091D02*
X012193Y006091D01*
X012193Y006012D02*
X011515Y006012D01*
X011508Y005934D02*
X012193Y005934D01*
X012193Y005855D02*
X011475Y005855D01*
X011440Y005777D02*
X012193Y005777D01*
X012193Y005698D02*
X011440Y005698D01*
X011384Y005620D02*
X012193Y005620D01*
X012259Y005541D02*
X011305Y005541D01*
X011227Y005463D02*
X011889Y005463D01*
X011819Y005384D02*
X011148Y005384D01*
X011070Y005306D02*
X011819Y005306D01*
X011391Y005067D02*
X011324Y005000D01*
X011047Y004992D02*
X010972Y004992D01*
X010972Y005070D02*
X011047Y005070D01*
X011047Y004913D02*
X010972Y004913D01*
X010972Y004835D02*
X011047Y004835D01*
X011064Y004756D02*
X010955Y004756D01*
X010695Y005000D02*
X010760Y005065D01*
X011602Y004835D02*
X011819Y004835D01*
X011819Y004756D02*
X011585Y004756D01*
X012222Y004207D02*
X007797Y004207D01*
X008017Y004128D02*
X012002Y004128D01*
X011641Y004050D02*
X008378Y004050D01*
X008739Y003971D02*
X011280Y003971D01*
X010697Y003893D02*
X009322Y003893D01*
X012452Y004756D02*
X012511Y004756D01*
X012567Y004835D02*
X012452Y004835D01*
X012452Y004913D02*
X012567Y004913D01*
X012567Y004992D02*
X012452Y004992D01*
X012452Y005070D02*
X012567Y005070D01*
X012567Y005149D02*
X012452Y005149D01*
X012452Y005227D02*
X012567Y005227D01*
X012567Y005306D02*
X012452Y005306D01*
X012452Y005384D02*
X012567Y005384D01*
X012637Y005463D02*
X012382Y005463D01*
X012760Y005541D02*
X013656Y005541D01*
X013734Y005463D02*
X013130Y005463D01*
X012826Y005620D02*
X013577Y005620D01*
X013499Y005698D02*
X012826Y005698D01*
X012826Y005777D02*
X013420Y005777D01*
X013342Y005855D02*
X012826Y005855D01*
X012826Y005934D02*
X013263Y005934D01*
X013188Y006012D02*
X012826Y006012D01*
X012826Y006091D02*
X013188Y006091D01*
X013248Y006169D02*
X012826Y006169D01*
X012826Y006248D02*
X013327Y006248D01*
X013405Y006326D02*
X012759Y006326D01*
X012690Y006405D02*
X013484Y006405D01*
X013562Y006483D02*
X012690Y006483D01*
X013287Y006954D02*
X015361Y006954D01*
X015486Y006954D02*
X015898Y006954D01*
X015956Y007033D02*
X015565Y007033D01*
X015643Y007111D02*
X016015Y007111D01*
X016062Y007190D02*
X015722Y007190D01*
X015800Y007268D02*
X016105Y007268D01*
X016148Y007347D02*
X015877Y007347D01*
X015877Y007425D02*
X016191Y007425D01*
X016234Y007504D02*
X015819Y007504D01*
X015740Y007582D02*
X016276Y007582D01*
X016319Y007661D02*
X015662Y007661D01*
X015583Y007739D02*
X016362Y007739D01*
X016405Y007818D02*
X015505Y007818D01*
X015426Y007896D02*
X016448Y007896D01*
X016491Y007975D02*
X015348Y007975D01*
X015269Y008053D02*
X016529Y008053D01*
X016793Y008760D02*
X013338Y008760D01*
X013352Y008838D02*
X016822Y008838D01*
X016851Y008917D02*
X013352Y008917D01*
X013352Y008995D02*
X013709Y008995D01*
X013810Y008995D02*
X016879Y008995D01*
X016896Y009074D02*
X013944Y009074D01*
X014001Y009152D02*
X016913Y009152D01*
X015334Y010094D02*
X015051Y010094D01*
X014877Y010722D02*
X015332Y010722D01*
X014798Y010801D02*
X017152Y010801D01*
X017158Y010879D02*
X014720Y010879D01*
X014641Y010958D02*
X017163Y010958D01*
X017164Y011036D02*
X014563Y011036D01*
X014484Y011115D02*
X017158Y011115D01*
X017152Y011193D02*
X013826Y011193D01*
X015044Y011900D02*
X015328Y011900D01*
X015520Y011978D02*
X015123Y011978D01*
X011330Y013575D02*
X010935Y013180D01*
X010444Y013180D01*
X010584Y013320D01*
X010690Y013425D01*
X010690Y013949D01*
X010760Y013949D01*
X010830Y014019D01*
X011189Y014019D01*
X011259Y013949D01*
X011330Y013949D01*
X011330Y013575D01*
X011303Y013548D02*
X010690Y013548D01*
X010690Y013470D02*
X011224Y013470D01*
X011146Y013391D02*
X010655Y013391D01*
X010577Y013313D02*
X011067Y013313D01*
X010989Y013234D02*
X010498Y013234D01*
X010185Y013430D02*
X006935Y013430D01*
X006830Y013325D01*
X006459Y012954D01*
X006459Y012557D01*
X006255Y012557D01*
X006188Y012490D01*
X005250Y012490D01*
X005250Y012663D01*
X005258Y012685D02*
X006459Y012685D01*
X006459Y012763D02*
X005265Y012763D01*
X005248Y012842D02*
X006459Y012842D01*
X006459Y012920D02*
X005200Y012920D01*
X005076Y012999D02*
X006503Y012999D01*
X006582Y013077D02*
X003915Y013077D01*
X003915Y012999D02*
X004943Y012999D01*
X004819Y012920D02*
X003915Y012920D01*
X003915Y012842D02*
X004771Y012842D01*
X004755Y012763D02*
X004664Y012763D01*
X005250Y012528D02*
X006226Y012528D01*
X006185Y011978D02*
X005827Y011978D01*
X005750Y011900D02*
X006185Y011900D01*
X006200Y011821D02*
X005750Y011821D01*
X005750Y011743D02*
X006981Y011743D01*
X006981Y011664D02*
X005763Y011664D01*
X005826Y011586D02*
X006981Y011586D01*
X006981Y011507D02*
X005826Y011507D01*
X005826Y011429D02*
X006981Y011429D01*
X006981Y011350D02*
X005826Y011350D01*
X005826Y011272D02*
X006981Y011272D01*
X006981Y011193D02*
X005826Y011193D01*
X005826Y011115D02*
X006981Y011115D01*
X006983Y011036D02*
X005794Y011036D01*
X005824Y010958D02*
X007062Y010958D01*
X007140Y010879D02*
X005846Y010879D01*
X005846Y010801D02*
X007219Y010801D01*
X007297Y010722D02*
X005846Y010722D01*
X004041Y009780D02*
X004005Y009780D01*
X003715Y009388D02*
X003635Y009388D01*
X003635Y009309D02*
X003715Y009309D01*
X003715Y009231D02*
X003635Y009231D01*
X004011Y009231D02*
X004031Y009231D01*
X007331Y009231D02*
X007524Y009231D01*
X007483Y009309D02*
X007331Y009309D01*
X007331Y009388D02*
X007483Y009388D01*
X007603Y009152D02*
X007331Y009152D01*
X007331Y009074D02*
X007681Y009074D01*
X007760Y008995D02*
X007331Y008995D01*
X007331Y008917D02*
X007838Y008917D01*
X007917Y008838D02*
X007331Y008838D01*
X007331Y008760D02*
X007995Y008760D01*
X008074Y008681D02*
X007331Y008681D01*
X008334Y009231D02*
X009774Y009231D01*
X009696Y009309D02*
X008255Y009309D01*
X008177Y009388D02*
X009617Y009388D01*
X009539Y009466D02*
X008099Y009466D01*
X008118Y009545D02*
X009460Y009545D01*
X009382Y009623D02*
X008118Y009623D01*
X008118Y009702D02*
X009303Y009702D01*
X009225Y009780D02*
X008118Y009780D01*
X008118Y009859D02*
X009146Y009859D01*
X009068Y009937D02*
X008118Y009937D01*
X008118Y010016D02*
X008989Y010016D01*
X008911Y010094D02*
X008118Y010094D01*
X009185Y010330D02*
X009687Y010330D01*
X009687Y010251D02*
X009263Y010251D01*
X009342Y010173D02*
X009687Y010173D01*
X009697Y010094D02*
X009420Y010094D01*
X009866Y010390D02*
X009834Y010500D01*
X010035Y010801D02*
X010464Y010801D01*
X010464Y010879D02*
X010035Y010879D01*
X010035Y010958D02*
X010484Y010958D01*
X010484Y011036D02*
X010035Y011036D01*
X002623Y011000D02*
X002625Y011181D01*
X002632Y011362D01*
X002643Y011543D01*
X002659Y011724D01*
X002679Y011904D01*
X002703Y012084D01*
X002732Y012263D01*
X002765Y012441D01*
X002802Y012619D01*
X002844Y012795D01*
X002891Y012970D01*
X002941Y013144D01*
X002996Y013317D01*
X003055Y013489D01*
X003118Y013659D01*
X003185Y013827D01*
X003257Y013994D01*
X003332Y014158D01*
X003412Y014321D01*
X003495Y014482D01*
X003583Y014641D01*
X003674Y014798D01*
X003769Y014952D01*
X003868Y015104D01*
X003971Y015253D01*
X004077Y015400D01*
X004186Y015545D01*
X004300Y015686D01*
X004416Y015825D01*
X004537Y015961D01*
X004660Y016094D01*
X004787Y016223D01*
X004916Y016350D01*
X005049Y016473D01*
X005185Y016594D01*
X005324Y016710D01*
X005465Y016824D01*
X005610Y016933D01*
X005757Y017039D01*
X005906Y017142D01*
X006058Y017241D01*
X006212Y017336D01*
X006369Y017427D01*
X006528Y017515D01*
X006689Y017598D01*
X006852Y017678D01*
X007016Y017753D01*
X007183Y017825D01*
X007351Y017892D01*
X007521Y017955D01*
X007693Y018014D01*
X007866Y018069D01*
X008040Y018119D01*
X008215Y018166D01*
X008391Y018208D01*
X008569Y018245D01*
X008747Y018278D01*
X008926Y018307D01*
X009106Y018331D01*
X009286Y018351D01*
X009467Y018367D01*
X009648Y018378D01*
X009829Y018385D01*
X010010Y018387D01*
X010191Y018385D01*
X010372Y018378D01*
X010553Y018367D01*
X010734Y018351D01*
X010914Y018331D01*
X011094Y018307D01*
X011273Y018278D01*
X011451Y018245D01*
X011629Y018208D01*
X011805Y018166D01*
X011980Y018119D01*
X012154Y018069D01*
X012327Y018014D01*
X012499Y017955D01*
X012669Y017892D01*
X012837Y017825D01*
X013004Y017753D01*
X013168Y017678D01*
X013331Y017598D01*
X013492Y017515D01*
X013651Y017427D01*
X013808Y017336D01*
X013962Y017241D01*
X014114Y017142D01*
X014263Y017039D01*
X014410Y016933D01*
X014555Y016824D01*
X014696Y016710D01*
X014835Y016594D01*
X014971Y016473D01*
X015104Y016350D01*
X015233Y016223D01*
X015360Y016094D01*
X015483Y015961D01*
X015604Y015825D01*
X015720Y015686D01*
X015834Y015545D01*
X015943Y015400D01*
X016049Y015253D01*
X016152Y015104D01*
X016251Y014952D01*
X016346Y014798D01*
X016437Y014641D01*
X016525Y014482D01*
X016608Y014321D01*
X016688Y014158D01*
X016763Y013994D01*
X016835Y013827D01*
X016902Y013659D01*
X016965Y013489D01*
X017024Y013317D01*
X017079Y013144D01*
X017129Y012970D01*
X017176Y012795D01*
X017218Y012619D01*
X017255Y012441D01*
X017288Y012263D01*
X017317Y012084D01*
X017341Y011904D01*
X017361Y011724D01*
X017377Y011543D01*
X017388Y011362D01*
X017395Y011181D01*
X017397Y011000D01*
X017395Y010819D01*
X017388Y010638D01*
X017377Y010457D01*
X017361Y010276D01*
X017341Y010096D01*
X017317Y009916D01*
X017288Y009737D01*
X017255Y009559D01*
X017218Y009381D01*
X017176Y009205D01*
X017129Y009030D01*
X017079Y008856D01*
X017024Y008683D01*
X016965Y008511D01*
X016902Y008341D01*
X016835Y008173D01*
X016763Y008006D01*
X016688Y007842D01*
X016608Y007679D01*
X016525Y007518D01*
X016437Y007359D01*
X016346Y007202D01*
X016251Y007048D01*
X016152Y006896D01*
X016049Y006747D01*
X015943Y006600D01*
X015834Y006455D01*
X015720Y006314D01*
X015604Y006175D01*
X015483Y006039D01*
X015360Y005906D01*
X015233Y005777D01*
X015104Y005650D01*
X014971Y005527D01*
X014835Y005406D01*
X014696Y005290D01*
X014555Y005176D01*
X014410Y005067D01*
X014263Y004961D01*
X014114Y004858D01*
X013962Y004759D01*
X013808Y004664D01*
X013651Y004573D01*
X013492Y004485D01*
X013331Y004402D01*
X013168Y004322D01*
X013004Y004247D01*
X012837Y004175D01*
X012669Y004108D01*
X012499Y004045D01*
X012327Y003986D01*
X012154Y003931D01*
X011980Y003881D01*
X011805Y003834D01*
X011629Y003792D01*
X011451Y003755D01*
X011273Y003722D01*
X011094Y003693D01*
X010914Y003669D01*
X010734Y003649D01*
X010553Y003633D01*
X010372Y003622D01*
X010191Y003615D01*
X010010Y003613D01*
X009829Y003615D01*
X009648Y003622D01*
X009467Y003633D01*
X009286Y003649D01*
X009106Y003669D01*
X008926Y003693D01*
X008747Y003722D01*
X008569Y003755D01*
X008391Y003792D01*
X008215Y003834D01*
X008040Y003881D01*
X007866Y003931D01*
X007693Y003986D01*
X007521Y004045D01*
X007351Y004108D01*
X007183Y004175D01*
X007016Y004247D01*
X006852Y004322D01*
X006689Y004402D01*
X006528Y004485D01*
X006369Y004573D01*
X006212Y004664D01*
X006058Y004759D01*
X005906Y004858D01*
X005757Y004961D01*
X005610Y005067D01*
X005465Y005176D01*
X005324Y005290D01*
X005185Y005406D01*
X005049Y005527D01*
X004916Y005650D01*
X004787Y005777D01*
X004660Y005906D01*
X004537Y006039D01*
X004416Y006175D01*
X004300Y006314D01*
X004186Y006455D01*
X004077Y006600D01*
X003971Y006747D01*
X003868Y006896D01*
X003769Y007048D01*
X003674Y007202D01*
X003583Y007359D01*
X003495Y007518D01*
X003412Y007679D01*
X003332Y007842D01*
X003257Y008006D01*
X003185Y008173D01*
X003118Y008341D01*
X003055Y008511D01*
X002996Y008683D01*
X002941Y008856D01*
X002891Y009030D01*
X002844Y009205D01*
X002802Y009381D01*
X002765Y009559D01*
X002732Y009737D01*
X002703Y009916D01*
X002679Y010096D01*
X002659Y010276D01*
X002643Y010457D01*
X002632Y010638D01*
X002625Y010819D01*
X002623Y011000D01*
X003995Y012763D02*
X004024Y012763D01*
X003958Y013156D02*
X006660Y013156D01*
X006739Y013234D02*
X004012Y013234D01*
X004065Y013313D02*
X006817Y013313D01*
X006896Y013391D02*
X004118Y013391D01*
X004171Y013470D02*
X010224Y013470D01*
X010185Y013430D02*
X010330Y013575D01*
X010330Y013949D01*
X010259Y013949D01*
X010189Y014019D01*
X009830Y014019D01*
X009760Y013949D01*
X009730Y013949D01*
X009730Y013885D01*
X009765Y013801D01*
X009765Y013699D01*
X009726Y013606D01*
X009654Y013534D01*
X009560Y013495D01*
X009459Y013495D01*
X009365Y013534D01*
X009293Y013606D01*
X009255Y013699D01*
X009255Y013801D01*
X009290Y013885D01*
X009290Y013949D01*
X009259Y013949D01*
X009189Y014019D01*
X008842Y014019D01*
X008841Y014015D02*
X008850Y014050D01*
X008850Y015210D01*
X008550Y015210D01*
X008550Y013929D01*
X008729Y013929D01*
X008764Y013938D01*
X008796Y013957D01*
X008822Y013983D01*
X008841Y014015D01*
X008850Y014098D02*
X009189Y014098D01*
X009189Y014176D02*
X008850Y014176D01*
X008850Y014255D02*
X009189Y014255D01*
X009189Y014333D02*
X008850Y014333D01*
X008850Y014412D02*
X009189Y014412D01*
X009189Y014490D02*
X008850Y014490D01*
X008850Y014569D02*
X009189Y014569D01*
X009189Y014647D02*
X008850Y014647D01*
X008850Y014726D02*
X009189Y014726D01*
X009189Y014804D02*
X008850Y014804D01*
X008850Y014883D02*
X009189Y014883D01*
X009189Y014961D02*
X008850Y014961D01*
X008850Y015040D02*
X009189Y015040D01*
X009189Y015118D02*
X008850Y015118D01*
X008850Y015197D02*
X009189Y015197D01*
X009189Y015275D02*
X008550Y015275D01*
X008550Y015197D02*
X008470Y015197D01*
X008470Y015275D02*
X007830Y015275D01*
X007830Y015197D02*
X008169Y015197D01*
X008169Y015118D02*
X007830Y015118D01*
X007830Y015040D02*
X008169Y015040D01*
X008169Y014961D02*
X007830Y014961D01*
X007830Y014883D02*
X008169Y014883D01*
X008169Y014804D02*
X007830Y014804D01*
X007830Y014726D02*
X008169Y014726D01*
X008169Y014647D02*
X007830Y014647D01*
X007830Y014569D02*
X008169Y014569D01*
X008169Y014490D02*
X007830Y014490D01*
X007830Y014412D02*
X008169Y014412D01*
X008169Y014333D02*
X007830Y014333D01*
X007830Y014255D02*
X008169Y014255D01*
X008169Y014176D02*
X007830Y014176D01*
X007830Y014098D02*
X008169Y014098D01*
X008470Y014098D02*
X008550Y014098D01*
X008550Y014176D02*
X008470Y014176D01*
X008470Y014255D02*
X008550Y014255D01*
X008550Y014333D02*
X008470Y014333D01*
X008470Y014412D02*
X008550Y014412D01*
X008550Y014490D02*
X008470Y014490D01*
X008470Y014569D02*
X008550Y014569D01*
X008550Y014647D02*
X008470Y014647D01*
X008470Y014726D02*
X008550Y014726D01*
X008550Y014804D02*
X008470Y014804D01*
X008470Y014883D02*
X008550Y014883D01*
X008550Y014961D02*
X008470Y014961D01*
X008470Y015040D02*
X008550Y015040D01*
X008550Y015118D02*
X008470Y015118D01*
X008470Y015354D02*
X008550Y015354D01*
X008550Y015432D02*
X008470Y015432D01*
X008470Y015511D02*
X008550Y015511D01*
X008550Y015589D02*
X008470Y015589D01*
X008470Y015668D02*
X008550Y015668D01*
X008550Y015746D02*
X008470Y015746D01*
X008470Y015825D02*
X008550Y015825D01*
X008550Y015903D02*
X008470Y015903D01*
X008470Y015982D02*
X008550Y015982D01*
X008550Y016060D02*
X008470Y016060D01*
X008470Y016139D02*
X008550Y016139D01*
X008550Y016217D02*
X008470Y016217D01*
X008470Y016296D02*
X008550Y016296D01*
X008550Y016374D02*
X008470Y016374D01*
X008470Y016453D02*
X008550Y016453D01*
X008550Y016531D02*
X008470Y016531D01*
X008211Y016531D02*
X007780Y016531D01*
X007750Y016610D02*
X013061Y016610D01*
X012982Y016688D02*
X007750Y016688D01*
X007750Y016767D02*
X009407Y016767D01*
X009304Y016845D02*
X007750Y016845D01*
X007750Y016924D02*
X009265Y016924D01*
X009255Y017002D02*
X007750Y017002D01*
X007750Y017081D02*
X009267Y017081D01*
X009308Y017159D02*
X007758Y017159D01*
X007836Y017238D02*
X009417Y017238D01*
X008709Y018023D02*
X011310Y018023D01*
X011670Y017944D02*
X008349Y017944D01*
X007990Y017866D02*
X012029Y017866D01*
X010787Y018101D02*
X009232Y018101D01*
X009259Y016551D02*
X009189Y016481D01*
X009189Y014019D01*
X009290Y013941D02*
X008768Y013941D01*
X008550Y013941D02*
X008470Y013941D01*
X008470Y014019D02*
X008550Y014019D01*
X007830Y014019D02*
X007760Y013949D01*
X007259Y013949D01*
X007189Y014019D01*
X007189Y014098D02*
X004598Y014098D01*
X004651Y014176D02*
X007189Y014176D01*
X007189Y014255D02*
X004704Y014255D01*
X004757Y014333D02*
X007189Y014333D01*
X007189Y014412D02*
X004811Y014412D01*
X004864Y014490D02*
X007189Y014490D01*
X007189Y014569D02*
X004917Y014569D01*
X004971Y014647D02*
X007189Y014647D01*
X007189Y014726D02*
X005024Y014726D01*
X005077Y014804D02*
X007189Y014804D01*
X007189Y014883D02*
X005130Y014883D01*
X005184Y014961D02*
X007189Y014961D01*
X007189Y015040D02*
X005237Y015040D01*
X005290Y015118D02*
X007189Y015118D01*
X007189Y015197D02*
X005344Y015197D01*
X005397Y015275D02*
X007189Y015275D01*
X007189Y015354D02*
X005474Y015354D01*
X005507Y015432D02*
X007189Y015432D01*
X007189Y015511D02*
X005515Y015511D01*
X005499Y015589D02*
X007189Y015589D01*
X007189Y015668D02*
X005453Y015668D01*
X005906Y015903D02*
X005983Y015903D01*
X005983Y015982D02*
X005906Y015982D01*
X005906Y016060D02*
X005983Y016060D01*
X005983Y016217D02*
X005906Y016217D01*
X005906Y016296D02*
X005983Y016296D01*
X005983Y016374D02*
X005906Y016374D01*
X005906Y016453D02*
X005983Y016453D01*
X006242Y016060D02*
X006297Y016060D01*
X006297Y015982D02*
X006242Y015982D01*
X006223Y015903D02*
X006317Y015903D01*
X007830Y015903D02*
X008169Y015903D01*
X008169Y015825D02*
X007830Y015825D01*
X007830Y015746D02*
X008169Y015746D01*
X008169Y015668D02*
X007830Y015668D01*
X007830Y015589D02*
X008169Y015589D01*
X008169Y015511D02*
X007830Y015511D01*
X007830Y015432D02*
X008169Y015432D01*
X008169Y015354D02*
X007830Y015354D01*
X008850Y015354D02*
X009189Y015354D01*
X009189Y015432D02*
X008850Y015432D01*
X008850Y015511D02*
X009189Y015511D01*
X009189Y015589D02*
X008850Y015589D01*
X008850Y015668D02*
X009189Y015668D01*
X009189Y015746D02*
X008850Y015746D01*
X008850Y015825D02*
X009189Y015825D01*
X009189Y015903D02*
X008850Y015903D01*
X008850Y015982D02*
X009189Y015982D01*
X009189Y016060D02*
X008850Y016060D01*
X008850Y016139D02*
X009189Y016139D01*
X009189Y016217D02*
X008850Y016217D01*
X008850Y016296D02*
X009189Y016296D01*
X009189Y016374D02*
X008850Y016374D01*
X008849Y016453D02*
X009189Y016453D01*
X009239Y016531D02*
X008808Y016531D01*
X009259Y016551D02*
X009760Y016551D01*
X009830Y016481D01*
X009830Y014019D01*
X009830Y014098D02*
X010189Y014098D01*
X010189Y014176D02*
X009830Y014176D01*
X009830Y014255D02*
X010189Y014255D01*
X010189Y014333D02*
X009830Y014333D01*
X009830Y014412D02*
X010189Y014412D01*
X010189Y014490D02*
X009830Y014490D01*
X009830Y014569D02*
X010189Y014569D01*
X010189Y014647D02*
X009830Y014647D01*
X009830Y014726D02*
X010189Y014726D01*
X010189Y014804D02*
X009830Y014804D01*
X009830Y014883D02*
X010189Y014883D01*
X010189Y014961D02*
X009830Y014961D01*
X009830Y015040D02*
X010189Y015040D01*
X010189Y015118D02*
X009830Y015118D01*
X009830Y015197D02*
X010189Y015197D01*
X010189Y015275D02*
X009830Y015275D01*
X009830Y015354D02*
X010189Y015354D01*
X010189Y015432D02*
X009830Y015432D01*
X009830Y015511D02*
X010189Y015511D01*
X010189Y015589D02*
X009830Y015589D01*
X009830Y015668D02*
X010189Y015668D01*
X010189Y015746D02*
X009830Y015746D01*
X009830Y015825D02*
X010189Y015825D01*
X010189Y015903D02*
X009830Y015903D01*
X009830Y015982D02*
X010189Y015982D01*
X010189Y016060D02*
X009830Y016060D01*
X009830Y016139D02*
X010189Y016139D01*
X010189Y016217D02*
X009830Y016217D01*
X009830Y016296D02*
X010189Y016296D01*
X010189Y016374D02*
X009830Y016374D01*
X009830Y016453D02*
X010189Y016453D01*
X010189Y016481D02*
X010189Y014019D01*
X010330Y013941D02*
X009730Y013941D01*
X009739Y013862D02*
X010330Y013862D01*
X010330Y013784D02*
X009765Y013784D01*
X009765Y013705D02*
X010330Y013705D01*
X010330Y013627D02*
X009734Y013627D01*
X009668Y013548D02*
X010303Y013548D01*
X010690Y013627D02*
X011330Y013627D01*
X011330Y013705D02*
X010690Y013705D01*
X010690Y013784D02*
X011330Y013784D01*
X011330Y013862D02*
X010690Y013862D01*
X010690Y013941D02*
X011330Y013941D01*
X011189Y014019D02*
X011189Y016481D01*
X011259Y016551D01*
X011760Y016551D01*
X011830Y016481D01*
X011830Y014019D01*
X011830Y014098D02*
X012189Y014098D01*
X012189Y014176D02*
X011830Y014176D01*
X011830Y014255D02*
X012189Y014255D01*
X012189Y014333D02*
X011830Y014333D01*
X011830Y014412D02*
X012189Y014412D01*
X012189Y014490D02*
X011830Y014490D01*
X011830Y014569D02*
X012189Y014569D01*
X012189Y014647D02*
X011830Y014647D01*
X011830Y014726D02*
X012189Y014726D01*
X012189Y014804D02*
X011830Y014804D01*
X011830Y014883D02*
X012189Y014883D01*
X012189Y014961D02*
X011830Y014961D01*
X011830Y015040D02*
X012189Y015040D01*
X012189Y015118D02*
X011830Y015118D01*
X011830Y015197D02*
X012189Y015197D01*
X012189Y015275D02*
X011830Y015275D01*
X011830Y015354D02*
X012189Y015354D01*
X012189Y015432D02*
X011830Y015432D01*
X011830Y015511D02*
X012189Y015511D01*
X012189Y015589D02*
X011830Y015589D01*
X011830Y015668D02*
X012189Y015668D01*
X012189Y015746D02*
X011830Y015746D01*
X011830Y015825D02*
X012189Y015825D01*
X012189Y015903D02*
X011830Y015903D01*
X011830Y015982D02*
X012189Y015982D01*
X012189Y016060D02*
X011830Y016060D01*
X011830Y016139D02*
X012189Y016139D01*
X012189Y016217D02*
X011830Y016217D01*
X011830Y016296D02*
X012189Y016296D01*
X012189Y016374D02*
X011830Y016374D01*
X011830Y016453D02*
X012189Y016453D01*
X012189Y016481D02*
X012189Y014019D01*
X012830Y014019D02*
X012830Y016481D01*
X012760Y016551D01*
X012259Y016551D01*
X012189Y016481D01*
X012239Y016531D02*
X011780Y016531D01*
X011239Y016531D02*
X010780Y016531D01*
X010760Y016551D02*
X010259Y016551D01*
X010189Y016481D01*
X010239Y016531D02*
X009780Y016531D01*
X010760Y016551D02*
X010830Y016481D01*
X010830Y014019D01*
X010830Y014098D02*
X011189Y014098D01*
X011189Y014176D02*
X010830Y014176D01*
X010830Y014255D02*
X011189Y014255D01*
X011189Y014333D02*
X010830Y014333D01*
X010830Y014412D02*
X011189Y014412D01*
X011189Y014490D02*
X010830Y014490D01*
X010830Y014569D02*
X011189Y014569D01*
X011189Y014647D02*
X010830Y014647D01*
X010830Y014726D02*
X011189Y014726D01*
X011189Y014804D02*
X010830Y014804D01*
X010830Y014883D02*
X011189Y014883D01*
X011189Y014961D02*
X010830Y014961D01*
X010830Y015040D02*
X011189Y015040D01*
X011189Y015118D02*
X010830Y015118D01*
X010830Y015197D02*
X011189Y015197D01*
X011189Y015275D02*
X010830Y015275D01*
X010830Y015354D02*
X011189Y015354D01*
X011189Y015432D02*
X010830Y015432D01*
X010830Y015511D02*
X011189Y015511D01*
X011189Y015589D02*
X010830Y015589D01*
X010830Y015668D02*
X011189Y015668D01*
X011189Y015746D02*
X010830Y015746D01*
X010830Y015825D02*
X011189Y015825D01*
X011189Y015903D02*
X010830Y015903D01*
X010830Y015982D02*
X011189Y015982D01*
X011189Y016060D02*
X010830Y016060D01*
X010830Y016139D02*
X011189Y016139D01*
X011189Y016217D02*
X010830Y016217D01*
X010830Y016296D02*
X011189Y016296D01*
X011189Y016374D02*
X010830Y016374D01*
X010830Y016453D02*
X011189Y016453D01*
X012780Y016531D02*
X013139Y016531D01*
X013218Y016453D02*
X012830Y016453D01*
X012830Y016374D02*
X013296Y016374D01*
X013375Y016296D02*
X012830Y016296D01*
X012830Y016217D02*
X013453Y016217D01*
X013532Y016139D02*
X012830Y016139D01*
X012830Y016060D02*
X013498Y016060D01*
X013420Y015982D02*
X012830Y015982D01*
X012830Y015903D02*
X013381Y015903D01*
X013350Y015825D02*
X012830Y015825D01*
X012830Y015746D02*
X013350Y015746D01*
X013352Y015668D02*
X012830Y015668D01*
X012830Y015589D02*
X013384Y015589D01*
X013427Y015511D02*
X012830Y015511D01*
X012830Y015432D02*
X013506Y015432D01*
X013662Y015140D02*
X013519Y015081D01*
X013409Y014971D01*
X013350Y014828D01*
X013350Y014672D01*
X013409Y014529D01*
X013519Y014419D01*
X013662Y014360D01*
X014357Y014360D01*
X014500Y014419D01*
X014610Y014529D01*
X014670Y014672D01*
X014670Y014828D01*
X014610Y014971D01*
X014500Y015081D01*
X014357Y015140D01*
X013662Y015140D01*
X013609Y015118D02*
X012830Y015118D01*
X012830Y015040D02*
X013478Y015040D01*
X013405Y014961D02*
X012830Y014961D01*
X012830Y014883D02*
X013372Y014883D01*
X013350Y014804D02*
X012830Y014804D01*
X012830Y014726D02*
X013350Y014726D01*
X013360Y014647D02*
X012830Y014647D01*
X012830Y014569D02*
X013393Y014569D01*
X013448Y014490D02*
X012830Y014490D01*
X012830Y014412D02*
X013538Y014412D01*
X012830Y014333D02*
X015337Y014333D01*
X015259Y014412D02*
X014482Y014412D01*
X014571Y014490D02*
X015180Y014490D01*
X015102Y014569D02*
X014626Y014569D01*
X014659Y014647D02*
X015023Y014647D01*
X014945Y014726D02*
X014670Y014726D01*
X014670Y014804D02*
X014866Y014804D01*
X014788Y014883D02*
X014647Y014883D01*
X014614Y014961D02*
X014709Y014961D01*
X014631Y015040D02*
X014542Y015040D01*
X014552Y015118D02*
X014410Y015118D01*
X014474Y015197D02*
X012830Y015197D01*
X012830Y015275D02*
X014395Y015275D01*
X014317Y015354D02*
X012830Y015354D01*
X012830Y014255D02*
X015416Y014255D01*
X015494Y014176D02*
X012830Y014176D01*
X012830Y014098D02*
X015520Y014098D01*
X010484Y011193D02*
X010035Y011193D01*
X010035Y011115D02*
X010484Y011115D01*
X010840Y010801D02*
X010840Y010801D01*
X010840Y010722D02*
X010840Y010722D01*
X010840Y010644D02*
X010840Y010644D01*
X013274Y009309D02*
X013508Y009309D01*
X013505Y009231D02*
X013348Y009231D01*
X013352Y009152D02*
X013524Y009152D01*
X013575Y009074D02*
X013352Y009074D01*
X013543Y009394D02*
X013615Y009466D01*
X010873Y008132D02*
X010352Y008132D01*
X010352Y008210D02*
X010795Y008210D01*
X010716Y008289D02*
X010352Y008289D01*
X010352Y008367D02*
X010638Y008367D01*
X010559Y008446D02*
X010352Y008446D01*
X010305Y008524D02*
X010481Y008524D01*
X009931Y009074D02*
X009191Y009074D01*
X009112Y009152D02*
X009853Y009152D01*
X009824Y007504D02*
X009695Y007504D01*
X009742Y007425D02*
X009777Y007425D01*
X009777Y007347D02*
X009742Y007347D01*
X009742Y007268D02*
X009777Y007268D01*
X009777Y007190D02*
X009742Y007190D01*
X009742Y007111D02*
X009777Y007111D01*
X009787Y007033D02*
X009731Y007033D01*
X010061Y006797D02*
X010802Y006797D01*
X010880Y006876D02*
X010140Y006876D01*
X010218Y006954D02*
X010959Y006954D01*
X011037Y007033D02*
X010322Y007033D01*
X010332Y007111D02*
X011116Y007111D01*
X011194Y007190D02*
X010332Y007190D01*
X010332Y007268D02*
X011273Y007268D01*
X011351Y007347D02*
X010332Y007347D01*
X010332Y007425D02*
X011430Y007425D01*
X011508Y007504D02*
X010286Y007504D01*
X010015Y006719D02*
X010723Y006719D01*
X010645Y006640D02*
X009990Y006640D01*
X009932Y006562D02*
X010566Y006562D01*
X010488Y006483D02*
X009515Y006483D01*
X009510Y006562D02*
X009587Y006562D01*
X009659Y006405D02*
X009496Y006405D01*
X010605Y006091D02*
X011021Y006091D01*
X011068Y006169D02*
X010683Y006169D01*
X012690Y007190D02*
X012870Y007190D01*
X012791Y007268D02*
X012690Y007268D01*
X012690Y007347D02*
X012713Y007347D01*
X009351Y013548D02*
X004225Y013548D01*
X004278Y013627D02*
X009285Y013627D01*
X009255Y013705D02*
X004331Y013705D01*
X004385Y013784D02*
X009255Y013784D01*
X009280Y013862D02*
X004438Y013862D01*
X007830Y015982D02*
X008169Y015982D01*
X008169Y016060D02*
X007830Y016060D01*
X007830Y016139D02*
X008169Y016139D01*
X008169Y016217D02*
X007830Y016217D01*
X007830Y016296D02*
X008169Y016296D01*
X008169Y016374D02*
X007830Y016374D01*
X007830Y016453D02*
X008170Y016453D01*
D11*
X007919Y012161D03*
X007663Y012161D03*
X007407Y012161D03*
X007151Y012161D03*
X006895Y012161D03*
X006639Y012161D03*
X006384Y012161D03*
X006384Y009839D03*
X006639Y009839D03*
X006895Y009839D03*
X007151Y009839D03*
X007407Y009839D03*
X007663Y009839D03*
X007919Y009839D03*
D12*
X009866Y010390D03*
X010063Y010390D03*
X010260Y010390D03*
X010456Y010390D03*
X010653Y010390D03*
X010653Y011610D03*
X010456Y011610D03*
X010260Y011610D03*
X010063Y011610D03*
X009866Y011610D03*
D13*
X009679Y011197D03*
X009679Y011000D03*
X009679Y010803D03*
X010840Y010803D03*
X010840Y011000D03*
X010840Y011197D03*
D14*
X014760Y012280D03*
X014760Y009720D03*
D15*
X010055Y007250D03*
X009464Y007250D03*
X008555Y007250D03*
X007964Y007250D03*
X006305Y007250D03*
X005714Y007250D03*
D16*
X005695Y008250D03*
X006324Y008250D03*
X007945Y008250D03*
X008574Y008250D03*
X009445Y008250D03*
X010074Y008250D03*
X012445Y009000D03*
X013074Y009000D03*
X011324Y005000D03*
X010695Y005000D03*
X008324Y005000D03*
X007695Y005000D03*
X006574Y016150D03*
X005945Y016150D03*
D17*
X004344Y012500D03*
X003675Y012500D03*
X003675Y009500D03*
X004344Y009500D03*
D18*
X015760Y010409D03*
X015760Y011591D03*
D19*
X013510Y010933D03*
X013884Y010067D03*
X013135Y010067D03*
X012510Y005933D03*
X012884Y005067D03*
X012135Y005067D03*
X009884Y005067D03*
X009135Y005067D03*
X009510Y005933D03*
D20*
X004384Y010488D03*
X003635Y010488D03*
X003635Y011512D03*
X004010Y011512D03*
X004384Y011512D03*
D21*
X005510Y011335D03*
X005510Y010665D03*
X011760Y010585D03*
X011760Y009915D03*
X011760Y011415D03*
X011760Y012085D03*
D22*
G36*
X015756Y007395D02*
X015423Y007062D01*
X014868Y007617D01*
X015201Y007950D01*
X015756Y007395D01*
G37*
G36*
X014197Y005836D02*
X013864Y005503D01*
X013309Y006058D01*
X013642Y006391D01*
X014197Y005836D01*
G37*
D23*
G36*
X013362Y007229D02*
X013195Y007062D01*
X012822Y007435D01*
X012989Y007602D01*
X013362Y007229D01*
G37*
G36*
X013640Y007508D02*
X013473Y007341D01*
X013100Y007714D01*
X013267Y007881D01*
X013640Y007508D01*
G37*
G36*
X013919Y007786D02*
X013752Y007619D01*
X013379Y007992D01*
X013546Y008159D01*
X013919Y007786D01*
G37*
G36*
X014197Y008065D02*
X014030Y007898D01*
X013657Y008271D01*
X013824Y008438D01*
X014197Y008065D01*
G37*
D24*
X012510Y015250D03*
X011510Y015250D03*
X010510Y015250D03*
X009510Y015250D03*
X008510Y015250D03*
X007510Y015250D03*
D25*
X013740Y014750D02*
X014280Y014750D01*
X014280Y015750D02*
X013740Y015750D01*
D26*
X004260Y008000D03*
D27*
X004344Y009500D02*
X004510Y009500D01*
X005010Y010000D01*
X005010Y011000D01*
X005010Y012250D01*
X005010Y012500D01*
X004344Y012500D01*
X003675Y012500D02*
X003675Y013165D01*
X005260Y015500D01*
X006574Y016150D02*
X007110Y016150D01*
X007510Y015750D01*
X007510Y017250D01*
X007760Y017500D01*
X010760Y017500D01*
X009510Y017000D02*
X013010Y017000D01*
X014260Y015750D01*
X014010Y015750D01*
X014260Y015750D02*
X015760Y014250D01*
X015760Y012250D01*
X015730Y012280D01*
X014760Y012280D01*
X015760Y012250D02*
X015760Y011591D01*
X014760Y010500D02*
X014326Y010933D01*
X013510Y010933D01*
X014760Y010500D02*
X014850Y010409D01*
X015760Y010409D01*
X014760Y010500D02*
X014760Y009720D01*
X013884Y009374D02*
X013760Y009250D01*
X013884Y009374D02*
X013884Y010067D01*
X007945Y008250D02*
X007945Y007270D01*
X007964Y007250D01*
X005510Y011335D02*
X005510Y012000D01*
X005760Y012250D01*
X005010Y012250D01*
X005010Y012500D02*
X005010Y012750D01*
X005760Y012250D02*
X006295Y012250D01*
X007510Y015250D02*
X007510Y015750D01*
D28*
X005260Y015500D03*
X009510Y017000D03*
X010760Y017500D03*
X009510Y013750D03*
X011260Y012500D03*
X005010Y012750D03*
X011760Y009250D03*
X011260Y008750D03*
X013760Y009250D03*
X014510Y008000D03*
X011260Y006000D03*
X010260Y005750D03*
X009260Y006500D03*
X009760Y006750D03*
X005760Y006500D03*
D29*
X005010Y011000D02*
X004010Y011000D01*
X004010Y011512D01*
X004384Y011512D02*
X004384Y012000D01*
X003635Y012000D01*
X003635Y011512D01*
X003635Y012000D02*
X003635Y012500D01*
X003675Y012500D01*
X009510Y013750D02*
X009510Y015250D01*
D30*
X011260Y012500D02*
X011260Y012250D01*
X011344Y012085D01*
X011760Y012085D01*
X013074Y010006D02*
X013074Y009000D01*
X011760Y009250D02*
X011760Y009750D01*
X006384Y012161D02*
X006295Y012250D01*
X005695Y008250D02*
X005695Y007270D01*
X006305Y007250D02*
X006305Y006545D01*
X006260Y006500D01*
X005760Y006500D01*
X008324Y005000D02*
X009069Y005000D01*
X011391Y005067D02*
X012135Y005067D01*
D31*
X012510Y004500D02*
X012884Y004874D01*
X012884Y005067D01*
X012510Y004500D02*
X010010Y004500D01*
X009884Y004626D01*
X009884Y005067D01*
X010260Y005443D01*
X010260Y005750D01*
X009760Y006250D02*
X009510Y006000D01*
X009510Y005933D01*
X009760Y006250D02*
X010510Y006250D01*
X012510Y008250D01*
X013288Y008250D01*
X013649Y007889D01*
X013927Y008168D02*
X014342Y008168D01*
X014510Y008000D01*
X013370Y007611D02*
X013231Y007750D01*
X012760Y007750D01*
X012510Y007500D01*
X012510Y005933D01*
X011260Y006000D02*
X011260Y005750D01*
X010760Y005250D01*
X010760Y005065D01*
X009260Y006500D02*
X007510Y006500D01*
X007151Y006858D01*
X007151Y009839D01*
X006895Y009839D02*
X006895Y005799D01*
X007695Y005000D01*
X009005Y006800D02*
X009710Y006800D01*
X009760Y006750D01*
X010055Y007045D01*
X010055Y007250D01*
X010010Y007750D02*
X009510Y007750D01*
X009464Y007705D01*
X009464Y007250D01*
X009005Y006800D02*
X008555Y007250D01*
X010010Y007750D02*
X010074Y007815D01*
X010074Y008250D01*
X009445Y008250D02*
X009445Y008565D01*
X009010Y009000D01*
X008310Y009000D01*
X007919Y009391D01*
X007919Y009839D01*
X007663Y009839D02*
X007663Y009346D01*
X008510Y008500D01*
X008510Y008315D01*
X008574Y008250D01*
X006639Y008565D02*
X006324Y008250D01*
X006639Y008565D02*
X006639Y009839D01*
X007407Y009839D02*
X007407Y010148D01*
X007560Y010300D01*
X008960Y010300D01*
X011010Y008250D01*
X011760Y008250D01*
X012510Y009000D01*
X012445Y009000D01*
X013074Y010006D02*
X013135Y010067D01*
X010653Y010390D02*
X010456Y010390D01*
X006895Y012161D02*
X006895Y012636D01*
X007260Y013000D01*
X011010Y013000D01*
X011510Y013500D01*
X011510Y015250D01*
X010510Y015250D02*
X010510Y013500D01*
X010260Y013250D01*
X007010Y013250D01*
X006639Y012880D01*
X006639Y012161D01*
D32*
X007151Y012161D02*
X007151Y011108D01*
X007456Y010803D01*
X009679Y010803D01*
X009679Y011000D02*
X007760Y011000D01*
X007407Y011352D01*
X007407Y012161D01*
X007663Y012161D02*
X007663Y011596D01*
X008063Y011197D01*
X009679Y011197D01*
X010063Y011610D02*
X010063Y011947D01*
X009760Y012250D01*
X008080Y012250D01*
X007919Y012161D01*
X010840Y011197D02*
X011210Y011200D01*
X011260Y011250D01*
X011260Y012500D01*
X010456Y010390D02*
X010456Y009853D01*
X010560Y009750D01*
X011760Y009750D01*
X011760Y009915D01*
X011260Y008750D02*
X010260Y009750D01*
X010260Y010390D01*
X009834Y010500D02*
X007010Y010500D01*
X006895Y010386D01*
X006895Y009839D01*
M02*
